%TF.GenerationSoftware,KiCad,Pcbnew,5.99.0+really5.1.10+dfsg1-1*%
%TF.CreationDate,2022-03-10T13:38:06+00:00*%
%TF.ProjectId,board,626f6172-642e-46b6-9963-61645f706362,rev?*%
%TF.SameCoordinates,Original*%
%TF.FileFunction,Copper,L4,Bot*%
%TF.FilePolarity,Positive*%
%FSLAX46Y46*%
G04 Gerber Fmt 4.6, Leading zero omitted, Abs format (unit mm)*
G04 Created by KiCad (PCBNEW 5.99.0+really5.1.10+dfsg1-1) date 2022-03-10 13:38:06*
%MOMM*%
%LPD*%
G01*
G04 APERTURE LIST*
%TA.AperFunction,ComponentPad*%
%ADD10C,1.500000*%
%TD*%
%TA.AperFunction,ComponentPad*%
%ADD11O,1.600000X1.600000*%
%TD*%
%TA.AperFunction,ComponentPad*%
%ADD12R,1.600000X1.600000*%
%TD*%
%TA.AperFunction,ComponentPad*%
%ADD13O,1.905000X2.000000*%
%TD*%
%TA.AperFunction,ComponentPad*%
%ADD14R,1.905000X2.000000*%
%TD*%
%TA.AperFunction,ComponentPad*%
%ADD15O,2.000000X1.700000*%
%TD*%
%TA.AperFunction,ComponentPad*%
%ADD16O,1.700000X2.000000*%
%TD*%
%TA.AperFunction,ComponentPad*%
%ADD17C,1.600000*%
%TD*%
%TA.AperFunction,ComponentPad*%
%ADD18O,1.700000X1.950000*%
%TD*%
%TA.AperFunction,WasherPad*%
%ADD19C,2.300000*%
%TD*%
%TA.AperFunction,ComponentPad*%
%ADD20O,2.410000X4.020000*%
%TD*%
%TA.AperFunction,ComponentPad*%
%ADD21R,2.410000X4.020000*%
%TD*%
%TA.AperFunction,Conductor*%
%ADD22C,0.400000*%
%TD*%
G04 APERTURE END LIST*
D10*
%TO.P,Y1,2*%
%TO.N,Net-(C2_CRY1-Pad1)*%
X123110000Y-120650000D03*
%TO.P,Y1,1*%
%TO.N,Net-(C1_CRY1-Pad1)*%
X118110000Y-120650000D03*
%TD*%
D11*
%TO.P,U2,28*%
%TO.N,Net-(U2-Pad28)*%
X102870000Y-107950000D03*
%TO.P,U2,14*%
%TO.N,Net-(U2-Pad14)*%
X135890000Y-115570000D03*
%TO.P,U2,27*%
%TO.N,Net-(R_LED5-Pad2)*%
X105410000Y-107950000D03*
%TO.P,U2,13*%
%TO.N,Net-(U2-Pad13)*%
X133350000Y-115570000D03*
%TO.P,U2,26*%
%TO.N,Net-(R_LED4-Pad2)*%
X107950000Y-107950000D03*
%TO.P,U2,12*%
%TO.N,Net-(R_SW5-Pad2)*%
X130810000Y-115570000D03*
%TO.P,U2,25*%
%TO.N,Net-(R_LED3-Pad2)*%
X110490000Y-107950000D03*
%TO.P,U2,11*%
%TO.N,Net-(R_SW4-Pad2)*%
X128270000Y-115570000D03*
%TO.P,U2,24*%
%TO.N,Net-(R_LED2-Pad2)*%
X113030000Y-107950000D03*
%TO.P,U2,10*%
%TO.N,Net-(C2_CRY1-Pad1)*%
X125730000Y-115570000D03*
%TO.P,U2,23*%
%TO.N,Net-(R_LED1-Pad2)*%
X115570000Y-107950000D03*
%TO.P,U2,9*%
%TO.N,Net-(C1_CRY1-Pad1)*%
X123190000Y-115570000D03*
%TO.P,U2,22*%
%TO.N,Net-(BT1-Pad2)*%
X118110000Y-107950000D03*
%TO.P,U2,8*%
X120650000Y-115570000D03*
%TO.P,U2,21*%
%TO.N,Net-(U2-Pad21)*%
X120650000Y-107950000D03*
%TO.P,U2,7*%
%TO.N,Net-(C_POW1-Pad1)*%
X118110000Y-115570000D03*
%TO.P,U2,20*%
X123190000Y-107950000D03*
%TO.P,U2,6*%
%TO.N,Net-(R_SW3-Pad2)*%
X115570000Y-115570000D03*
%TO.P,U2,19*%
%TO.N,Net-(Micro_SD_card1-Pad4)*%
X125730000Y-107950000D03*
%TO.P,U2,5*%
%TO.N,Net-(R_SW2-Pad2)*%
X113030000Y-115570000D03*
%TO.P,U2,18*%
%TO.N,Net-(Micro_SD_card1-Pad5)*%
X128270000Y-107950000D03*
%TO.P,U2,4*%
%TO.N,Net-(R_SW1-Pad2)*%
X110490000Y-115570000D03*
%TO.P,U2,17*%
%TO.N,Net-(Micro_SD_card1-Pad3)*%
X130810000Y-107950000D03*
%TO.P,U2,3*%
%TO.N,Net-(U2-Pad3)*%
X107950000Y-115570000D03*
%TO.P,U2,16*%
%TO.N,Net-(Micro_SD_card1-Pad2)*%
X133350000Y-107950000D03*
%TO.P,U2,2*%
%TO.N,Net-(U2-Pad2)*%
X105410000Y-115570000D03*
%TO.P,U2,15*%
%TO.N,Net-(C_AMP1-Pad1)*%
X135890000Y-107950000D03*
D12*
%TO.P,U2,1*%
%TO.N,Net-(R_RESET1-Pad1)*%
X102870000Y-115570000D03*
%TD*%
D13*
%TO.P,U1,3*%
%TO.N,Net-(C_POW1-Pad1)*%
X153670000Y-148590000D03*
%TO.P,U1,2*%
%TO.N,Net-(BT1-Pad2)*%
X151130000Y-148590000D03*
D14*
%TO.P,U1,1*%
%TO.N,Net-(PowerSwExt1-Pad2)*%
X148590000Y-148590000D03*
%TD*%
%TO.P,SW5,1*%
%TO.N,Net-(BT1-Pad2)*%
%TA.AperFunction,ComponentPad*%
G36*
G01*
X82030000Y-130390000D02*
X80530000Y-130390000D01*
G75*
G02*
X80280000Y-130140000I0J250000D01*
G01*
X80280000Y-128940000D01*
G75*
G02*
X80530000Y-128690000I250000J0D01*
G01*
X82030000Y-128690000D01*
G75*
G02*
X82280000Y-128940000I0J-250000D01*
G01*
X82280000Y-130140000D01*
G75*
G02*
X82030000Y-130390000I-250000J0D01*
G01*
G37*
%TD.AperFunction*%
D15*
%TO.P,SW5,2*%
%TO.N,Net-(R_SW5-Pad2)*%
X81280000Y-127040000D03*
%TD*%
%TO.P,SW4,2*%
%TO.N,Net-(R_SW4-Pad2)*%
X81280000Y-151170000D03*
%TO.P,SW4,1*%
%TO.N,Net-(BT1-Pad2)*%
%TA.AperFunction,ComponentPad*%
G36*
G01*
X82030000Y-154520000D02*
X80530000Y-154520000D01*
G75*
G02*
X80280000Y-154270000I0J250000D01*
G01*
X80280000Y-153070000D01*
G75*
G02*
X80530000Y-152820000I250000J0D01*
G01*
X82030000Y-152820000D01*
G75*
G02*
X82280000Y-153070000I0J-250000D01*
G01*
X82280000Y-154270000D01*
G75*
G02*
X82030000Y-154520000I-250000J0D01*
G01*
G37*
%TD.AperFunction*%
%TD*%
%TO.P,SW3,2*%
%TO.N,Net-(R_SW3-Pad2)*%
X161290000Y-133310000D03*
%TO.P,SW3,1*%
%TO.N,Net-(BT1-Pad2)*%
%TA.AperFunction,ComponentPad*%
G36*
G01*
X160540000Y-129960000D02*
X162040000Y-129960000D01*
G75*
G02*
X162290000Y-130210000I0J-250000D01*
G01*
X162290000Y-131410000D01*
G75*
G02*
X162040000Y-131660000I-250000J0D01*
G01*
X160540000Y-131660000D01*
G75*
G02*
X160290000Y-131410000I0J250000D01*
G01*
X160290000Y-130210000D01*
G75*
G02*
X160540000Y-129960000I250000J0D01*
G01*
G37*
%TD.AperFunction*%
%TD*%
D16*
%TO.P,SW2,2*%
%TO.N,Net-(R_SW2-Pad2)*%
X149820000Y-100330000D03*
%TO.P,SW2,1*%
%TO.N,Net-(BT1-Pad2)*%
%TA.AperFunction,ComponentPad*%
G36*
G01*
X146470000Y-101080000D02*
X146470000Y-99580000D01*
G75*
G02*
X146720000Y-99330000I250000J0D01*
G01*
X147920000Y-99330000D01*
G75*
G02*
X148170000Y-99580000I0J-250000D01*
G01*
X148170000Y-101080000D01*
G75*
G02*
X147920000Y-101330000I-250000J0D01*
G01*
X146720000Y-101330000D01*
G75*
G02*
X146470000Y-101080000I0J250000D01*
G01*
G37*
%TD.AperFunction*%
%TD*%
%TO.P,SW1,2*%
%TO.N,Net-(R_SW1-Pad2)*%
X85050000Y-100330000D03*
%TO.P,SW1,1*%
%TO.N,Net-(BT1-Pad2)*%
%TA.AperFunction,ComponentPad*%
G36*
G01*
X81700000Y-101080000D02*
X81700000Y-99580000D01*
G75*
G02*
X81950000Y-99330000I250000J0D01*
G01*
X83150000Y-99330000D01*
G75*
G02*
X83400000Y-99580000I0J-250000D01*
G01*
X83400000Y-101080000D01*
G75*
G02*
X83150000Y-101330000I-250000J0D01*
G01*
X81950000Y-101330000D01*
G75*
G02*
X81700000Y-101080000I0J250000D01*
G01*
G37*
%TD.AperFunction*%
%TD*%
D17*
%TO.P,R_SW5,1*%
%TO.N,Net-(C_POW1-Pad1)*%
X86360000Y-125730000D03*
D11*
%TO.P,R_SW5,2*%
%TO.N,Net-(R_SW5-Pad2)*%
X86360000Y-133350000D03*
%TD*%
%TO.P,R_SW4,2*%
%TO.N,Net-(R_SW4-Pad2)*%
X86360000Y-156210000D03*
D17*
%TO.P,R_SW4,1*%
%TO.N,Net-(C_POW1-Pad1)*%
X86360000Y-148590000D03*
%TD*%
D11*
%TO.P,R_SW3,2*%
%TO.N,Net-(R_SW3-Pad2)*%
X157480000Y-125730000D03*
D17*
%TO.P,R_SW3,1*%
%TO.N,Net-(C_POW1-Pad1)*%
X157480000Y-118110000D03*
%TD*%
D11*
%TO.P,R_SW2,2*%
%TO.N,Net-(R_SW2-Pad2)*%
X152400000Y-109220000D03*
D17*
%TO.P,R_SW2,1*%
%TO.N,Net-(C_POW1-Pad1)*%
X160020000Y-109220000D03*
%TD*%
D11*
%TO.P,R_SW1,2*%
%TO.N,Net-(R_SW1-Pad2)*%
X87630000Y-107950000D03*
D17*
%TO.P,R_SW1,1*%
%TO.N,Net-(C_POW1-Pad1)*%
X87630000Y-115570000D03*
%TD*%
D11*
%TO.P,R_RESET1,2*%
%TO.N,Net-(C_POW1-Pad1)*%
X109220000Y-120650000D03*
D17*
%TO.P,R_RESET1,1*%
%TO.N,Net-(R_RESET1-Pad1)*%
X101600000Y-120650000D03*
%TD*%
%TO.P,R_LED5,1*%
%TO.N,Net-(LED5-Pad2)*%
X86360000Y-121920000D03*
D11*
%TO.P,R_LED5,2*%
%TO.N,Net-(R_LED5-Pad2)*%
X93980000Y-121920000D03*
%TD*%
%TO.P,R_LED4,2*%
%TO.N,Net-(R_LED4-Pad2)*%
X86360000Y-138430000D03*
D17*
%TO.P,R_LED4,1*%
%TO.N,Net-(LED4-Pad2)*%
X86360000Y-146050000D03*
%TD*%
D11*
%TO.P,R_LED3,2*%
%TO.N,Net-(R_LED3-Pad2)*%
X160020000Y-148590000D03*
D17*
%TO.P,R_LED3,1*%
%TO.N,Net-(LED3-Pad2)*%
X160020000Y-156210000D03*
%TD*%
D11*
%TO.P,R_LED2,2*%
%TO.N,Net-(R_LED2-Pad2)*%
X152400000Y-113030000D03*
D17*
%TO.P,R_LED2,1*%
%TO.N,Net-(LED2-Pad2)*%
X160020000Y-113030000D03*
%TD*%
D11*
%TO.P,R_LED1,2*%
%TO.N,Net-(R_LED1-Pad2)*%
X96520000Y-115570000D03*
D17*
%TO.P,R_LED1,1*%
%TO.N,Net-(LED1-Pad2)*%
X96520000Y-107950000D03*
%TD*%
D11*
%TO.P,R_AMP1,2*%
%TO.N,Net-(LS1-Pad2)*%
X148590000Y-107950000D03*
D17*
%TO.P,R_AMP1,1*%
%TO.N,Net-(C_AMP1-Pad2)*%
X140970000Y-107950000D03*
%TD*%
D13*
%TO.P,Q1,3*%
%TO.N,Net-(BT1-Pad2)*%
X147320000Y-114300000D03*
%TO.P,Q1,2*%
%TO.N,Net-(LS1-Pad2)*%
X144780000Y-114300000D03*
D14*
%TO.P,Q1,1*%
%TO.N,Net-(C_AMP1-Pad2)*%
X142240000Y-114300000D03*
%TD*%
D16*
%TO.P,PowerSwExt1,2*%
%TO.N,Net-(PowerSwExt1-Pad2)*%
X151090000Y-153670000D03*
%TO.P,PowerSwExt1,1*%
%TO.N,Net-(BT1-Pad1)*%
%TA.AperFunction,ComponentPad*%
G36*
G01*
X147740000Y-154420000D02*
X147740000Y-152920000D01*
G75*
G02*
X147990000Y-152670000I250000J0D01*
G01*
X149190000Y-152670000D01*
G75*
G02*
X149440000Y-152920000I0J-250000D01*
G01*
X149440000Y-154420000D01*
G75*
G02*
X149190000Y-154670000I-250000J0D01*
G01*
X147990000Y-154670000D01*
G75*
G02*
X147740000Y-154420000I0J250000D01*
G01*
G37*
%TD.AperFunction*%
%TD*%
D18*
%TO.P,Micro_SD_card1,6*%
%TO.N,Net-(BT1-Pad2)*%
X123390000Y-101600000D03*
%TO.P,Micro_SD_card1,5*%
%TO.N,Net-(Micro_SD_card1-Pad5)*%
X125890000Y-101600000D03*
%TO.P,Micro_SD_card1,4*%
%TO.N,Net-(Micro_SD_card1-Pad4)*%
X128390000Y-101600000D03*
%TO.P,Micro_SD_card1,3*%
%TO.N,Net-(Micro_SD_card1-Pad3)*%
X130890000Y-101600000D03*
%TO.P,Micro_SD_card1,2*%
%TO.N,Net-(Micro_SD_card1-Pad2)*%
X133390000Y-101600000D03*
%TO.P,Micro_SD_card1,1*%
%TO.N,Net-(C_POW1-Pad1)*%
%TA.AperFunction,ComponentPad*%
G36*
G01*
X136740000Y-100875000D02*
X136740000Y-102325000D01*
G75*
G02*
X136490000Y-102575000I-250000J0D01*
G01*
X135290000Y-102575000D01*
G75*
G02*
X135040000Y-102325000I0J250000D01*
G01*
X135040000Y-100875000D01*
G75*
G02*
X135290000Y-100625000I250000J0D01*
G01*
X136490000Y-100625000D01*
G75*
G02*
X136740000Y-100875000I0J-250000D01*
G01*
G37*
%TD.AperFunction*%
%TD*%
D16*
%TO.P,LS1,2*%
%TO.N,Net-(LS1-Pad2)*%
X148590000Y-121920000D03*
%TO.P,LS1,1*%
%TO.N,Net-(C_POW1-Pad1)*%
%TA.AperFunction,ComponentPad*%
G36*
G01*
X151940000Y-121170000D02*
X151940000Y-122670000D01*
G75*
G02*
X151690000Y-122920000I-250000J0D01*
G01*
X150490000Y-122920000D01*
G75*
G02*
X150240000Y-122670000I0J250000D01*
G01*
X150240000Y-121170000D01*
G75*
G02*
X150490000Y-120920000I250000J0D01*
G01*
X151690000Y-120920000D01*
G75*
G02*
X151940000Y-121170000I0J-250000D01*
G01*
G37*
%TD.AperFunction*%
%TD*%
%TO.P,LED5,1*%
%TO.N,Net-(BT1-Pad2)*%
%TA.AperFunction,ComponentPad*%
G36*
G01*
X82030000Y-120190000D02*
X80530000Y-120190000D01*
G75*
G02*
X80280000Y-119940000I0J250000D01*
G01*
X80280000Y-118740000D01*
G75*
G02*
X80530000Y-118490000I250000J0D01*
G01*
X82030000Y-118490000D01*
G75*
G02*
X82280000Y-118740000I0J-250000D01*
G01*
X82280000Y-119940000D01*
G75*
G02*
X82030000Y-120190000I-250000J0D01*
G01*
G37*
%TD.AperFunction*%
D15*
%TO.P,LED5,2*%
%TO.N,Net-(LED5-Pad2)*%
X81280000Y-116840000D03*
%TD*%
%TO.P,LED4,2*%
%TO.N,Net-(LED4-Pad2)*%
X81280000Y-141010000D03*
%TO.P,LED4,1*%
%TO.N,Net-(BT1-Pad2)*%
%TA.AperFunction,ComponentPad*%
G36*
G01*
X82030000Y-144360000D02*
X80530000Y-144360000D01*
G75*
G02*
X80280000Y-144110000I0J250000D01*
G01*
X80280000Y-142910000D01*
G75*
G02*
X80530000Y-142660000I250000J0D01*
G01*
X82030000Y-142660000D01*
G75*
G02*
X82280000Y-142910000I0J-250000D01*
G01*
X82280000Y-144110000D01*
G75*
G02*
X82030000Y-144360000I-250000J0D01*
G01*
G37*
%TD.AperFunction*%
%TD*%
%TO.P,LED3,2*%
%TO.N,Net-(LED3-Pad2)*%
X161290000Y-143470000D03*
%TO.P,LED3,1*%
%TO.N,Net-(BT1-Pad2)*%
%TA.AperFunction,ComponentPad*%
G36*
G01*
X160540000Y-140120000D02*
X162040000Y-140120000D01*
G75*
G02*
X162290000Y-140370000I0J-250000D01*
G01*
X162290000Y-141570000D01*
G75*
G02*
X162040000Y-141820000I-250000J0D01*
G01*
X160540000Y-141820000D01*
G75*
G02*
X160290000Y-141570000I0J250000D01*
G01*
X160290000Y-140370000D01*
G75*
G02*
X160540000Y-140120000I250000J0D01*
G01*
G37*
%TD.AperFunction*%
%TD*%
D16*
%TO.P,LED2,2*%
%TO.N,Net-(LED2-Pad2)*%
X159980000Y-100330000D03*
%TO.P,LED2,1*%
%TO.N,Net-(BT1-Pad2)*%
%TA.AperFunction,ComponentPad*%
G36*
G01*
X156630000Y-101080000D02*
X156630000Y-99580000D01*
G75*
G02*
X156880000Y-99330000I250000J0D01*
G01*
X158080000Y-99330000D01*
G75*
G02*
X158330000Y-99580000I0J-250000D01*
G01*
X158330000Y-101080000D01*
G75*
G02*
X158080000Y-101330000I-250000J0D01*
G01*
X156880000Y-101330000D01*
G75*
G02*
X156630000Y-101080000I0J250000D01*
G01*
G37*
%TD.AperFunction*%
%TD*%
%TO.P,LED1,2*%
%TO.N,Net-(LED1-Pad2)*%
X95210000Y-100330000D03*
%TO.P,LED1,1*%
%TO.N,Net-(BT1-Pad2)*%
%TA.AperFunction,ComponentPad*%
G36*
G01*
X91860000Y-101080000D02*
X91860000Y-99580000D01*
G75*
G02*
X92110000Y-99330000I250000J0D01*
G01*
X93310000Y-99330000D01*
G75*
G02*
X93560000Y-99580000I0J-250000D01*
G01*
X93560000Y-101080000D01*
G75*
G02*
X93310000Y-101330000I-250000J0D01*
G01*
X92110000Y-101330000D01*
G75*
G02*
X91860000Y-101080000I0J250000D01*
G01*
G37*
%TD.AperFunction*%
%TD*%
D17*
%TO.P,C_POW1,2*%
%TO.N,Net-(BT1-Pad2)*%
X110450000Y-101600000D03*
D12*
%TO.P,C_POW1,1*%
%TO.N,Net-(C_POW1-Pad1)*%
X107950000Y-101600000D03*
%TD*%
D17*
%TO.P,C_AMP1,2*%
%TO.N,Net-(C_AMP1-Pad2)*%
X142200000Y-120650000D03*
D12*
%TO.P,C_AMP1,1*%
%TO.N,Net-(C_AMP1-Pad1)*%
X139700000Y-120650000D03*
%TD*%
D17*
%TO.P,C2_CRY1,2*%
%TO.N,Net-(BT1-Pad2)*%
X128270000Y-119420000D03*
%TO.P,C2_CRY1,1*%
%TO.N,Net-(C2_CRY1-Pad1)*%
X128270000Y-121920000D03*
%TD*%
%TO.P,C1_CRY1,2*%
%TO.N,Net-(BT1-Pad2)*%
X113030000Y-119420000D03*
%TO.P,C1_CRY1,1*%
%TO.N,Net-(C1_CRY1-Pad1)*%
X113030000Y-121920000D03*
%TD*%
D19*
%TO.P,BT1,*%
%TO.N,*%
X102980000Y-129700000D03*
X129950000Y-129700000D03*
X116460000Y-152050000D03*
D20*
%TO.P,BT1,2*%
%TO.N,Net-(BT1-Pad2)*%
X142240000Y-134440000D03*
D21*
%TO.P,BT1,1*%
%TO.N,Net-(BT1-Pad1)*%
X142240000Y-147320000D03*
%TD*%
D22*
%TO.N,Net-(R_LED2-Pad2)*%
X114230001Y-106749999D02*
X113030000Y-107950000D01*
X144988629Y-106749999D02*
X114230001Y-106749999D01*
X151268630Y-113030000D02*
X144988629Y-106749999D01*
X152400000Y-113030000D02*
X151268630Y-113030000D01*
%TO.N,Net-(R_LED3-Pad2)*%
X111690001Y-109150001D02*
X110490000Y-107950000D01*
X123626003Y-109150001D02*
X111690001Y-109150001D01*
X129470001Y-114993999D02*
X123626003Y-109150001D01*
X129470001Y-118040001D02*
X129470001Y-114993999D01*
X160020000Y-148590000D02*
X129470001Y-118040001D01*
%TO.N,Net-(R_LED4-Pad2)*%
X107950000Y-109081370D02*
X107950000Y-107950000D01*
X104209999Y-112821371D02*
X107950000Y-109081370D01*
X104209999Y-120580001D02*
X104209999Y-112821371D01*
X86360000Y-138430000D02*
X104209999Y-120580001D01*
%TO.N,Net-(R_LED5-Pad2)*%
X105410000Y-110490000D02*
X105410000Y-107950000D01*
X93980000Y-121920000D02*
X105410000Y-110490000D01*
%TO.N,Net-(R_SW4-Pad2)*%
X127069999Y-116770001D02*
X128270000Y-115570000D01*
X124668629Y-116770001D02*
X127069999Y-116770001D01*
X86360000Y-155078630D02*
X124668629Y-116770001D01*
X86360000Y-156210000D02*
X86360000Y-155078630D01*
%TD*%
M02*
