%TF.GenerationSoftware,KiCad,Pcbnew,5.99.0+really5.1.10+dfsg1-1*%
%TF.CreationDate,2022-03-10T13:38:06+00:00*%
%TF.ProjectId,board,626f6172-642e-46b6-9963-61645f706362,rev?*%
%TF.SameCoordinates,Original*%
%TF.FileFunction,Soldermask,Top*%
%TF.FilePolarity,Negative*%
%FSLAX46Y46*%
G04 Gerber Fmt 4.6, Leading zero omitted, Abs format (unit mm)*
G04 Created by KiCad (PCBNEW 5.99.0+really5.1.10+dfsg1-1) date 2022-03-10 13:38:06*
%MOMM*%
%LPD*%
G01*
G04 APERTURE LIST*
%ADD10C,1.500000*%
%ADD11O,1.600000X1.600000*%
%ADD12R,1.600000X1.600000*%
%ADD13O,1.905000X2.000000*%
%ADD14R,1.905000X2.000000*%
%ADD15O,3.500000X3.500000*%
%ADD16O,2.000000X1.700000*%
%ADD17O,1.700000X2.000000*%
%ADD18C,1.600000*%
%ADD19O,1.700000X1.950000*%
%ADD20C,2.300000*%
%ADD21O,2.410000X4.020000*%
%ADD22R,2.410000X4.020000*%
G04 APERTURE END LIST*
D10*
%TO.C,Y1*%
X123110000Y-120650000D03*
X118110000Y-120650000D03*
%TD*%
D11*
%TO.C,U2*%
X102870000Y-107950000D03*
X135890000Y-115570000D03*
X105410000Y-107950000D03*
X133350000Y-115570000D03*
X107950000Y-107950000D03*
X130810000Y-115570000D03*
X110490000Y-107950000D03*
X128270000Y-115570000D03*
X113030000Y-107950000D03*
X125730000Y-115570000D03*
X115570000Y-107950000D03*
X123190000Y-115570000D03*
X118110000Y-107950000D03*
X120650000Y-115570000D03*
X120650000Y-107950000D03*
X118110000Y-115570000D03*
X123190000Y-107950000D03*
X115570000Y-115570000D03*
X125730000Y-107950000D03*
X113030000Y-115570000D03*
X128270000Y-107950000D03*
X110490000Y-115570000D03*
X130810000Y-107950000D03*
X107950000Y-115570000D03*
X133350000Y-107950000D03*
X105410000Y-115570000D03*
X135890000Y-107950000D03*
D12*
X102870000Y-115570000D03*
%TD*%
D13*
%TO.C,U1*%
X153670000Y-148590000D03*
X151130000Y-148590000D03*
D14*
X148590000Y-148590000D03*
D15*
X151130000Y-131930000D03*
%TD*%
%TO.C,SW5*%
G36*
G01*
X82030000Y-130390000D02*
X80530000Y-130390000D01*
G75*
G02*
X80280000Y-130140000I0J250000D01*
G01*
X80280000Y-128940000D01*
G75*
G02*
X80530000Y-128690000I250000J0D01*
G01*
X82030000Y-128690000D01*
G75*
G02*
X82280000Y-128940000I0J-250000D01*
G01*
X82280000Y-130140000D01*
G75*
G02*
X82030000Y-130390000I-250000J0D01*
G01*
G37*
D16*
X81280000Y-127040000D03*
%TD*%
%TO.C,SW4*%
X81280000Y-151170000D03*
G36*
G01*
X82030000Y-154520000D02*
X80530000Y-154520000D01*
G75*
G02*
X80280000Y-154270000I0J250000D01*
G01*
X80280000Y-153070000D01*
G75*
G02*
X80530000Y-152820000I250000J0D01*
G01*
X82030000Y-152820000D01*
G75*
G02*
X82280000Y-153070000I0J-250000D01*
G01*
X82280000Y-154270000D01*
G75*
G02*
X82030000Y-154520000I-250000J0D01*
G01*
G37*
%TD*%
%TO.C,SW3*%
X161290000Y-133310000D03*
G36*
G01*
X160540000Y-129960000D02*
X162040000Y-129960000D01*
G75*
G02*
X162290000Y-130210000I0J-250000D01*
G01*
X162290000Y-131410000D01*
G75*
G02*
X162040000Y-131660000I-250000J0D01*
G01*
X160540000Y-131660000D01*
G75*
G02*
X160290000Y-131410000I0J250000D01*
G01*
X160290000Y-130210000D01*
G75*
G02*
X160540000Y-129960000I250000J0D01*
G01*
G37*
%TD*%
D17*
%TO.C,SW2*%
X149820000Y-100330000D03*
G36*
G01*
X146470000Y-101080000D02*
X146470000Y-99580000D01*
G75*
G02*
X146720000Y-99330000I250000J0D01*
G01*
X147920000Y-99330000D01*
G75*
G02*
X148170000Y-99580000I0J-250000D01*
G01*
X148170000Y-101080000D01*
G75*
G02*
X147920000Y-101330000I-250000J0D01*
G01*
X146720000Y-101330000D01*
G75*
G02*
X146470000Y-101080000I0J250000D01*
G01*
G37*
%TD*%
%TO.C,SW1*%
X85050000Y-100330000D03*
G36*
G01*
X81700000Y-101080000D02*
X81700000Y-99580000D01*
G75*
G02*
X81950000Y-99330000I250000J0D01*
G01*
X83150000Y-99330000D01*
G75*
G02*
X83400000Y-99580000I0J-250000D01*
G01*
X83400000Y-101080000D01*
G75*
G02*
X83150000Y-101330000I-250000J0D01*
G01*
X81950000Y-101330000D01*
G75*
G02*
X81700000Y-101080000I0J250000D01*
G01*
G37*
%TD*%
D18*
%TO.C,R_SW5*%
X86360000Y-125730000D03*
D11*
X86360000Y-133350000D03*
%TD*%
%TO.C,R_SW4*%
X86360000Y-156210000D03*
D18*
X86360000Y-148590000D03*
%TD*%
D11*
%TO.C,R_SW3*%
X157480000Y-125730000D03*
D18*
X157480000Y-118110000D03*
%TD*%
D11*
%TO.C,R_SW2*%
X152400000Y-109220000D03*
D18*
X160020000Y-109220000D03*
%TD*%
D11*
%TO.C,R_SW1*%
X87630000Y-107950000D03*
D18*
X87630000Y-115570000D03*
%TD*%
D11*
%TO.C,R_RESET1*%
X109220000Y-120650000D03*
D18*
X101600000Y-120650000D03*
%TD*%
%TO.C,R_LED5*%
X86360000Y-121920000D03*
D11*
X93980000Y-121920000D03*
%TD*%
%TO.C,R_LED4*%
X86360000Y-138430000D03*
D18*
X86360000Y-146050000D03*
%TD*%
D11*
%TO.C,R_LED3*%
X160020000Y-148590000D03*
D18*
X160020000Y-156210000D03*
%TD*%
D11*
%TO.C,R_LED2*%
X152400000Y-113030000D03*
D18*
X160020000Y-113030000D03*
%TD*%
D11*
%TO.C,R_LED1*%
X96520000Y-115570000D03*
D18*
X96520000Y-107950000D03*
%TD*%
D11*
%TO.C,R_AMP1*%
X148590000Y-107950000D03*
D18*
X140970000Y-107950000D03*
%TD*%
D13*
%TO.C,Q1*%
X147320000Y-114300000D03*
X144780000Y-114300000D03*
D14*
X142240000Y-114300000D03*
%TD*%
D17*
%TO.C,PowerSwExt1*%
X151090000Y-153670000D03*
G36*
G01*
X147740000Y-154420000D02*
X147740000Y-152920000D01*
G75*
G02*
X147990000Y-152670000I250000J0D01*
G01*
X149190000Y-152670000D01*
G75*
G02*
X149440000Y-152920000I0J-250000D01*
G01*
X149440000Y-154420000D01*
G75*
G02*
X149190000Y-154670000I-250000J0D01*
G01*
X147990000Y-154670000D01*
G75*
G02*
X147740000Y-154420000I0J250000D01*
G01*
G37*
%TD*%
D19*
%TO.C,Micro_SD_card1*%
X123390000Y-101600000D03*
X125890000Y-101600000D03*
X128390000Y-101600000D03*
X130890000Y-101600000D03*
X133390000Y-101600000D03*
G36*
G01*
X136740000Y-100875000D02*
X136740000Y-102325000D01*
G75*
G02*
X136490000Y-102575000I-250000J0D01*
G01*
X135290000Y-102575000D01*
G75*
G02*
X135040000Y-102325000I0J250000D01*
G01*
X135040000Y-100875000D01*
G75*
G02*
X135290000Y-100625000I250000J0D01*
G01*
X136490000Y-100625000D01*
G75*
G02*
X136740000Y-100875000I0J-250000D01*
G01*
G37*
%TD*%
D17*
%TO.C,LS1*%
X148590000Y-121920000D03*
G36*
G01*
X151940000Y-121170000D02*
X151940000Y-122670000D01*
G75*
G02*
X151690000Y-122920000I-250000J0D01*
G01*
X150490000Y-122920000D01*
G75*
G02*
X150240000Y-122670000I0J250000D01*
G01*
X150240000Y-121170000D01*
G75*
G02*
X150490000Y-120920000I250000J0D01*
G01*
X151690000Y-120920000D01*
G75*
G02*
X151940000Y-121170000I0J-250000D01*
G01*
G37*
%TD*%
%TO.C,LED5*%
G36*
G01*
X82030000Y-120190000D02*
X80530000Y-120190000D01*
G75*
G02*
X80280000Y-119940000I0J250000D01*
G01*
X80280000Y-118740000D01*
G75*
G02*
X80530000Y-118490000I250000J0D01*
G01*
X82030000Y-118490000D01*
G75*
G02*
X82280000Y-118740000I0J-250000D01*
G01*
X82280000Y-119940000D01*
G75*
G02*
X82030000Y-120190000I-250000J0D01*
G01*
G37*
D16*
X81280000Y-116840000D03*
%TD*%
%TO.C,LED4*%
X81280000Y-141010000D03*
G36*
G01*
X82030000Y-144360000D02*
X80530000Y-144360000D01*
G75*
G02*
X80280000Y-144110000I0J250000D01*
G01*
X80280000Y-142910000D01*
G75*
G02*
X80530000Y-142660000I250000J0D01*
G01*
X82030000Y-142660000D01*
G75*
G02*
X82280000Y-142910000I0J-250000D01*
G01*
X82280000Y-144110000D01*
G75*
G02*
X82030000Y-144360000I-250000J0D01*
G01*
G37*
%TD*%
%TO.C,LED3*%
X161290000Y-143470000D03*
G36*
G01*
X160540000Y-140120000D02*
X162040000Y-140120000D01*
G75*
G02*
X162290000Y-140370000I0J-250000D01*
G01*
X162290000Y-141570000D01*
G75*
G02*
X162040000Y-141820000I-250000J0D01*
G01*
X160540000Y-141820000D01*
G75*
G02*
X160290000Y-141570000I0J250000D01*
G01*
X160290000Y-140370000D01*
G75*
G02*
X160540000Y-140120000I250000J0D01*
G01*
G37*
%TD*%
D17*
%TO.C,LED2*%
X159980000Y-100330000D03*
G36*
G01*
X156630000Y-101080000D02*
X156630000Y-99580000D01*
G75*
G02*
X156880000Y-99330000I250000J0D01*
G01*
X158080000Y-99330000D01*
G75*
G02*
X158330000Y-99580000I0J-250000D01*
G01*
X158330000Y-101080000D01*
G75*
G02*
X158080000Y-101330000I-250000J0D01*
G01*
X156880000Y-101330000D01*
G75*
G02*
X156630000Y-101080000I0J250000D01*
G01*
G37*
%TD*%
%TO.C,LED1*%
X95210000Y-100330000D03*
G36*
G01*
X91860000Y-101080000D02*
X91860000Y-99580000D01*
G75*
G02*
X92110000Y-99330000I250000J0D01*
G01*
X93310000Y-99330000D01*
G75*
G02*
X93560000Y-99580000I0J-250000D01*
G01*
X93560000Y-101080000D01*
G75*
G02*
X93310000Y-101330000I-250000J0D01*
G01*
X92110000Y-101330000D01*
G75*
G02*
X91860000Y-101080000I0J250000D01*
G01*
G37*
%TD*%
D18*
%TO.C,C_POW1*%
X110450000Y-101600000D03*
D12*
X107950000Y-101600000D03*
%TD*%
D18*
%TO.C,C_AMP1*%
X142200000Y-120650000D03*
D12*
X139700000Y-120650000D03*
%TD*%
D18*
%TO.C,C2_CRY1*%
X128270000Y-119420000D03*
X128270000Y-121920000D03*
%TD*%
%TO.C,C1_CRY1*%
X113030000Y-119420000D03*
X113030000Y-121920000D03*
%TD*%
D20*
%TO.C,BT1*%
X102980000Y-129700000D03*
X129950000Y-129700000D03*
X116460000Y-152050000D03*
D21*
X142240000Y-134440000D03*
D22*
X142240000Y-147320000D03*
%TD*%
M02*
