%TF.GenerationSoftware,KiCad,Pcbnew,5.99.0+really5.1.10+dfsg1-1*%
%TF.CreationDate,2022-03-10T13:38:06+00:00*%
%TF.ProjectId,board,626f6172-642e-46b6-9963-61645f706362,rev?*%
%TF.SameCoordinates,Original*%
%TF.FileFunction,Copper,L2,Inr*%
%TF.FilePolarity,Positive*%
%FSLAX46Y46*%
G04 Gerber Fmt 4.6, Leading zero omitted, Abs format (unit mm)*
G04 Created by KiCad (PCBNEW 5.99.0+really5.1.10+dfsg1-1) date 2022-03-10 13:38:06*
%MOMM*%
%LPD*%
G01*
G04 APERTURE LIST*
%TA.AperFunction,ComponentPad*%
%ADD10C,1.500000*%
%TD*%
%TA.AperFunction,ComponentPad*%
%ADD11O,1.600000X1.600000*%
%TD*%
%TA.AperFunction,ComponentPad*%
%ADD12R,1.600000X1.600000*%
%TD*%
%TA.AperFunction,ComponentPad*%
%ADD13O,1.905000X2.000000*%
%TD*%
%TA.AperFunction,ComponentPad*%
%ADD14R,1.905000X2.000000*%
%TD*%
%TA.AperFunction,ComponentPad*%
%ADD15O,2.000000X1.700000*%
%TD*%
%TA.AperFunction,ComponentPad*%
%ADD16O,1.700000X2.000000*%
%TD*%
%TA.AperFunction,ComponentPad*%
%ADD17C,1.600000*%
%TD*%
%TA.AperFunction,ComponentPad*%
%ADD18O,1.700000X1.950000*%
%TD*%
%TA.AperFunction,WasherPad*%
%ADD19C,2.300000*%
%TD*%
%TA.AperFunction,ComponentPad*%
%ADD20O,2.410000X4.020000*%
%TD*%
%TA.AperFunction,ComponentPad*%
%ADD21R,2.410000X4.020000*%
%TD*%
%TA.AperFunction,Conductor*%
%ADD22C,0.254000*%
%TD*%
%TA.AperFunction,Conductor*%
%ADD23C,0.100000*%
%TD*%
G04 APERTURE END LIST*
D10*
%TO.N,Net-(C2_CRY1-Pad1)*%
%TO.C,Y1*%
X123110000Y-120650000D03*
%TO.N,Net-(C1_CRY1-Pad1)*%
X118110000Y-120650000D03*
%TD*%
D11*
%TO.N,Net-(U2-Pad28)*%
%TO.C,U2*%
X102870000Y-107950000D03*
%TO.N,Net-(U2-Pad14)*%
X135890000Y-115570000D03*
%TO.N,Net-(R_LED5-Pad2)*%
X105410000Y-107950000D03*
%TO.N,Net-(U2-Pad13)*%
X133350000Y-115570000D03*
%TO.N,Net-(R_LED4-Pad2)*%
X107950000Y-107950000D03*
%TO.N,Net-(R_SW5-Pad2)*%
X130810000Y-115570000D03*
%TO.N,Net-(R_LED3-Pad2)*%
X110490000Y-107950000D03*
%TO.N,Net-(R_SW4-Pad2)*%
X128270000Y-115570000D03*
%TO.N,Net-(R_LED2-Pad2)*%
X113030000Y-107950000D03*
%TO.N,Net-(C2_CRY1-Pad1)*%
X125730000Y-115570000D03*
%TO.N,Net-(R_LED1-Pad2)*%
X115570000Y-107950000D03*
%TO.N,Net-(C1_CRY1-Pad1)*%
X123190000Y-115570000D03*
%TO.N,Net-(BT1-Pad2)*%
X118110000Y-107950000D03*
X120650000Y-115570000D03*
%TO.N,Net-(U2-Pad21)*%
X120650000Y-107950000D03*
%TO.N,Net-(C_POW1-Pad1)*%
X118110000Y-115570000D03*
X123190000Y-107950000D03*
%TO.N,Net-(R_SW3-Pad2)*%
X115570000Y-115570000D03*
%TO.N,Net-(Micro_SD_card1-Pad4)*%
X125730000Y-107950000D03*
%TO.N,Net-(R_SW2-Pad2)*%
X113030000Y-115570000D03*
%TO.N,Net-(Micro_SD_card1-Pad5)*%
X128270000Y-107950000D03*
%TO.N,Net-(R_SW1-Pad2)*%
X110490000Y-115570000D03*
%TO.N,Net-(Micro_SD_card1-Pad3)*%
X130810000Y-107950000D03*
%TO.N,Net-(U2-Pad3)*%
X107950000Y-115570000D03*
%TO.N,Net-(Micro_SD_card1-Pad2)*%
X133350000Y-107950000D03*
%TO.N,Net-(U2-Pad2)*%
X105410000Y-115570000D03*
%TO.N,Net-(C_AMP1-Pad1)*%
X135890000Y-107950000D03*
D12*
%TO.N,Net-(R_RESET1-Pad1)*%
X102870000Y-115570000D03*
%TD*%
D13*
%TO.N,Net-(C_POW1-Pad1)*%
%TO.C,U1*%
X153670000Y-148590000D03*
%TO.N,Net-(BT1-Pad2)*%
X151130000Y-148590000D03*
D14*
%TO.N,Net-(PowerSwExt1-Pad2)*%
X148590000Y-148590000D03*
%TD*%
%TO.N,Net-(BT1-Pad2)*%
%TO.C,SW5*%
%TA.AperFunction,ComponentPad*%
G36*
G01*
X82030000Y-130390000D02*
X80530000Y-130390000D01*
G75*
G02*
X80280000Y-130140000I0J250000D01*
G01*
X80280000Y-128940000D01*
G75*
G02*
X80530000Y-128690000I250000J0D01*
G01*
X82030000Y-128690000D01*
G75*
G02*
X82280000Y-128940000I0J-250000D01*
G01*
X82280000Y-130140000D01*
G75*
G02*
X82030000Y-130390000I-250000J0D01*
G01*
G37*
%TD.AperFunction*%
D15*
%TO.N,Net-(R_SW5-Pad2)*%
X81280000Y-127040000D03*
%TD*%
%TO.N,Net-(R_SW4-Pad2)*%
%TO.C,SW4*%
X81280000Y-151170000D03*
%TO.N,Net-(BT1-Pad2)*%
%TA.AperFunction,ComponentPad*%
G36*
G01*
X82030000Y-154520000D02*
X80530000Y-154520000D01*
G75*
G02*
X80280000Y-154270000I0J250000D01*
G01*
X80280000Y-153070000D01*
G75*
G02*
X80530000Y-152820000I250000J0D01*
G01*
X82030000Y-152820000D01*
G75*
G02*
X82280000Y-153070000I0J-250000D01*
G01*
X82280000Y-154270000D01*
G75*
G02*
X82030000Y-154520000I-250000J0D01*
G01*
G37*
%TD.AperFunction*%
%TD*%
%TO.N,Net-(R_SW3-Pad2)*%
%TO.C,SW3*%
X161290000Y-133310000D03*
%TO.N,Net-(BT1-Pad2)*%
%TA.AperFunction,ComponentPad*%
G36*
G01*
X160540000Y-129960000D02*
X162040000Y-129960000D01*
G75*
G02*
X162290000Y-130210000I0J-250000D01*
G01*
X162290000Y-131410000D01*
G75*
G02*
X162040000Y-131660000I-250000J0D01*
G01*
X160540000Y-131660000D01*
G75*
G02*
X160290000Y-131410000I0J250000D01*
G01*
X160290000Y-130210000D01*
G75*
G02*
X160540000Y-129960000I250000J0D01*
G01*
G37*
%TD.AperFunction*%
%TD*%
D16*
%TO.N,Net-(R_SW2-Pad2)*%
%TO.C,SW2*%
X149820000Y-100330000D03*
%TO.N,Net-(BT1-Pad2)*%
%TA.AperFunction,ComponentPad*%
G36*
G01*
X146470000Y-101080000D02*
X146470000Y-99580000D01*
G75*
G02*
X146720000Y-99330000I250000J0D01*
G01*
X147920000Y-99330000D01*
G75*
G02*
X148170000Y-99580000I0J-250000D01*
G01*
X148170000Y-101080000D01*
G75*
G02*
X147920000Y-101330000I-250000J0D01*
G01*
X146720000Y-101330000D01*
G75*
G02*
X146470000Y-101080000I0J250000D01*
G01*
G37*
%TD.AperFunction*%
%TD*%
%TO.N,Net-(R_SW1-Pad2)*%
%TO.C,SW1*%
X85050000Y-100330000D03*
%TO.N,Net-(BT1-Pad2)*%
%TA.AperFunction,ComponentPad*%
G36*
G01*
X81700000Y-101080000D02*
X81700000Y-99580000D01*
G75*
G02*
X81950000Y-99330000I250000J0D01*
G01*
X83150000Y-99330000D01*
G75*
G02*
X83400000Y-99580000I0J-250000D01*
G01*
X83400000Y-101080000D01*
G75*
G02*
X83150000Y-101330000I-250000J0D01*
G01*
X81950000Y-101330000D01*
G75*
G02*
X81700000Y-101080000I0J250000D01*
G01*
G37*
%TD.AperFunction*%
%TD*%
D17*
%TO.N,Net-(C_POW1-Pad1)*%
%TO.C,R_SW5*%
X86360000Y-125730000D03*
D11*
%TO.N,Net-(R_SW5-Pad2)*%
X86360000Y-133350000D03*
%TD*%
%TO.N,Net-(R_SW4-Pad2)*%
%TO.C,R_SW4*%
X86360000Y-156210000D03*
D17*
%TO.N,Net-(C_POW1-Pad1)*%
X86360000Y-148590000D03*
%TD*%
D11*
%TO.N,Net-(R_SW3-Pad2)*%
%TO.C,R_SW3*%
X157480000Y-125730000D03*
D17*
%TO.N,Net-(C_POW1-Pad1)*%
X157480000Y-118110000D03*
%TD*%
D11*
%TO.N,Net-(R_SW2-Pad2)*%
%TO.C,R_SW2*%
X152400000Y-109220000D03*
D17*
%TO.N,Net-(C_POW1-Pad1)*%
X160020000Y-109220000D03*
%TD*%
D11*
%TO.N,Net-(R_SW1-Pad2)*%
%TO.C,R_SW1*%
X87630000Y-107950000D03*
D17*
%TO.N,Net-(C_POW1-Pad1)*%
X87630000Y-115570000D03*
%TD*%
D11*
%TO.N,Net-(C_POW1-Pad1)*%
%TO.C,R_RESET1*%
X109220000Y-120650000D03*
D17*
%TO.N,Net-(R_RESET1-Pad1)*%
X101600000Y-120650000D03*
%TD*%
%TO.N,Net-(LED5-Pad2)*%
%TO.C,R_LED5*%
X86360000Y-121920000D03*
D11*
%TO.N,Net-(R_LED5-Pad2)*%
X93980000Y-121920000D03*
%TD*%
%TO.N,Net-(R_LED4-Pad2)*%
%TO.C,R_LED4*%
X86360000Y-138430000D03*
D17*
%TO.N,Net-(LED4-Pad2)*%
X86360000Y-146050000D03*
%TD*%
D11*
%TO.N,Net-(R_LED3-Pad2)*%
%TO.C,R_LED3*%
X160020000Y-148590000D03*
D17*
%TO.N,Net-(LED3-Pad2)*%
X160020000Y-156210000D03*
%TD*%
D11*
%TO.N,Net-(R_LED2-Pad2)*%
%TO.C,R_LED2*%
X152400000Y-113030000D03*
D17*
%TO.N,Net-(LED2-Pad2)*%
X160020000Y-113030000D03*
%TD*%
D11*
%TO.N,Net-(R_LED1-Pad2)*%
%TO.C,R_LED1*%
X96520000Y-115570000D03*
D17*
%TO.N,Net-(LED1-Pad2)*%
X96520000Y-107950000D03*
%TD*%
D11*
%TO.N,Net-(LS1-Pad2)*%
%TO.C,R_AMP1*%
X148590000Y-107950000D03*
D17*
%TO.N,Net-(C_AMP1-Pad2)*%
X140970000Y-107950000D03*
%TD*%
D13*
%TO.N,Net-(BT1-Pad2)*%
%TO.C,Q1*%
X147320000Y-114300000D03*
%TO.N,Net-(LS1-Pad2)*%
X144780000Y-114300000D03*
D14*
%TO.N,Net-(C_AMP1-Pad2)*%
X142240000Y-114300000D03*
%TD*%
D16*
%TO.N,Net-(PowerSwExt1-Pad2)*%
%TO.C,PowerSwExt1*%
X151090000Y-153670000D03*
%TO.N,Net-(BT1-Pad1)*%
%TA.AperFunction,ComponentPad*%
G36*
G01*
X147740000Y-154420000D02*
X147740000Y-152920000D01*
G75*
G02*
X147990000Y-152670000I250000J0D01*
G01*
X149190000Y-152670000D01*
G75*
G02*
X149440000Y-152920000I0J-250000D01*
G01*
X149440000Y-154420000D01*
G75*
G02*
X149190000Y-154670000I-250000J0D01*
G01*
X147990000Y-154670000D01*
G75*
G02*
X147740000Y-154420000I0J250000D01*
G01*
G37*
%TD.AperFunction*%
%TD*%
D18*
%TO.N,Net-(BT1-Pad2)*%
%TO.C,Micro_SD_card1*%
X123390000Y-101600000D03*
%TO.N,Net-(Micro_SD_card1-Pad5)*%
X125890000Y-101600000D03*
%TO.N,Net-(Micro_SD_card1-Pad4)*%
X128390000Y-101600000D03*
%TO.N,Net-(Micro_SD_card1-Pad3)*%
X130890000Y-101600000D03*
%TO.N,Net-(Micro_SD_card1-Pad2)*%
X133390000Y-101600000D03*
%TO.N,Net-(C_POW1-Pad1)*%
%TA.AperFunction,ComponentPad*%
G36*
G01*
X136740000Y-100875000D02*
X136740000Y-102325000D01*
G75*
G02*
X136490000Y-102575000I-250000J0D01*
G01*
X135290000Y-102575000D01*
G75*
G02*
X135040000Y-102325000I0J250000D01*
G01*
X135040000Y-100875000D01*
G75*
G02*
X135290000Y-100625000I250000J0D01*
G01*
X136490000Y-100625000D01*
G75*
G02*
X136740000Y-100875000I0J-250000D01*
G01*
G37*
%TD.AperFunction*%
%TD*%
D16*
%TO.N,Net-(LS1-Pad2)*%
%TO.C,LS1*%
X148590000Y-121920000D03*
%TO.N,Net-(C_POW1-Pad1)*%
%TA.AperFunction,ComponentPad*%
G36*
G01*
X151940000Y-121170000D02*
X151940000Y-122670000D01*
G75*
G02*
X151690000Y-122920000I-250000J0D01*
G01*
X150490000Y-122920000D01*
G75*
G02*
X150240000Y-122670000I0J250000D01*
G01*
X150240000Y-121170000D01*
G75*
G02*
X150490000Y-120920000I250000J0D01*
G01*
X151690000Y-120920000D01*
G75*
G02*
X151940000Y-121170000I0J-250000D01*
G01*
G37*
%TD.AperFunction*%
%TD*%
%TO.N,Net-(BT1-Pad2)*%
%TO.C,LED5*%
%TA.AperFunction,ComponentPad*%
G36*
G01*
X82030000Y-120190000D02*
X80530000Y-120190000D01*
G75*
G02*
X80280000Y-119940000I0J250000D01*
G01*
X80280000Y-118740000D01*
G75*
G02*
X80530000Y-118490000I250000J0D01*
G01*
X82030000Y-118490000D01*
G75*
G02*
X82280000Y-118740000I0J-250000D01*
G01*
X82280000Y-119940000D01*
G75*
G02*
X82030000Y-120190000I-250000J0D01*
G01*
G37*
%TD.AperFunction*%
D15*
%TO.N,Net-(LED5-Pad2)*%
X81280000Y-116840000D03*
%TD*%
%TO.N,Net-(LED4-Pad2)*%
%TO.C,LED4*%
X81280000Y-141010000D03*
%TO.N,Net-(BT1-Pad2)*%
%TA.AperFunction,ComponentPad*%
G36*
G01*
X82030000Y-144360000D02*
X80530000Y-144360000D01*
G75*
G02*
X80280000Y-144110000I0J250000D01*
G01*
X80280000Y-142910000D01*
G75*
G02*
X80530000Y-142660000I250000J0D01*
G01*
X82030000Y-142660000D01*
G75*
G02*
X82280000Y-142910000I0J-250000D01*
G01*
X82280000Y-144110000D01*
G75*
G02*
X82030000Y-144360000I-250000J0D01*
G01*
G37*
%TD.AperFunction*%
%TD*%
%TO.N,Net-(LED3-Pad2)*%
%TO.C,LED3*%
X161290000Y-143470000D03*
%TO.N,Net-(BT1-Pad2)*%
%TA.AperFunction,ComponentPad*%
G36*
G01*
X160540000Y-140120000D02*
X162040000Y-140120000D01*
G75*
G02*
X162290000Y-140370000I0J-250000D01*
G01*
X162290000Y-141570000D01*
G75*
G02*
X162040000Y-141820000I-250000J0D01*
G01*
X160540000Y-141820000D01*
G75*
G02*
X160290000Y-141570000I0J250000D01*
G01*
X160290000Y-140370000D01*
G75*
G02*
X160540000Y-140120000I250000J0D01*
G01*
G37*
%TD.AperFunction*%
%TD*%
D16*
%TO.N,Net-(LED2-Pad2)*%
%TO.C,LED2*%
X159980000Y-100330000D03*
%TO.N,Net-(BT1-Pad2)*%
%TA.AperFunction,ComponentPad*%
G36*
G01*
X156630000Y-101080000D02*
X156630000Y-99580000D01*
G75*
G02*
X156880000Y-99330000I250000J0D01*
G01*
X158080000Y-99330000D01*
G75*
G02*
X158330000Y-99580000I0J-250000D01*
G01*
X158330000Y-101080000D01*
G75*
G02*
X158080000Y-101330000I-250000J0D01*
G01*
X156880000Y-101330000D01*
G75*
G02*
X156630000Y-101080000I0J250000D01*
G01*
G37*
%TD.AperFunction*%
%TD*%
%TO.N,Net-(LED1-Pad2)*%
%TO.C,LED1*%
X95210000Y-100330000D03*
%TO.N,Net-(BT1-Pad2)*%
%TA.AperFunction,ComponentPad*%
G36*
G01*
X91860000Y-101080000D02*
X91860000Y-99580000D01*
G75*
G02*
X92110000Y-99330000I250000J0D01*
G01*
X93310000Y-99330000D01*
G75*
G02*
X93560000Y-99580000I0J-250000D01*
G01*
X93560000Y-101080000D01*
G75*
G02*
X93310000Y-101330000I-250000J0D01*
G01*
X92110000Y-101330000D01*
G75*
G02*
X91860000Y-101080000I0J250000D01*
G01*
G37*
%TD.AperFunction*%
%TD*%
D17*
%TO.N,Net-(BT1-Pad2)*%
%TO.C,C_POW1*%
X110450000Y-101600000D03*
D12*
%TO.N,Net-(C_POW1-Pad1)*%
X107950000Y-101600000D03*
%TD*%
D17*
%TO.N,Net-(C_AMP1-Pad2)*%
%TO.C,C_AMP1*%
X142200000Y-120650000D03*
D12*
%TO.N,Net-(C_AMP1-Pad1)*%
X139700000Y-120650000D03*
%TD*%
D17*
%TO.N,Net-(BT1-Pad2)*%
%TO.C,C2_CRY1*%
X128270000Y-119420000D03*
%TO.N,Net-(C2_CRY1-Pad1)*%
X128270000Y-121920000D03*
%TD*%
%TO.N,Net-(BT1-Pad2)*%
%TO.C,C1_CRY1*%
X113030000Y-119420000D03*
%TO.N,Net-(C1_CRY1-Pad1)*%
X113030000Y-121920000D03*
%TD*%
D19*
%TO.N,*%
%TO.C,BT1*%
X102980000Y-129700000D03*
X129950000Y-129700000D03*
X116460000Y-152050000D03*
D20*
%TO.N,Net-(BT1-Pad2)*%
X142240000Y-134440000D03*
D21*
%TO.N,Net-(BT1-Pad1)*%
X142240000Y-147320000D03*
%TD*%
D22*
%TO.N,Net-(BT1-Pad2)*%
X164973000Y-158623000D02*
X76327000Y-158623000D01*
X76327000Y-156068665D01*
X84925000Y-156068665D01*
X84925000Y-156351335D01*
X84980147Y-156628574D01*
X85088320Y-156889727D01*
X85245363Y-157124759D01*
X85445241Y-157324637D01*
X85680273Y-157481680D01*
X85941426Y-157589853D01*
X86218665Y-157645000D01*
X86501335Y-157645000D01*
X86778574Y-157589853D01*
X87039727Y-157481680D01*
X87274759Y-157324637D01*
X87474637Y-157124759D01*
X87631680Y-156889727D01*
X87739853Y-156628574D01*
X87795000Y-156351335D01*
X87795000Y-156068665D01*
X158585000Y-156068665D01*
X158585000Y-156351335D01*
X158640147Y-156628574D01*
X158748320Y-156889727D01*
X158905363Y-157124759D01*
X159105241Y-157324637D01*
X159340273Y-157481680D01*
X159601426Y-157589853D01*
X159878665Y-157645000D01*
X160161335Y-157645000D01*
X160438574Y-157589853D01*
X160699727Y-157481680D01*
X160934759Y-157324637D01*
X161134637Y-157124759D01*
X161291680Y-156889727D01*
X161399853Y-156628574D01*
X161455000Y-156351335D01*
X161455000Y-156068665D01*
X161399853Y-155791426D01*
X161291680Y-155530273D01*
X161134637Y-155295241D01*
X160934759Y-155095363D01*
X160699727Y-154938320D01*
X160438574Y-154830147D01*
X160161335Y-154775000D01*
X159878665Y-154775000D01*
X159601426Y-154830147D01*
X159340273Y-154938320D01*
X159105241Y-155095363D01*
X158905363Y-155295241D01*
X158748320Y-155530273D01*
X158640147Y-155791426D01*
X158585000Y-156068665D01*
X87795000Y-156068665D01*
X87739853Y-155791426D01*
X87631680Y-155530273D01*
X87474637Y-155295241D01*
X87274759Y-155095363D01*
X87039727Y-154938320D01*
X86778574Y-154830147D01*
X86501335Y-154775000D01*
X86218665Y-154775000D01*
X85941426Y-154830147D01*
X85680273Y-154938320D01*
X85445241Y-155095363D01*
X85245363Y-155295241D01*
X85088320Y-155530273D01*
X84980147Y-155791426D01*
X84925000Y-156068665D01*
X76327000Y-156068665D01*
X76327000Y-154520000D01*
X79641928Y-154520000D01*
X79654188Y-154644482D01*
X79690498Y-154764180D01*
X79749463Y-154874494D01*
X79828815Y-154971185D01*
X79925506Y-155050537D01*
X80035820Y-155109502D01*
X80155518Y-155145812D01*
X80280000Y-155158072D01*
X80994250Y-155155000D01*
X81153000Y-154996250D01*
X81153000Y-153797000D01*
X81407000Y-153797000D01*
X81407000Y-154996250D01*
X81565750Y-155155000D01*
X82280000Y-155158072D01*
X82404482Y-155145812D01*
X82524180Y-155109502D01*
X82634494Y-155050537D01*
X82731185Y-154971185D01*
X82810537Y-154874494D01*
X82869502Y-154764180D01*
X82905812Y-154644482D01*
X82918072Y-154520000D01*
X82915000Y-153955750D01*
X82756250Y-153797000D01*
X81407000Y-153797000D01*
X81153000Y-153797000D01*
X79803750Y-153797000D01*
X79645000Y-153955750D01*
X79641928Y-154520000D01*
X76327000Y-154520000D01*
X76327000Y-151170000D01*
X79637815Y-151170000D01*
X79666487Y-151461111D01*
X79751401Y-151741034D01*
X79889294Y-151999014D01*
X80070608Y-152219945D01*
X80035820Y-152230498D01*
X79925506Y-152289463D01*
X79828815Y-152368815D01*
X79749463Y-152465506D01*
X79690498Y-152575820D01*
X79654188Y-152695518D01*
X79641928Y-152820000D01*
X79645000Y-153384250D01*
X79803750Y-153543000D01*
X81153000Y-153543000D01*
X81153000Y-153523000D01*
X81407000Y-153523000D01*
X81407000Y-153543000D01*
X82756250Y-153543000D01*
X82915000Y-153384250D01*
X82918072Y-152820000D01*
X82905812Y-152695518D01*
X82869502Y-152575820D01*
X82810537Y-152465506D01*
X82731185Y-152368815D01*
X82634494Y-152289463D01*
X82524180Y-152230498D01*
X82489392Y-152219945D01*
X82670706Y-151999014D01*
X82737424Y-151874193D01*
X114675000Y-151874193D01*
X114675000Y-152225807D01*
X114743596Y-152570665D01*
X114878153Y-152895515D01*
X115073500Y-153187871D01*
X115322129Y-153436500D01*
X115614485Y-153631847D01*
X115939335Y-153766404D01*
X116284193Y-153835000D01*
X116635807Y-153835000D01*
X116980665Y-153766404D01*
X117305515Y-153631847D01*
X117597871Y-153436500D01*
X117846500Y-153187871D01*
X118025486Y-152920000D01*
X147101928Y-152920000D01*
X147101928Y-154420000D01*
X147118992Y-154593254D01*
X147169528Y-154759850D01*
X147251595Y-154913386D01*
X147362038Y-155047962D01*
X147496614Y-155158405D01*
X147650150Y-155240472D01*
X147816746Y-155291008D01*
X147990000Y-155308072D01*
X149190000Y-155308072D01*
X149363254Y-155291008D01*
X149529850Y-155240472D01*
X149683386Y-155158405D01*
X149817962Y-155047962D01*
X149928405Y-154913386D01*
X149982777Y-154811663D01*
X150034866Y-154875134D01*
X150260987Y-155060706D01*
X150518967Y-155198599D01*
X150798890Y-155283513D01*
X151090000Y-155312185D01*
X151381111Y-155283513D01*
X151661034Y-155198599D01*
X151919014Y-155060706D01*
X152145134Y-154875134D01*
X152330706Y-154649014D01*
X152468599Y-154391033D01*
X152553513Y-154111110D01*
X152575000Y-153892949D01*
X152575000Y-153447050D01*
X152553513Y-153228889D01*
X152468599Y-152948966D01*
X152330706Y-152690986D01*
X152145134Y-152464866D01*
X151919013Y-152279294D01*
X151661033Y-152141401D01*
X151381110Y-152056487D01*
X151090000Y-152027815D01*
X150798889Y-152056487D01*
X150518966Y-152141401D01*
X150260986Y-152279294D01*
X150034866Y-152464866D01*
X149982777Y-152528337D01*
X149928405Y-152426614D01*
X149817962Y-152292038D01*
X149683386Y-152181595D01*
X149529850Y-152099528D01*
X149363254Y-152048992D01*
X149190000Y-152031928D01*
X147990000Y-152031928D01*
X147816746Y-152048992D01*
X147650150Y-152099528D01*
X147496614Y-152181595D01*
X147362038Y-152292038D01*
X147251595Y-152426614D01*
X147169528Y-152580150D01*
X147118992Y-152746746D01*
X147101928Y-152920000D01*
X118025486Y-152920000D01*
X118041847Y-152895515D01*
X118176404Y-152570665D01*
X118245000Y-152225807D01*
X118245000Y-151874193D01*
X118176404Y-151529335D01*
X118041847Y-151204485D01*
X117846500Y-150912129D01*
X117597871Y-150663500D01*
X117305515Y-150468153D01*
X116980665Y-150333596D01*
X116635807Y-150265000D01*
X116284193Y-150265000D01*
X115939335Y-150333596D01*
X115614485Y-150468153D01*
X115322129Y-150663500D01*
X115073500Y-150912129D01*
X114878153Y-151204485D01*
X114743596Y-151529335D01*
X114675000Y-151874193D01*
X82737424Y-151874193D01*
X82808599Y-151741034D01*
X82893513Y-151461111D01*
X82922185Y-151170000D01*
X82893513Y-150878889D01*
X82808599Y-150598966D01*
X82670706Y-150340986D01*
X82485134Y-150114866D01*
X82259014Y-149929294D01*
X82001034Y-149791401D01*
X81721111Y-149706487D01*
X81502950Y-149685000D01*
X81057050Y-149685000D01*
X80838889Y-149706487D01*
X80558966Y-149791401D01*
X80300986Y-149929294D01*
X80074866Y-150114866D01*
X79889294Y-150340986D01*
X79751401Y-150598966D01*
X79666487Y-150878889D01*
X79637815Y-151170000D01*
X76327000Y-151170000D01*
X76327000Y-145908665D01*
X84925000Y-145908665D01*
X84925000Y-146191335D01*
X84980147Y-146468574D01*
X85088320Y-146729727D01*
X85245363Y-146964759D01*
X85445241Y-147164637D01*
X85677759Y-147320000D01*
X85445241Y-147475363D01*
X85245363Y-147675241D01*
X85088320Y-147910273D01*
X84980147Y-148171426D01*
X84925000Y-148448665D01*
X84925000Y-148731335D01*
X84980147Y-149008574D01*
X85088320Y-149269727D01*
X85245363Y-149504759D01*
X85445241Y-149704637D01*
X85680273Y-149861680D01*
X85941426Y-149969853D01*
X86218665Y-150025000D01*
X86501335Y-150025000D01*
X86778574Y-149969853D01*
X87039727Y-149861680D01*
X87274759Y-149704637D01*
X87474637Y-149504759D01*
X87631680Y-149269727D01*
X87739853Y-149008574D01*
X87795000Y-148731335D01*
X87795000Y-148448665D01*
X87739853Y-148171426D01*
X87631680Y-147910273D01*
X87474637Y-147675241D01*
X87274759Y-147475363D01*
X87042241Y-147320000D01*
X87274759Y-147164637D01*
X87474637Y-146964759D01*
X87631680Y-146729727D01*
X87739853Y-146468574D01*
X87795000Y-146191335D01*
X87795000Y-145908665D01*
X87739853Y-145631426D01*
X87631680Y-145370273D01*
X87591407Y-145310000D01*
X140396928Y-145310000D01*
X140396928Y-149330000D01*
X140409188Y-149454482D01*
X140445498Y-149574180D01*
X140504463Y-149684494D01*
X140583815Y-149781185D01*
X140680506Y-149860537D01*
X140790820Y-149919502D01*
X140910518Y-149955812D01*
X141035000Y-149968072D01*
X143445000Y-149968072D01*
X143569482Y-149955812D01*
X143689180Y-149919502D01*
X143799494Y-149860537D01*
X143896185Y-149781185D01*
X143975537Y-149684494D01*
X144034502Y-149574180D01*
X144070812Y-149454482D01*
X144083072Y-149330000D01*
X144083072Y-147590000D01*
X146999428Y-147590000D01*
X146999428Y-149590000D01*
X147011688Y-149714482D01*
X147047998Y-149834180D01*
X147106963Y-149944494D01*
X147186315Y-150041185D01*
X147283006Y-150120537D01*
X147393320Y-150179502D01*
X147513018Y-150215812D01*
X147637500Y-150228072D01*
X149542500Y-150228072D01*
X149666982Y-150215812D01*
X149786680Y-150179502D01*
X149896994Y-150120537D01*
X149993685Y-150041185D01*
X150073037Y-149944494D01*
X150122059Y-149852781D01*
X150263077Y-149965969D01*
X150538906Y-150109571D01*
X150757020Y-150180563D01*
X151003000Y-150060594D01*
X151003000Y-148717000D01*
X150983000Y-148717000D01*
X150983000Y-148463000D01*
X151003000Y-148463000D01*
X151003000Y-147119406D01*
X151257000Y-147119406D01*
X151257000Y-148463000D01*
X151277000Y-148463000D01*
X151277000Y-148717000D01*
X151257000Y-148717000D01*
X151257000Y-150060594D01*
X151502980Y-150180563D01*
X151721094Y-150109571D01*
X151996923Y-149965969D01*
X152239437Y-149771315D01*
X152394837Y-149586101D01*
X152542037Y-149765463D01*
X152783766Y-149963845D01*
X153059552Y-150111255D01*
X153358797Y-150202030D01*
X153670000Y-150232681D01*
X153981204Y-150202030D01*
X154280449Y-150111255D01*
X154556235Y-149963845D01*
X154797963Y-149765463D01*
X154996345Y-149523734D01*
X155143755Y-149247948D01*
X155234530Y-148948703D01*
X155257500Y-148715485D01*
X155257500Y-148464514D01*
X155255940Y-148448665D01*
X158585000Y-148448665D01*
X158585000Y-148731335D01*
X158640147Y-149008574D01*
X158748320Y-149269727D01*
X158905363Y-149504759D01*
X159105241Y-149704637D01*
X159340273Y-149861680D01*
X159601426Y-149969853D01*
X159878665Y-150025000D01*
X160161335Y-150025000D01*
X160438574Y-149969853D01*
X160699727Y-149861680D01*
X160934759Y-149704637D01*
X161134637Y-149504759D01*
X161291680Y-149269727D01*
X161399853Y-149008574D01*
X161455000Y-148731335D01*
X161455000Y-148448665D01*
X161399853Y-148171426D01*
X161291680Y-147910273D01*
X161134637Y-147675241D01*
X160934759Y-147475363D01*
X160699727Y-147318320D01*
X160438574Y-147210147D01*
X160161335Y-147155000D01*
X159878665Y-147155000D01*
X159601426Y-147210147D01*
X159340273Y-147318320D01*
X159105241Y-147475363D01*
X158905363Y-147675241D01*
X158748320Y-147910273D01*
X158640147Y-148171426D01*
X158585000Y-148448665D01*
X155255940Y-148448665D01*
X155234530Y-148231296D01*
X155143755Y-147932051D01*
X154996345Y-147656265D01*
X154797963Y-147414537D01*
X154556234Y-147216155D01*
X154280448Y-147068745D01*
X153981203Y-146977970D01*
X153670000Y-146947319D01*
X153358796Y-146977970D01*
X153059551Y-147068745D01*
X152783765Y-147216155D01*
X152542037Y-147414537D01*
X152394838Y-147593900D01*
X152239437Y-147408685D01*
X151996923Y-147214031D01*
X151721094Y-147070429D01*
X151502980Y-146999437D01*
X151257000Y-147119406D01*
X151003000Y-147119406D01*
X150757020Y-146999437D01*
X150538906Y-147070429D01*
X150263077Y-147214031D01*
X150122059Y-147327219D01*
X150073037Y-147235506D01*
X149993685Y-147138815D01*
X149896994Y-147059463D01*
X149786680Y-147000498D01*
X149666982Y-146964188D01*
X149542500Y-146951928D01*
X147637500Y-146951928D01*
X147513018Y-146964188D01*
X147393320Y-147000498D01*
X147283006Y-147059463D01*
X147186315Y-147138815D01*
X147106963Y-147235506D01*
X147047998Y-147345820D01*
X147011688Y-147465518D01*
X146999428Y-147590000D01*
X144083072Y-147590000D01*
X144083072Y-145310000D01*
X144070812Y-145185518D01*
X144034502Y-145065820D01*
X143975537Y-144955506D01*
X143896185Y-144858815D01*
X143799494Y-144779463D01*
X143689180Y-144720498D01*
X143569482Y-144684188D01*
X143445000Y-144671928D01*
X141035000Y-144671928D01*
X140910518Y-144684188D01*
X140790820Y-144720498D01*
X140680506Y-144779463D01*
X140583815Y-144858815D01*
X140504463Y-144955506D01*
X140445498Y-145065820D01*
X140409188Y-145185518D01*
X140396928Y-145310000D01*
X87591407Y-145310000D01*
X87474637Y-145135241D01*
X87274759Y-144935363D01*
X87039727Y-144778320D01*
X86778574Y-144670147D01*
X86501335Y-144615000D01*
X86218665Y-144615000D01*
X85941426Y-144670147D01*
X85680273Y-144778320D01*
X85445241Y-144935363D01*
X85245363Y-145135241D01*
X85088320Y-145370273D01*
X84980147Y-145631426D01*
X84925000Y-145908665D01*
X76327000Y-145908665D01*
X76327000Y-144360000D01*
X79641928Y-144360000D01*
X79654188Y-144484482D01*
X79690498Y-144604180D01*
X79749463Y-144714494D01*
X79828815Y-144811185D01*
X79925506Y-144890537D01*
X80035820Y-144949502D01*
X80155518Y-144985812D01*
X80280000Y-144998072D01*
X80994250Y-144995000D01*
X81153000Y-144836250D01*
X81153000Y-143637000D01*
X81407000Y-143637000D01*
X81407000Y-144836250D01*
X81565750Y-144995000D01*
X82280000Y-144998072D01*
X82404482Y-144985812D01*
X82524180Y-144949502D01*
X82634494Y-144890537D01*
X82731185Y-144811185D01*
X82810537Y-144714494D01*
X82869502Y-144604180D01*
X82905812Y-144484482D01*
X82918072Y-144360000D01*
X82915000Y-143795750D01*
X82756250Y-143637000D01*
X81407000Y-143637000D01*
X81153000Y-143637000D01*
X79803750Y-143637000D01*
X79645000Y-143795750D01*
X79641928Y-144360000D01*
X76327000Y-144360000D01*
X76327000Y-143470000D01*
X159647815Y-143470000D01*
X159676487Y-143761111D01*
X159761401Y-144041034D01*
X159899294Y-144299014D01*
X160084866Y-144525134D01*
X160310986Y-144710706D01*
X160568966Y-144848599D01*
X160848889Y-144933513D01*
X161067050Y-144955000D01*
X161512950Y-144955000D01*
X161731111Y-144933513D01*
X162011034Y-144848599D01*
X162269014Y-144710706D01*
X162495134Y-144525134D01*
X162680706Y-144299014D01*
X162818599Y-144041034D01*
X162903513Y-143761111D01*
X162932185Y-143470000D01*
X162903513Y-143178889D01*
X162818599Y-142898966D01*
X162680706Y-142640986D01*
X162499392Y-142420055D01*
X162534180Y-142409502D01*
X162644494Y-142350537D01*
X162741185Y-142271185D01*
X162820537Y-142174494D01*
X162879502Y-142064180D01*
X162915812Y-141944482D01*
X162928072Y-141820000D01*
X162925000Y-141255750D01*
X162766250Y-141097000D01*
X161417000Y-141097000D01*
X161417000Y-141117000D01*
X161163000Y-141117000D01*
X161163000Y-141097000D01*
X159813750Y-141097000D01*
X159655000Y-141255750D01*
X159651928Y-141820000D01*
X159664188Y-141944482D01*
X159700498Y-142064180D01*
X159759463Y-142174494D01*
X159838815Y-142271185D01*
X159935506Y-142350537D01*
X160045820Y-142409502D01*
X160080608Y-142420055D01*
X159899294Y-142640986D01*
X159761401Y-142898966D01*
X159676487Y-143178889D01*
X159647815Y-143470000D01*
X76327000Y-143470000D01*
X76327000Y-141010000D01*
X79637815Y-141010000D01*
X79666487Y-141301111D01*
X79751401Y-141581034D01*
X79889294Y-141839014D01*
X80070608Y-142059945D01*
X80035820Y-142070498D01*
X79925506Y-142129463D01*
X79828815Y-142208815D01*
X79749463Y-142305506D01*
X79690498Y-142415820D01*
X79654188Y-142535518D01*
X79641928Y-142660000D01*
X79645000Y-143224250D01*
X79803750Y-143383000D01*
X81153000Y-143383000D01*
X81153000Y-143363000D01*
X81407000Y-143363000D01*
X81407000Y-143383000D01*
X82756250Y-143383000D01*
X82915000Y-143224250D01*
X82918072Y-142660000D01*
X82905812Y-142535518D01*
X82869502Y-142415820D01*
X82810537Y-142305506D01*
X82731185Y-142208815D01*
X82634494Y-142129463D01*
X82524180Y-142070498D01*
X82489392Y-142059945D01*
X82670706Y-141839014D01*
X82808599Y-141581034D01*
X82893513Y-141301111D01*
X82922185Y-141010000D01*
X82893513Y-140718889D01*
X82808599Y-140438966D01*
X82670706Y-140180986D01*
X82620657Y-140120000D01*
X159651928Y-140120000D01*
X159655000Y-140684250D01*
X159813750Y-140843000D01*
X161163000Y-140843000D01*
X161163000Y-139643750D01*
X161417000Y-139643750D01*
X161417000Y-140843000D01*
X162766250Y-140843000D01*
X162925000Y-140684250D01*
X162928072Y-140120000D01*
X162915812Y-139995518D01*
X162879502Y-139875820D01*
X162820537Y-139765506D01*
X162741185Y-139668815D01*
X162644494Y-139589463D01*
X162534180Y-139530498D01*
X162414482Y-139494188D01*
X162290000Y-139481928D01*
X161575750Y-139485000D01*
X161417000Y-139643750D01*
X161163000Y-139643750D01*
X161004250Y-139485000D01*
X160290000Y-139481928D01*
X160165518Y-139494188D01*
X160045820Y-139530498D01*
X159935506Y-139589463D01*
X159838815Y-139668815D01*
X159759463Y-139765506D01*
X159700498Y-139875820D01*
X159664188Y-139995518D01*
X159651928Y-140120000D01*
X82620657Y-140120000D01*
X82485134Y-139954866D01*
X82259014Y-139769294D01*
X82001034Y-139631401D01*
X81721111Y-139546487D01*
X81502950Y-139525000D01*
X81057050Y-139525000D01*
X80838889Y-139546487D01*
X80558966Y-139631401D01*
X80300986Y-139769294D01*
X80074866Y-139954866D01*
X79889294Y-140180986D01*
X79751401Y-140438966D01*
X79666487Y-140718889D01*
X79637815Y-141010000D01*
X76327000Y-141010000D01*
X76327000Y-138288665D01*
X84925000Y-138288665D01*
X84925000Y-138571335D01*
X84980147Y-138848574D01*
X85088320Y-139109727D01*
X85245363Y-139344759D01*
X85445241Y-139544637D01*
X85680273Y-139701680D01*
X85941426Y-139809853D01*
X86218665Y-139865000D01*
X86501335Y-139865000D01*
X86778574Y-139809853D01*
X87039727Y-139701680D01*
X87274759Y-139544637D01*
X87474637Y-139344759D01*
X87631680Y-139109727D01*
X87739853Y-138848574D01*
X87795000Y-138571335D01*
X87795000Y-138288665D01*
X87739853Y-138011426D01*
X87631680Y-137750273D01*
X87474637Y-137515241D01*
X87274759Y-137315363D01*
X87039727Y-137158320D01*
X86778574Y-137050147D01*
X86501335Y-136995000D01*
X86218665Y-136995000D01*
X85941426Y-137050147D01*
X85680273Y-137158320D01*
X85445241Y-137315363D01*
X85245363Y-137515241D01*
X85088320Y-137750273D01*
X84980147Y-138011426D01*
X84925000Y-138288665D01*
X76327000Y-138288665D01*
X76327000Y-133208665D01*
X84925000Y-133208665D01*
X84925000Y-133491335D01*
X84980147Y-133768574D01*
X85088320Y-134029727D01*
X85245363Y-134264759D01*
X85445241Y-134464637D01*
X85680273Y-134621680D01*
X85941426Y-134729853D01*
X86218665Y-134785000D01*
X86501335Y-134785000D01*
X86778574Y-134729853D01*
X87039727Y-134621680D01*
X87121561Y-134567000D01*
X140400000Y-134567000D01*
X140400000Y-135372000D01*
X140460132Y-135728526D01*
X140588663Y-136066470D01*
X140780654Y-136372846D01*
X141028727Y-136635879D01*
X141323348Y-136845461D01*
X141653196Y-136993539D01*
X141827411Y-137038145D01*
X142113000Y-136921446D01*
X142113000Y-134567000D01*
X142367000Y-134567000D01*
X142367000Y-136921446D01*
X142652589Y-137038145D01*
X142826804Y-136993539D01*
X143156652Y-136845461D01*
X143451273Y-136635879D01*
X143699346Y-136372846D01*
X143891337Y-136066470D01*
X144019868Y-135728526D01*
X144080000Y-135372000D01*
X144080000Y-134567000D01*
X142367000Y-134567000D01*
X142113000Y-134567000D01*
X140400000Y-134567000D01*
X87121561Y-134567000D01*
X87274759Y-134464637D01*
X87474637Y-134264759D01*
X87631680Y-134029727D01*
X87739853Y-133768574D01*
X87791685Y-133508000D01*
X140400000Y-133508000D01*
X140400000Y-134313000D01*
X142113000Y-134313000D01*
X142113000Y-131958554D01*
X142367000Y-131958554D01*
X142367000Y-134313000D01*
X144080000Y-134313000D01*
X144080000Y-133508000D01*
X144019868Y-133151474D01*
X143891337Y-132813530D01*
X143699346Y-132507154D01*
X143451273Y-132244121D01*
X143156652Y-132034539D01*
X142826804Y-131886461D01*
X142652589Y-131841855D01*
X142367000Y-131958554D01*
X142113000Y-131958554D01*
X141827411Y-131841855D01*
X141653196Y-131886461D01*
X141323348Y-132034539D01*
X141028727Y-132244121D01*
X140780654Y-132507154D01*
X140588663Y-132813530D01*
X140460132Y-133151474D01*
X140400000Y-133508000D01*
X87791685Y-133508000D01*
X87795000Y-133491335D01*
X87795000Y-133208665D01*
X87739853Y-132931426D01*
X87631680Y-132670273D01*
X87474637Y-132435241D01*
X87274759Y-132235363D01*
X87039727Y-132078320D01*
X86778574Y-131970147D01*
X86501335Y-131915000D01*
X86218665Y-131915000D01*
X85941426Y-131970147D01*
X85680273Y-132078320D01*
X85445241Y-132235363D01*
X85245363Y-132435241D01*
X85088320Y-132670273D01*
X84980147Y-132931426D01*
X84925000Y-133208665D01*
X76327000Y-133208665D01*
X76327000Y-131695098D01*
X148745000Y-131695098D01*
X148745000Y-132164902D01*
X148836654Y-132625679D01*
X149016440Y-133059721D01*
X149277450Y-133450349D01*
X149609651Y-133782550D01*
X150000279Y-134043560D01*
X150434321Y-134223346D01*
X150895098Y-134315000D01*
X151364902Y-134315000D01*
X151825679Y-134223346D01*
X152259721Y-134043560D01*
X152650349Y-133782550D01*
X152982550Y-133450349D01*
X153076328Y-133310000D01*
X159647815Y-133310000D01*
X159676487Y-133601111D01*
X159761401Y-133881034D01*
X159899294Y-134139014D01*
X160084866Y-134365134D01*
X160310986Y-134550706D01*
X160568966Y-134688599D01*
X160848889Y-134773513D01*
X161067050Y-134795000D01*
X161512950Y-134795000D01*
X161731111Y-134773513D01*
X162011034Y-134688599D01*
X162269014Y-134550706D01*
X162495134Y-134365134D01*
X162680706Y-134139014D01*
X162818599Y-133881034D01*
X162903513Y-133601111D01*
X162932185Y-133310000D01*
X162903513Y-133018889D01*
X162818599Y-132738966D01*
X162680706Y-132480986D01*
X162499392Y-132260055D01*
X162534180Y-132249502D01*
X162644494Y-132190537D01*
X162741185Y-132111185D01*
X162820537Y-132014494D01*
X162879502Y-131904180D01*
X162915812Y-131784482D01*
X162928072Y-131660000D01*
X162925000Y-131095750D01*
X162766250Y-130937000D01*
X161417000Y-130937000D01*
X161417000Y-130957000D01*
X161163000Y-130957000D01*
X161163000Y-130937000D01*
X159813750Y-130937000D01*
X159655000Y-131095750D01*
X159651928Y-131660000D01*
X159664188Y-131784482D01*
X159700498Y-131904180D01*
X159759463Y-132014494D01*
X159838815Y-132111185D01*
X159935506Y-132190537D01*
X160045820Y-132249502D01*
X160080608Y-132260055D01*
X159899294Y-132480986D01*
X159761401Y-132738966D01*
X159676487Y-133018889D01*
X159647815Y-133310000D01*
X153076328Y-133310000D01*
X153243560Y-133059721D01*
X153423346Y-132625679D01*
X153515000Y-132164902D01*
X153515000Y-131695098D01*
X153423346Y-131234321D01*
X153243560Y-130800279D01*
X152982550Y-130409651D01*
X152650349Y-130077450D01*
X152474574Y-129960000D01*
X159651928Y-129960000D01*
X159655000Y-130524250D01*
X159813750Y-130683000D01*
X161163000Y-130683000D01*
X161163000Y-129483750D01*
X161417000Y-129483750D01*
X161417000Y-130683000D01*
X162766250Y-130683000D01*
X162925000Y-130524250D01*
X162928072Y-129960000D01*
X162915812Y-129835518D01*
X162879502Y-129715820D01*
X162820537Y-129605506D01*
X162741185Y-129508815D01*
X162644494Y-129429463D01*
X162534180Y-129370498D01*
X162414482Y-129334188D01*
X162290000Y-129321928D01*
X161575750Y-129325000D01*
X161417000Y-129483750D01*
X161163000Y-129483750D01*
X161004250Y-129325000D01*
X160290000Y-129321928D01*
X160165518Y-129334188D01*
X160045820Y-129370498D01*
X159935506Y-129429463D01*
X159838815Y-129508815D01*
X159759463Y-129605506D01*
X159700498Y-129715820D01*
X159664188Y-129835518D01*
X159651928Y-129960000D01*
X152474574Y-129960000D01*
X152259721Y-129816440D01*
X151825679Y-129636654D01*
X151364902Y-129545000D01*
X150895098Y-129545000D01*
X150434321Y-129636654D01*
X150000279Y-129816440D01*
X149609651Y-130077450D01*
X149277450Y-130409651D01*
X149016440Y-130800279D01*
X148836654Y-131234321D01*
X148745000Y-131695098D01*
X76327000Y-131695098D01*
X76327000Y-130390000D01*
X79641928Y-130390000D01*
X79654188Y-130514482D01*
X79690498Y-130634180D01*
X79749463Y-130744494D01*
X79828815Y-130841185D01*
X79925506Y-130920537D01*
X80035820Y-130979502D01*
X80155518Y-131015812D01*
X80280000Y-131028072D01*
X80994250Y-131025000D01*
X81153000Y-130866250D01*
X81153000Y-129667000D01*
X81407000Y-129667000D01*
X81407000Y-130866250D01*
X81565750Y-131025000D01*
X82280000Y-131028072D01*
X82404482Y-131015812D01*
X82524180Y-130979502D01*
X82634494Y-130920537D01*
X82731185Y-130841185D01*
X82810537Y-130744494D01*
X82869502Y-130634180D01*
X82905812Y-130514482D01*
X82918072Y-130390000D01*
X82915000Y-129825750D01*
X82756250Y-129667000D01*
X81407000Y-129667000D01*
X81153000Y-129667000D01*
X79803750Y-129667000D01*
X79645000Y-129825750D01*
X79641928Y-130390000D01*
X76327000Y-130390000D01*
X76327000Y-129524193D01*
X101195000Y-129524193D01*
X101195000Y-129875807D01*
X101263596Y-130220665D01*
X101398153Y-130545515D01*
X101593500Y-130837871D01*
X101842129Y-131086500D01*
X102134485Y-131281847D01*
X102459335Y-131416404D01*
X102804193Y-131485000D01*
X103155807Y-131485000D01*
X103500665Y-131416404D01*
X103825515Y-131281847D01*
X104117871Y-131086500D01*
X104366500Y-130837871D01*
X104561847Y-130545515D01*
X104696404Y-130220665D01*
X104765000Y-129875807D01*
X104765000Y-129524193D01*
X128165000Y-129524193D01*
X128165000Y-129875807D01*
X128233596Y-130220665D01*
X128368153Y-130545515D01*
X128563500Y-130837871D01*
X128812129Y-131086500D01*
X129104485Y-131281847D01*
X129429335Y-131416404D01*
X129774193Y-131485000D01*
X130125807Y-131485000D01*
X130470665Y-131416404D01*
X130795515Y-131281847D01*
X131087871Y-131086500D01*
X131336500Y-130837871D01*
X131531847Y-130545515D01*
X131666404Y-130220665D01*
X131735000Y-129875807D01*
X131735000Y-129524193D01*
X131666404Y-129179335D01*
X131531847Y-128854485D01*
X131336500Y-128562129D01*
X131087871Y-128313500D01*
X130795515Y-128118153D01*
X130470665Y-127983596D01*
X130125807Y-127915000D01*
X129774193Y-127915000D01*
X129429335Y-127983596D01*
X129104485Y-128118153D01*
X128812129Y-128313500D01*
X128563500Y-128562129D01*
X128368153Y-128854485D01*
X128233596Y-129179335D01*
X128165000Y-129524193D01*
X104765000Y-129524193D01*
X104696404Y-129179335D01*
X104561847Y-128854485D01*
X104366500Y-128562129D01*
X104117871Y-128313500D01*
X103825515Y-128118153D01*
X103500665Y-127983596D01*
X103155807Y-127915000D01*
X102804193Y-127915000D01*
X102459335Y-127983596D01*
X102134485Y-128118153D01*
X101842129Y-128313500D01*
X101593500Y-128562129D01*
X101398153Y-128854485D01*
X101263596Y-129179335D01*
X101195000Y-129524193D01*
X76327000Y-129524193D01*
X76327000Y-127040000D01*
X79637815Y-127040000D01*
X79666487Y-127331111D01*
X79751401Y-127611034D01*
X79889294Y-127869014D01*
X80070608Y-128089945D01*
X80035820Y-128100498D01*
X79925506Y-128159463D01*
X79828815Y-128238815D01*
X79749463Y-128335506D01*
X79690498Y-128445820D01*
X79654188Y-128565518D01*
X79641928Y-128690000D01*
X79645000Y-129254250D01*
X79803750Y-129413000D01*
X81153000Y-129413000D01*
X81153000Y-129393000D01*
X81407000Y-129393000D01*
X81407000Y-129413000D01*
X82756250Y-129413000D01*
X82915000Y-129254250D01*
X82918072Y-128690000D01*
X82905812Y-128565518D01*
X82869502Y-128445820D01*
X82810537Y-128335506D01*
X82731185Y-128238815D01*
X82634494Y-128159463D01*
X82524180Y-128100498D01*
X82489392Y-128089945D01*
X82670706Y-127869014D01*
X82808599Y-127611034D01*
X82893513Y-127331111D01*
X82922185Y-127040000D01*
X82893513Y-126748889D01*
X82808599Y-126468966D01*
X82670706Y-126210986D01*
X82485134Y-125984866D01*
X82259014Y-125799294D01*
X82001034Y-125661401D01*
X81761257Y-125588665D01*
X84925000Y-125588665D01*
X84925000Y-125871335D01*
X84980147Y-126148574D01*
X85088320Y-126409727D01*
X85245363Y-126644759D01*
X85445241Y-126844637D01*
X85680273Y-127001680D01*
X85941426Y-127109853D01*
X86218665Y-127165000D01*
X86501335Y-127165000D01*
X86778574Y-127109853D01*
X87039727Y-127001680D01*
X87274759Y-126844637D01*
X87474637Y-126644759D01*
X87631680Y-126409727D01*
X87739853Y-126148574D01*
X87795000Y-125871335D01*
X87795000Y-125588665D01*
X156045000Y-125588665D01*
X156045000Y-125871335D01*
X156100147Y-126148574D01*
X156208320Y-126409727D01*
X156365363Y-126644759D01*
X156565241Y-126844637D01*
X156800273Y-127001680D01*
X157061426Y-127109853D01*
X157338665Y-127165000D01*
X157621335Y-127165000D01*
X157898574Y-127109853D01*
X158159727Y-127001680D01*
X158394759Y-126844637D01*
X158594637Y-126644759D01*
X158751680Y-126409727D01*
X158859853Y-126148574D01*
X158915000Y-125871335D01*
X158915000Y-125588665D01*
X158859853Y-125311426D01*
X158751680Y-125050273D01*
X158594637Y-124815241D01*
X158394759Y-124615363D01*
X158159727Y-124458320D01*
X157898574Y-124350147D01*
X157621335Y-124295000D01*
X157338665Y-124295000D01*
X157061426Y-124350147D01*
X156800273Y-124458320D01*
X156565241Y-124615363D01*
X156365363Y-124815241D01*
X156208320Y-125050273D01*
X156100147Y-125311426D01*
X156045000Y-125588665D01*
X87795000Y-125588665D01*
X87739853Y-125311426D01*
X87631680Y-125050273D01*
X87474637Y-124815241D01*
X87274759Y-124615363D01*
X87039727Y-124458320D01*
X86778574Y-124350147D01*
X86501335Y-124295000D01*
X86218665Y-124295000D01*
X85941426Y-124350147D01*
X85680273Y-124458320D01*
X85445241Y-124615363D01*
X85245363Y-124815241D01*
X85088320Y-125050273D01*
X84980147Y-125311426D01*
X84925000Y-125588665D01*
X81761257Y-125588665D01*
X81721111Y-125576487D01*
X81502950Y-125555000D01*
X81057050Y-125555000D01*
X80838889Y-125576487D01*
X80558966Y-125661401D01*
X80300986Y-125799294D01*
X80074866Y-125984866D01*
X79889294Y-126210986D01*
X79751401Y-126468966D01*
X79666487Y-126748889D01*
X79637815Y-127040000D01*
X76327000Y-127040000D01*
X76327000Y-121778665D01*
X84925000Y-121778665D01*
X84925000Y-122061335D01*
X84980147Y-122338574D01*
X85088320Y-122599727D01*
X85245363Y-122834759D01*
X85445241Y-123034637D01*
X85680273Y-123191680D01*
X85941426Y-123299853D01*
X86218665Y-123355000D01*
X86501335Y-123355000D01*
X86778574Y-123299853D01*
X87039727Y-123191680D01*
X87274759Y-123034637D01*
X87474637Y-122834759D01*
X87631680Y-122599727D01*
X87739853Y-122338574D01*
X87795000Y-122061335D01*
X87795000Y-121778665D01*
X92545000Y-121778665D01*
X92545000Y-122061335D01*
X92600147Y-122338574D01*
X92708320Y-122599727D01*
X92865363Y-122834759D01*
X93065241Y-123034637D01*
X93300273Y-123191680D01*
X93561426Y-123299853D01*
X93838665Y-123355000D01*
X94121335Y-123355000D01*
X94398574Y-123299853D01*
X94659727Y-123191680D01*
X94894759Y-123034637D01*
X95094637Y-122834759D01*
X95251680Y-122599727D01*
X95359853Y-122338574D01*
X95415000Y-122061335D01*
X95415000Y-121778665D01*
X95359853Y-121501426D01*
X95251680Y-121240273D01*
X95094637Y-121005241D01*
X94894759Y-120805363D01*
X94659727Y-120648320D01*
X94398574Y-120540147D01*
X94240306Y-120508665D01*
X100165000Y-120508665D01*
X100165000Y-120791335D01*
X100220147Y-121068574D01*
X100328320Y-121329727D01*
X100485363Y-121564759D01*
X100685241Y-121764637D01*
X100920273Y-121921680D01*
X101181426Y-122029853D01*
X101458665Y-122085000D01*
X101741335Y-122085000D01*
X102018574Y-122029853D01*
X102279727Y-121921680D01*
X102514759Y-121764637D01*
X102714637Y-121564759D01*
X102871680Y-121329727D01*
X102979853Y-121068574D01*
X103035000Y-120791335D01*
X103035000Y-120508665D01*
X107785000Y-120508665D01*
X107785000Y-120791335D01*
X107840147Y-121068574D01*
X107948320Y-121329727D01*
X108105363Y-121564759D01*
X108305241Y-121764637D01*
X108540273Y-121921680D01*
X108801426Y-122029853D01*
X109078665Y-122085000D01*
X109361335Y-122085000D01*
X109638574Y-122029853D01*
X109899727Y-121921680D01*
X110113764Y-121778665D01*
X111595000Y-121778665D01*
X111595000Y-122061335D01*
X111650147Y-122338574D01*
X111758320Y-122599727D01*
X111915363Y-122834759D01*
X112115241Y-123034637D01*
X112350273Y-123191680D01*
X112611426Y-123299853D01*
X112888665Y-123355000D01*
X113171335Y-123355000D01*
X113448574Y-123299853D01*
X113709727Y-123191680D01*
X113944759Y-123034637D01*
X114144637Y-122834759D01*
X114301680Y-122599727D01*
X114409853Y-122338574D01*
X114465000Y-122061335D01*
X114465000Y-121778665D01*
X114409853Y-121501426D01*
X114301680Y-121240273D01*
X114144637Y-121005241D01*
X113944759Y-120805363D01*
X113744131Y-120671308D01*
X113771514Y-120656671D01*
X113813495Y-120513589D01*
X116725000Y-120513589D01*
X116725000Y-120786411D01*
X116778225Y-121053989D01*
X116882629Y-121306043D01*
X117034201Y-121532886D01*
X117227114Y-121725799D01*
X117453957Y-121877371D01*
X117706011Y-121981775D01*
X117973589Y-122035000D01*
X118246411Y-122035000D01*
X118513989Y-121981775D01*
X118766043Y-121877371D01*
X118992886Y-121725799D01*
X119185799Y-121532886D01*
X119337371Y-121306043D01*
X119441775Y-121053989D01*
X119495000Y-120786411D01*
X119495000Y-120513589D01*
X121725000Y-120513589D01*
X121725000Y-120786411D01*
X121778225Y-121053989D01*
X121882629Y-121306043D01*
X122034201Y-121532886D01*
X122227114Y-121725799D01*
X122453957Y-121877371D01*
X122706011Y-121981775D01*
X122973589Y-122035000D01*
X123246411Y-122035000D01*
X123513989Y-121981775D01*
X123766043Y-121877371D01*
X123913766Y-121778665D01*
X126835000Y-121778665D01*
X126835000Y-122061335D01*
X126890147Y-122338574D01*
X126998320Y-122599727D01*
X127155363Y-122834759D01*
X127355241Y-123034637D01*
X127590273Y-123191680D01*
X127851426Y-123299853D01*
X128128665Y-123355000D01*
X128411335Y-123355000D01*
X128688574Y-123299853D01*
X128949727Y-123191680D01*
X129184759Y-123034637D01*
X129384637Y-122834759D01*
X129541680Y-122599727D01*
X129649853Y-122338574D01*
X129705000Y-122061335D01*
X129705000Y-121778665D01*
X129649853Y-121501426D01*
X129541680Y-121240273D01*
X129384637Y-121005241D01*
X129184759Y-120805363D01*
X128984131Y-120671308D01*
X129011514Y-120656671D01*
X129083097Y-120412702D01*
X128270000Y-119599605D01*
X127456903Y-120412702D01*
X127528486Y-120656671D01*
X127557341Y-120670324D01*
X127355241Y-120805363D01*
X127155363Y-121005241D01*
X126998320Y-121240273D01*
X126890147Y-121501426D01*
X126835000Y-121778665D01*
X123913766Y-121778665D01*
X123992886Y-121725799D01*
X124185799Y-121532886D01*
X124337371Y-121306043D01*
X124441775Y-121053989D01*
X124495000Y-120786411D01*
X124495000Y-120513589D01*
X124441775Y-120246011D01*
X124337371Y-119993957D01*
X124185799Y-119767114D01*
X123992886Y-119574201D01*
X123867637Y-119490512D01*
X126829783Y-119490512D01*
X126871213Y-119770130D01*
X126966397Y-120036292D01*
X127033329Y-120161514D01*
X127277298Y-120233097D01*
X128090395Y-119420000D01*
X128449605Y-119420000D01*
X129262702Y-120233097D01*
X129506671Y-120161514D01*
X129627571Y-119906004D01*
X129641609Y-119850000D01*
X138261928Y-119850000D01*
X138261928Y-121450000D01*
X138274188Y-121574482D01*
X138310498Y-121694180D01*
X138369463Y-121804494D01*
X138448815Y-121901185D01*
X138545506Y-121980537D01*
X138655820Y-122039502D01*
X138775518Y-122075812D01*
X138900000Y-122088072D01*
X140500000Y-122088072D01*
X140624482Y-122075812D01*
X140744180Y-122039502D01*
X140854494Y-121980537D01*
X140951185Y-121901185D01*
X141030537Y-121804494D01*
X141089502Y-121694180D01*
X141118661Y-121598057D01*
X141285241Y-121764637D01*
X141520273Y-121921680D01*
X141781426Y-122029853D01*
X142058665Y-122085000D01*
X142341335Y-122085000D01*
X142618574Y-122029853D01*
X142879727Y-121921680D01*
X143114759Y-121764637D01*
X143182346Y-121697050D01*
X147105000Y-121697050D01*
X147105000Y-122142949D01*
X147126487Y-122361110D01*
X147211401Y-122641033D01*
X147349294Y-122899013D01*
X147534866Y-123125134D01*
X147760986Y-123310706D01*
X148018966Y-123448599D01*
X148298889Y-123533513D01*
X148590000Y-123562185D01*
X148881110Y-123533513D01*
X149161033Y-123448599D01*
X149419013Y-123310706D01*
X149645134Y-123125134D01*
X149697223Y-123061663D01*
X149751595Y-123163386D01*
X149862038Y-123297962D01*
X149996614Y-123408405D01*
X150150150Y-123490472D01*
X150316746Y-123541008D01*
X150490000Y-123558072D01*
X151690000Y-123558072D01*
X151863254Y-123541008D01*
X152029850Y-123490472D01*
X152183386Y-123408405D01*
X152317962Y-123297962D01*
X152428405Y-123163386D01*
X152510472Y-123009850D01*
X152561008Y-122843254D01*
X152578072Y-122670000D01*
X152578072Y-121170000D01*
X152561008Y-120996746D01*
X152510472Y-120830150D01*
X152428405Y-120676614D01*
X152317962Y-120542038D01*
X152183386Y-120431595D01*
X152029850Y-120349528D01*
X151863254Y-120298992D01*
X151690000Y-120281928D01*
X150490000Y-120281928D01*
X150316746Y-120298992D01*
X150150150Y-120349528D01*
X149996614Y-120431595D01*
X149862038Y-120542038D01*
X149751595Y-120676614D01*
X149697223Y-120778337D01*
X149645134Y-120714866D01*
X149419014Y-120529294D01*
X149161034Y-120391401D01*
X148881111Y-120306487D01*
X148590000Y-120277815D01*
X148298890Y-120306487D01*
X148018967Y-120391401D01*
X147760987Y-120529294D01*
X147534866Y-120714866D01*
X147349294Y-120940986D01*
X147211401Y-121198966D01*
X147126487Y-121478889D01*
X147105000Y-121697050D01*
X143182346Y-121697050D01*
X143314637Y-121564759D01*
X143471680Y-121329727D01*
X143579853Y-121068574D01*
X143635000Y-120791335D01*
X143635000Y-120508665D01*
X143579853Y-120231426D01*
X143471680Y-119970273D01*
X143314637Y-119735241D01*
X143114759Y-119535363D01*
X142879727Y-119378320D01*
X142618574Y-119270147D01*
X142341335Y-119215000D01*
X142058665Y-119215000D01*
X141781426Y-119270147D01*
X141520273Y-119378320D01*
X141285241Y-119535363D01*
X141118661Y-119701943D01*
X141089502Y-119605820D01*
X141030537Y-119495506D01*
X140951185Y-119398815D01*
X140854494Y-119319463D01*
X140744180Y-119260498D01*
X140624482Y-119224188D01*
X140500000Y-119211928D01*
X138900000Y-119211928D01*
X138775518Y-119224188D01*
X138655820Y-119260498D01*
X138545506Y-119319463D01*
X138448815Y-119398815D01*
X138369463Y-119495506D01*
X138310498Y-119605820D01*
X138274188Y-119725518D01*
X138261928Y-119850000D01*
X129641609Y-119850000D01*
X129696300Y-119631816D01*
X129710217Y-119349488D01*
X129668787Y-119069870D01*
X129573603Y-118803708D01*
X129506671Y-118678486D01*
X129262702Y-118606903D01*
X128449605Y-119420000D01*
X128090395Y-119420000D01*
X127277298Y-118606903D01*
X127033329Y-118678486D01*
X126912429Y-118933996D01*
X126843700Y-119208184D01*
X126829783Y-119490512D01*
X123867637Y-119490512D01*
X123766043Y-119422629D01*
X123513989Y-119318225D01*
X123246411Y-119265000D01*
X122973589Y-119265000D01*
X122706011Y-119318225D01*
X122453957Y-119422629D01*
X122227114Y-119574201D01*
X122034201Y-119767114D01*
X121882629Y-119993957D01*
X121778225Y-120246011D01*
X121725000Y-120513589D01*
X119495000Y-120513589D01*
X119441775Y-120246011D01*
X119337371Y-119993957D01*
X119185799Y-119767114D01*
X118992886Y-119574201D01*
X118766043Y-119422629D01*
X118513989Y-119318225D01*
X118246411Y-119265000D01*
X117973589Y-119265000D01*
X117706011Y-119318225D01*
X117453957Y-119422629D01*
X117227114Y-119574201D01*
X117034201Y-119767114D01*
X116882629Y-119993957D01*
X116778225Y-120246011D01*
X116725000Y-120513589D01*
X113813495Y-120513589D01*
X113843097Y-120412702D01*
X113030000Y-119599605D01*
X112216903Y-120412702D01*
X112288486Y-120656671D01*
X112317341Y-120670324D01*
X112115241Y-120805363D01*
X111915363Y-121005241D01*
X111758320Y-121240273D01*
X111650147Y-121501426D01*
X111595000Y-121778665D01*
X110113764Y-121778665D01*
X110134759Y-121764637D01*
X110334637Y-121564759D01*
X110491680Y-121329727D01*
X110599853Y-121068574D01*
X110655000Y-120791335D01*
X110655000Y-120508665D01*
X110599853Y-120231426D01*
X110491680Y-119970273D01*
X110334637Y-119735241D01*
X110134759Y-119535363D01*
X110067635Y-119490512D01*
X111589783Y-119490512D01*
X111631213Y-119770130D01*
X111726397Y-120036292D01*
X111793329Y-120161514D01*
X112037298Y-120233097D01*
X112850395Y-119420000D01*
X113209605Y-119420000D01*
X114022702Y-120233097D01*
X114266671Y-120161514D01*
X114387571Y-119906004D01*
X114456300Y-119631816D01*
X114470217Y-119349488D01*
X114428787Y-119069870D01*
X114333603Y-118803708D01*
X114266671Y-118678486D01*
X114022702Y-118606903D01*
X113209605Y-119420000D01*
X112850395Y-119420000D01*
X112037298Y-118606903D01*
X111793329Y-118678486D01*
X111672429Y-118933996D01*
X111603700Y-119208184D01*
X111589783Y-119490512D01*
X110067635Y-119490512D01*
X109899727Y-119378320D01*
X109638574Y-119270147D01*
X109361335Y-119215000D01*
X109078665Y-119215000D01*
X108801426Y-119270147D01*
X108540273Y-119378320D01*
X108305241Y-119535363D01*
X108105363Y-119735241D01*
X107948320Y-119970273D01*
X107840147Y-120231426D01*
X107785000Y-120508665D01*
X103035000Y-120508665D01*
X102979853Y-120231426D01*
X102871680Y-119970273D01*
X102714637Y-119735241D01*
X102514759Y-119535363D01*
X102279727Y-119378320D01*
X102018574Y-119270147D01*
X101741335Y-119215000D01*
X101458665Y-119215000D01*
X101181426Y-119270147D01*
X100920273Y-119378320D01*
X100685241Y-119535363D01*
X100485363Y-119735241D01*
X100328320Y-119970273D01*
X100220147Y-120231426D01*
X100165000Y-120508665D01*
X94240306Y-120508665D01*
X94121335Y-120485000D01*
X93838665Y-120485000D01*
X93561426Y-120540147D01*
X93300273Y-120648320D01*
X93065241Y-120805363D01*
X92865363Y-121005241D01*
X92708320Y-121240273D01*
X92600147Y-121501426D01*
X92545000Y-121778665D01*
X87795000Y-121778665D01*
X87739853Y-121501426D01*
X87631680Y-121240273D01*
X87474637Y-121005241D01*
X87274759Y-120805363D01*
X87039727Y-120648320D01*
X86778574Y-120540147D01*
X86501335Y-120485000D01*
X86218665Y-120485000D01*
X85941426Y-120540147D01*
X85680273Y-120648320D01*
X85445241Y-120805363D01*
X85245363Y-121005241D01*
X85088320Y-121240273D01*
X84980147Y-121501426D01*
X84925000Y-121778665D01*
X76327000Y-121778665D01*
X76327000Y-120190000D01*
X79641928Y-120190000D01*
X79654188Y-120314482D01*
X79690498Y-120434180D01*
X79749463Y-120544494D01*
X79828815Y-120641185D01*
X79925506Y-120720537D01*
X80035820Y-120779502D01*
X80155518Y-120815812D01*
X80280000Y-120828072D01*
X80994250Y-120825000D01*
X81153000Y-120666250D01*
X81153000Y-119467000D01*
X81407000Y-119467000D01*
X81407000Y-120666250D01*
X81565750Y-120825000D01*
X82280000Y-120828072D01*
X82404482Y-120815812D01*
X82524180Y-120779502D01*
X82634494Y-120720537D01*
X82731185Y-120641185D01*
X82810537Y-120544494D01*
X82869502Y-120434180D01*
X82905812Y-120314482D01*
X82918072Y-120190000D01*
X82915000Y-119625750D01*
X82756250Y-119467000D01*
X81407000Y-119467000D01*
X81153000Y-119467000D01*
X79803750Y-119467000D01*
X79645000Y-119625750D01*
X79641928Y-120190000D01*
X76327000Y-120190000D01*
X76327000Y-116840000D01*
X79637815Y-116840000D01*
X79666487Y-117131111D01*
X79751401Y-117411034D01*
X79889294Y-117669014D01*
X80070608Y-117889945D01*
X80035820Y-117900498D01*
X79925506Y-117959463D01*
X79828815Y-118038815D01*
X79749463Y-118135506D01*
X79690498Y-118245820D01*
X79654188Y-118365518D01*
X79641928Y-118490000D01*
X79645000Y-119054250D01*
X79803750Y-119213000D01*
X81153000Y-119213000D01*
X81153000Y-119193000D01*
X81407000Y-119193000D01*
X81407000Y-119213000D01*
X82756250Y-119213000D01*
X82915000Y-119054250D01*
X82918072Y-118490000D01*
X82911897Y-118427298D01*
X112216903Y-118427298D01*
X113030000Y-119240395D01*
X113843097Y-118427298D01*
X127456903Y-118427298D01*
X128270000Y-119240395D01*
X129083097Y-118427298D01*
X129011514Y-118183329D01*
X128756004Y-118062429D01*
X128481816Y-117993700D01*
X128199488Y-117979783D01*
X127919870Y-118021213D01*
X127653708Y-118116397D01*
X127528486Y-118183329D01*
X127456903Y-118427298D01*
X113843097Y-118427298D01*
X113771514Y-118183329D01*
X113516004Y-118062429D01*
X113241816Y-117993700D01*
X112959488Y-117979783D01*
X112679870Y-118021213D01*
X112413708Y-118116397D01*
X112288486Y-118183329D01*
X112216903Y-118427298D01*
X82911897Y-118427298D01*
X82905812Y-118365518D01*
X82869502Y-118245820D01*
X82810537Y-118135506D01*
X82731185Y-118038815D01*
X82645707Y-117968665D01*
X156045000Y-117968665D01*
X156045000Y-118251335D01*
X156100147Y-118528574D01*
X156208320Y-118789727D01*
X156365363Y-119024759D01*
X156565241Y-119224637D01*
X156800273Y-119381680D01*
X157061426Y-119489853D01*
X157338665Y-119545000D01*
X157621335Y-119545000D01*
X157898574Y-119489853D01*
X158159727Y-119381680D01*
X158394759Y-119224637D01*
X158594637Y-119024759D01*
X158751680Y-118789727D01*
X158859853Y-118528574D01*
X158915000Y-118251335D01*
X158915000Y-117968665D01*
X158859853Y-117691426D01*
X158751680Y-117430273D01*
X158594637Y-117195241D01*
X158394759Y-116995363D01*
X158159727Y-116838320D01*
X157898574Y-116730147D01*
X157621335Y-116675000D01*
X157338665Y-116675000D01*
X157061426Y-116730147D01*
X156800273Y-116838320D01*
X156565241Y-116995363D01*
X156365363Y-117195241D01*
X156208320Y-117430273D01*
X156100147Y-117691426D01*
X156045000Y-117968665D01*
X82645707Y-117968665D01*
X82634494Y-117959463D01*
X82524180Y-117900498D01*
X82489392Y-117889945D01*
X82670706Y-117669014D01*
X82808599Y-117411034D01*
X82893513Y-117131111D01*
X82922185Y-116840000D01*
X82893513Y-116548889D01*
X82808599Y-116268966D01*
X82670706Y-116010986D01*
X82485134Y-115784866D01*
X82259014Y-115599294D01*
X82001034Y-115461401D01*
X81893119Y-115428665D01*
X86195000Y-115428665D01*
X86195000Y-115711335D01*
X86250147Y-115988574D01*
X86358320Y-116249727D01*
X86515363Y-116484759D01*
X86715241Y-116684637D01*
X86950273Y-116841680D01*
X87211426Y-116949853D01*
X87488665Y-117005000D01*
X87771335Y-117005000D01*
X88048574Y-116949853D01*
X88309727Y-116841680D01*
X88544759Y-116684637D01*
X88744637Y-116484759D01*
X88901680Y-116249727D01*
X89009853Y-115988574D01*
X89065000Y-115711335D01*
X89065000Y-115428665D01*
X95085000Y-115428665D01*
X95085000Y-115711335D01*
X95140147Y-115988574D01*
X95248320Y-116249727D01*
X95405363Y-116484759D01*
X95605241Y-116684637D01*
X95840273Y-116841680D01*
X96101426Y-116949853D01*
X96378665Y-117005000D01*
X96661335Y-117005000D01*
X96938574Y-116949853D01*
X97199727Y-116841680D01*
X97434759Y-116684637D01*
X97634637Y-116484759D01*
X97791680Y-116249727D01*
X97899853Y-115988574D01*
X97955000Y-115711335D01*
X97955000Y-115428665D01*
X97899853Y-115151426D01*
X97791680Y-114890273D01*
X97711317Y-114770000D01*
X101431928Y-114770000D01*
X101431928Y-116370000D01*
X101444188Y-116494482D01*
X101480498Y-116614180D01*
X101539463Y-116724494D01*
X101618815Y-116821185D01*
X101715506Y-116900537D01*
X101825820Y-116959502D01*
X101945518Y-116995812D01*
X102070000Y-117008072D01*
X103670000Y-117008072D01*
X103794482Y-116995812D01*
X103914180Y-116959502D01*
X104024494Y-116900537D01*
X104121185Y-116821185D01*
X104200537Y-116724494D01*
X104259502Y-116614180D01*
X104295812Y-116494482D01*
X104296643Y-116486039D01*
X104495241Y-116684637D01*
X104730273Y-116841680D01*
X104991426Y-116949853D01*
X105268665Y-117005000D01*
X105551335Y-117005000D01*
X105828574Y-116949853D01*
X106089727Y-116841680D01*
X106324759Y-116684637D01*
X106524637Y-116484759D01*
X106680000Y-116252241D01*
X106835363Y-116484759D01*
X107035241Y-116684637D01*
X107270273Y-116841680D01*
X107531426Y-116949853D01*
X107808665Y-117005000D01*
X108091335Y-117005000D01*
X108368574Y-116949853D01*
X108629727Y-116841680D01*
X108864759Y-116684637D01*
X109064637Y-116484759D01*
X109220000Y-116252241D01*
X109375363Y-116484759D01*
X109575241Y-116684637D01*
X109810273Y-116841680D01*
X110071426Y-116949853D01*
X110348665Y-117005000D01*
X110631335Y-117005000D01*
X110908574Y-116949853D01*
X111169727Y-116841680D01*
X111404759Y-116684637D01*
X111604637Y-116484759D01*
X111760000Y-116252241D01*
X111915363Y-116484759D01*
X112115241Y-116684637D01*
X112350273Y-116841680D01*
X112611426Y-116949853D01*
X112888665Y-117005000D01*
X113171335Y-117005000D01*
X113448574Y-116949853D01*
X113709727Y-116841680D01*
X113944759Y-116684637D01*
X114144637Y-116484759D01*
X114300000Y-116252241D01*
X114455363Y-116484759D01*
X114655241Y-116684637D01*
X114890273Y-116841680D01*
X115151426Y-116949853D01*
X115428665Y-117005000D01*
X115711335Y-117005000D01*
X115988574Y-116949853D01*
X116249727Y-116841680D01*
X116484759Y-116684637D01*
X116684637Y-116484759D01*
X116840000Y-116252241D01*
X116995363Y-116484759D01*
X117195241Y-116684637D01*
X117430273Y-116841680D01*
X117691426Y-116949853D01*
X117968665Y-117005000D01*
X118251335Y-117005000D01*
X118528574Y-116949853D01*
X118789727Y-116841680D01*
X119024759Y-116684637D01*
X119224637Y-116484759D01*
X119381680Y-116249727D01*
X119386067Y-116239135D01*
X119497615Y-116425131D01*
X119686586Y-116633519D01*
X119912580Y-116801037D01*
X120166913Y-116921246D01*
X120300961Y-116961904D01*
X120523000Y-116839915D01*
X120523000Y-115697000D01*
X120503000Y-115697000D01*
X120503000Y-115443000D01*
X120523000Y-115443000D01*
X120523000Y-114300085D01*
X120777000Y-114300085D01*
X120777000Y-115443000D01*
X120797000Y-115443000D01*
X120797000Y-115697000D01*
X120777000Y-115697000D01*
X120777000Y-116839915D01*
X120999039Y-116961904D01*
X121133087Y-116921246D01*
X121387420Y-116801037D01*
X121613414Y-116633519D01*
X121802385Y-116425131D01*
X121913933Y-116239135D01*
X121918320Y-116249727D01*
X122075363Y-116484759D01*
X122275241Y-116684637D01*
X122510273Y-116841680D01*
X122771426Y-116949853D01*
X123048665Y-117005000D01*
X123331335Y-117005000D01*
X123608574Y-116949853D01*
X123869727Y-116841680D01*
X124104759Y-116684637D01*
X124304637Y-116484759D01*
X124460000Y-116252241D01*
X124615363Y-116484759D01*
X124815241Y-116684637D01*
X125050273Y-116841680D01*
X125311426Y-116949853D01*
X125588665Y-117005000D01*
X125871335Y-117005000D01*
X126148574Y-116949853D01*
X126409727Y-116841680D01*
X126644759Y-116684637D01*
X126844637Y-116484759D01*
X127000000Y-116252241D01*
X127155363Y-116484759D01*
X127355241Y-116684637D01*
X127590273Y-116841680D01*
X127851426Y-116949853D01*
X128128665Y-117005000D01*
X128411335Y-117005000D01*
X128688574Y-116949853D01*
X128949727Y-116841680D01*
X129184759Y-116684637D01*
X129384637Y-116484759D01*
X129540000Y-116252241D01*
X129695363Y-116484759D01*
X129895241Y-116684637D01*
X130130273Y-116841680D01*
X130391426Y-116949853D01*
X130668665Y-117005000D01*
X130951335Y-117005000D01*
X131228574Y-116949853D01*
X131489727Y-116841680D01*
X131724759Y-116684637D01*
X131924637Y-116484759D01*
X132080000Y-116252241D01*
X132235363Y-116484759D01*
X132435241Y-116684637D01*
X132670273Y-116841680D01*
X132931426Y-116949853D01*
X133208665Y-117005000D01*
X133491335Y-117005000D01*
X133768574Y-116949853D01*
X134029727Y-116841680D01*
X134264759Y-116684637D01*
X134464637Y-116484759D01*
X134620000Y-116252241D01*
X134775363Y-116484759D01*
X134975241Y-116684637D01*
X135210273Y-116841680D01*
X135471426Y-116949853D01*
X135748665Y-117005000D01*
X136031335Y-117005000D01*
X136308574Y-116949853D01*
X136569727Y-116841680D01*
X136804759Y-116684637D01*
X137004637Y-116484759D01*
X137161680Y-116249727D01*
X137269853Y-115988574D01*
X137325000Y-115711335D01*
X137325000Y-115428665D01*
X137269853Y-115151426D01*
X137161680Y-114890273D01*
X137004637Y-114655241D01*
X136804759Y-114455363D01*
X136569727Y-114298320D01*
X136308574Y-114190147D01*
X136031335Y-114135000D01*
X135748665Y-114135000D01*
X135471426Y-114190147D01*
X135210273Y-114298320D01*
X134975241Y-114455363D01*
X134775363Y-114655241D01*
X134620000Y-114887759D01*
X134464637Y-114655241D01*
X134264759Y-114455363D01*
X134029727Y-114298320D01*
X133768574Y-114190147D01*
X133491335Y-114135000D01*
X133208665Y-114135000D01*
X132931426Y-114190147D01*
X132670273Y-114298320D01*
X132435241Y-114455363D01*
X132235363Y-114655241D01*
X132080000Y-114887759D01*
X131924637Y-114655241D01*
X131724759Y-114455363D01*
X131489727Y-114298320D01*
X131228574Y-114190147D01*
X130951335Y-114135000D01*
X130668665Y-114135000D01*
X130391426Y-114190147D01*
X130130273Y-114298320D01*
X129895241Y-114455363D01*
X129695363Y-114655241D01*
X129540000Y-114887759D01*
X129384637Y-114655241D01*
X129184759Y-114455363D01*
X128949727Y-114298320D01*
X128688574Y-114190147D01*
X128411335Y-114135000D01*
X128128665Y-114135000D01*
X127851426Y-114190147D01*
X127590273Y-114298320D01*
X127355241Y-114455363D01*
X127155363Y-114655241D01*
X127000000Y-114887759D01*
X126844637Y-114655241D01*
X126644759Y-114455363D01*
X126409727Y-114298320D01*
X126148574Y-114190147D01*
X125871335Y-114135000D01*
X125588665Y-114135000D01*
X125311426Y-114190147D01*
X125050273Y-114298320D01*
X124815241Y-114455363D01*
X124615363Y-114655241D01*
X124460000Y-114887759D01*
X124304637Y-114655241D01*
X124104759Y-114455363D01*
X123869727Y-114298320D01*
X123608574Y-114190147D01*
X123331335Y-114135000D01*
X123048665Y-114135000D01*
X122771426Y-114190147D01*
X122510273Y-114298320D01*
X122275241Y-114455363D01*
X122075363Y-114655241D01*
X121918320Y-114890273D01*
X121913933Y-114900865D01*
X121802385Y-114714869D01*
X121613414Y-114506481D01*
X121387420Y-114338963D01*
X121133087Y-114218754D01*
X120999039Y-114178096D01*
X120777000Y-114300085D01*
X120523000Y-114300085D01*
X120300961Y-114178096D01*
X120166913Y-114218754D01*
X119912580Y-114338963D01*
X119686586Y-114506481D01*
X119497615Y-114714869D01*
X119386067Y-114900865D01*
X119381680Y-114890273D01*
X119224637Y-114655241D01*
X119024759Y-114455363D01*
X118789727Y-114298320D01*
X118528574Y-114190147D01*
X118251335Y-114135000D01*
X117968665Y-114135000D01*
X117691426Y-114190147D01*
X117430273Y-114298320D01*
X117195241Y-114455363D01*
X116995363Y-114655241D01*
X116840000Y-114887759D01*
X116684637Y-114655241D01*
X116484759Y-114455363D01*
X116249727Y-114298320D01*
X115988574Y-114190147D01*
X115711335Y-114135000D01*
X115428665Y-114135000D01*
X115151426Y-114190147D01*
X114890273Y-114298320D01*
X114655241Y-114455363D01*
X114455363Y-114655241D01*
X114300000Y-114887759D01*
X114144637Y-114655241D01*
X113944759Y-114455363D01*
X113709727Y-114298320D01*
X113448574Y-114190147D01*
X113171335Y-114135000D01*
X112888665Y-114135000D01*
X112611426Y-114190147D01*
X112350273Y-114298320D01*
X112115241Y-114455363D01*
X111915363Y-114655241D01*
X111760000Y-114887759D01*
X111604637Y-114655241D01*
X111404759Y-114455363D01*
X111169727Y-114298320D01*
X110908574Y-114190147D01*
X110631335Y-114135000D01*
X110348665Y-114135000D01*
X110071426Y-114190147D01*
X109810273Y-114298320D01*
X109575241Y-114455363D01*
X109375363Y-114655241D01*
X109220000Y-114887759D01*
X109064637Y-114655241D01*
X108864759Y-114455363D01*
X108629727Y-114298320D01*
X108368574Y-114190147D01*
X108091335Y-114135000D01*
X107808665Y-114135000D01*
X107531426Y-114190147D01*
X107270273Y-114298320D01*
X107035241Y-114455363D01*
X106835363Y-114655241D01*
X106680000Y-114887759D01*
X106524637Y-114655241D01*
X106324759Y-114455363D01*
X106089727Y-114298320D01*
X105828574Y-114190147D01*
X105551335Y-114135000D01*
X105268665Y-114135000D01*
X104991426Y-114190147D01*
X104730273Y-114298320D01*
X104495241Y-114455363D01*
X104296643Y-114653961D01*
X104295812Y-114645518D01*
X104259502Y-114525820D01*
X104200537Y-114415506D01*
X104121185Y-114318815D01*
X104024494Y-114239463D01*
X103914180Y-114180498D01*
X103794482Y-114144188D01*
X103670000Y-114131928D01*
X102070000Y-114131928D01*
X101945518Y-114144188D01*
X101825820Y-114180498D01*
X101715506Y-114239463D01*
X101618815Y-114318815D01*
X101539463Y-114415506D01*
X101480498Y-114525820D01*
X101444188Y-114645518D01*
X101431928Y-114770000D01*
X97711317Y-114770000D01*
X97634637Y-114655241D01*
X97434759Y-114455363D01*
X97199727Y-114298320D01*
X96938574Y-114190147D01*
X96661335Y-114135000D01*
X96378665Y-114135000D01*
X96101426Y-114190147D01*
X95840273Y-114298320D01*
X95605241Y-114455363D01*
X95405363Y-114655241D01*
X95248320Y-114890273D01*
X95140147Y-115151426D01*
X95085000Y-115428665D01*
X89065000Y-115428665D01*
X89009853Y-115151426D01*
X88901680Y-114890273D01*
X88744637Y-114655241D01*
X88544759Y-114455363D01*
X88309727Y-114298320D01*
X88048574Y-114190147D01*
X87771335Y-114135000D01*
X87488665Y-114135000D01*
X87211426Y-114190147D01*
X86950273Y-114298320D01*
X86715241Y-114455363D01*
X86515363Y-114655241D01*
X86358320Y-114890273D01*
X86250147Y-115151426D01*
X86195000Y-115428665D01*
X81893119Y-115428665D01*
X81721111Y-115376487D01*
X81502950Y-115355000D01*
X81057050Y-115355000D01*
X80838889Y-115376487D01*
X80558966Y-115461401D01*
X80300986Y-115599294D01*
X80074866Y-115784866D01*
X79889294Y-116010986D01*
X79751401Y-116268966D01*
X79666487Y-116548889D01*
X79637815Y-116840000D01*
X76327000Y-116840000D01*
X76327000Y-113300000D01*
X140649428Y-113300000D01*
X140649428Y-115300000D01*
X140661688Y-115424482D01*
X140697998Y-115544180D01*
X140756963Y-115654494D01*
X140836315Y-115751185D01*
X140933006Y-115830537D01*
X141043320Y-115889502D01*
X141163018Y-115925812D01*
X141287500Y-115938072D01*
X143192500Y-115938072D01*
X143316982Y-115925812D01*
X143436680Y-115889502D01*
X143546994Y-115830537D01*
X143643685Y-115751185D01*
X143723037Y-115654494D01*
X143767905Y-115570553D01*
X143893766Y-115673845D01*
X144169552Y-115821255D01*
X144468797Y-115912030D01*
X144780000Y-115942681D01*
X145091204Y-115912030D01*
X145390449Y-115821255D01*
X145666235Y-115673845D01*
X145907963Y-115475463D01*
X146055162Y-115296100D01*
X146210563Y-115481315D01*
X146453077Y-115675969D01*
X146728906Y-115819571D01*
X146947020Y-115890563D01*
X147193000Y-115770594D01*
X147193000Y-114427000D01*
X147447000Y-114427000D01*
X147447000Y-115770594D01*
X147692980Y-115890563D01*
X147911094Y-115819571D01*
X148186923Y-115675969D01*
X148429437Y-115481315D01*
X148629316Y-115243089D01*
X148778879Y-114970446D01*
X148872378Y-114673863D01*
X148745570Y-114427000D01*
X147447000Y-114427000D01*
X147193000Y-114427000D01*
X147173000Y-114427000D01*
X147173000Y-114173000D01*
X147193000Y-114173000D01*
X147193000Y-112829406D01*
X147447000Y-112829406D01*
X147447000Y-114173000D01*
X148745570Y-114173000D01*
X148872378Y-113926137D01*
X148778879Y-113629554D01*
X148629316Y-113356911D01*
X148429437Y-113118685D01*
X148186923Y-112924031D01*
X148118993Y-112888665D01*
X150965000Y-112888665D01*
X150965000Y-113171335D01*
X151020147Y-113448574D01*
X151128320Y-113709727D01*
X151285363Y-113944759D01*
X151485241Y-114144637D01*
X151720273Y-114301680D01*
X151981426Y-114409853D01*
X152258665Y-114465000D01*
X152541335Y-114465000D01*
X152818574Y-114409853D01*
X153079727Y-114301680D01*
X153314759Y-114144637D01*
X153514637Y-113944759D01*
X153671680Y-113709727D01*
X153779853Y-113448574D01*
X153835000Y-113171335D01*
X153835000Y-112888665D01*
X158585000Y-112888665D01*
X158585000Y-113171335D01*
X158640147Y-113448574D01*
X158748320Y-113709727D01*
X158905363Y-113944759D01*
X159105241Y-114144637D01*
X159340273Y-114301680D01*
X159601426Y-114409853D01*
X159878665Y-114465000D01*
X160161335Y-114465000D01*
X160438574Y-114409853D01*
X160699727Y-114301680D01*
X160934759Y-114144637D01*
X161134637Y-113944759D01*
X161291680Y-113709727D01*
X161399853Y-113448574D01*
X161455000Y-113171335D01*
X161455000Y-112888665D01*
X161399853Y-112611426D01*
X161291680Y-112350273D01*
X161134637Y-112115241D01*
X160934759Y-111915363D01*
X160699727Y-111758320D01*
X160438574Y-111650147D01*
X160161335Y-111595000D01*
X159878665Y-111595000D01*
X159601426Y-111650147D01*
X159340273Y-111758320D01*
X159105241Y-111915363D01*
X158905363Y-112115241D01*
X158748320Y-112350273D01*
X158640147Y-112611426D01*
X158585000Y-112888665D01*
X153835000Y-112888665D01*
X153779853Y-112611426D01*
X153671680Y-112350273D01*
X153514637Y-112115241D01*
X153314759Y-111915363D01*
X153079727Y-111758320D01*
X152818574Y-111650147D01*
X152541335Y-111595000D01*
X152258665Y-111595000D01*
X151981426Y-111650147D01*
X151720273Y-111758320D01*
X151485241Y-111915363D01*
X151285363Y-112115241D01*
X151128320Y-112350273D01*
X151020147Y-112611426D01*
X150965000Y-112888665D01*
X148118993Y-112888665D01*
X147911094Y-112780429D01*
X147692980Y-112709437D01*
X147447000Y-112829406D01*
X147193000Y-112829406D01*
X146947020Y-112709437D01*
X146728906Y-112780429D01*
X146453077Y-112924031D01*
X146210563Y-113118685D01*
X146055163Y-113303899D01*
X145907963Y-113124537D01*
X145666234Y-112926155D01*
X145390448Y-112778745D01*
X145091203Y-112687970D01*
X144780000Y-112657319D01*
X144468796Y-112687970D01*
X144169551Y-112778745D01*
X143893765Y-112926155D01*
X143767905Y-113029446D01*
X143723037Y-112945506D01*
X143643685Y-112848815D01*
X143546994Y-112769463D01*
X143436680Y-112710498D01*
X143316982Y-112674188D01*
X143192500Y-112661928D01*
X141287500Y-112661928D01*
X141163018Y-112674188D01*
X141043320Y-112710498D01*
X140933006Y-112769463D01*
X140836315Y-112848815D01*
X140756963Y-112945506D01*
X140697998Y-113055820D01*
X140661688Y-113175518D01*
X140649428Y-113300000D01*
X76327000Y-113300000D01*
X76327000Y-107808665D01*
X86195000Y-107808665D01*
X86195000Y-108091335D01*
X86250147Y-108368574D01*
X86358320Y-108629727D01*
X86515363Y-108864759D01*
X86715241Y-109064637D01*
X86950273Y-109221680D01*
X87211426Y-109329853D01*
X87488665Y-109385000D01*
X87771335Y-109385000D01*
X88048574Y-109329853D01*
X88309727Y-109221680D01*
X88544759Y-109064637D01*
X88744637Y-108864759D01*
X88901680Y-108629727D01*
X89009853Y-108368574D01*
X89065000Y-108091335D01*
X89065000Y-107808665D01*
X95085000Y-107808665D01*
X95085000Y-108091335D01*
X95140147Y-108368574D01*
X95248320Y-108629727D01*
X95405363Y-108864759D01*
X95605241Y-109064637D01*
X95840273Y-109221680D01*
X96101426Y-109329853D01*
X96378665Y-109385000D01*
X96661335Y-109385000D01*
X96938574Y-109329853D01*
X97199727Y-109221680D01*
X97434759Y-109064637D01*
X97634637Y-108864759D01*
X97791680Y-108629727D01*
X97899853Y-108368574D01*
X97955000Y-108091335D01*
X97955000Y-107808665D01*
X101435000Y-107808665D01*
X101435000Y-108091335D01*
X101490147Y-108368574D01*
X101598320Y-108629727D01*
X101755363Y-108864759D01*
X101955241Y-109064637D01*
X102190273Y-109221680D01*
X102451426Y-109329853D01*
X102728665Y-109385000D01*
X103011335Y-109385000D01*
X103288574Y-109329853D01*
X103549727Y-109221680D01*
X103784759Y-109064637D01*
X103984637Y-108864759D01*
X104140000Y-108632241D01*
X104295363Y-108864759D01*
X104495241Y-109064637D01*
X104730273Y-109221680D01*
X104991426Y-109329853D01*
X105268665Y-109385000D01*
X105551335Y-109385000D01*
X105828574Y-109329853D01*
X106089727Y-109221680D01*
X106324759Y-109064637D01*
X106524637Y-108864759D01*
X106680000Y-108632241D01*
X106835363Y-108864759D01*
X107035241Y-109064637D01*
X107270273Y-109221680D01*
X107531426Y-109329853D01*
X107808665Y-109385000D01*
X108091335Y-109385000D01*
X108368574Y-109329853D01*
X108629727Y-109221680D01*
X108864759Y-109064637D01*
X109064637Y-108864759D01*
X109220000Y-108632241D01*
X109375363Y-108864759D01*
X109575241Y-109064637D01*
X109810273Y-109221680D01*
X110071426Y-109329853D01*
X110348665Y-109385000D01*
X110631335Y-109385000D01*
X110908574Y-109329853D01*
X111169727Y-109221680D01*
X111404759Y-109064637D01*
X111604637Y-108864759D01*
X111760000Y-108632241D01*
X111915363Y-108864759D01*
X112115241Y-109064637D01*
X112350273Y-109221680D01*
X112611426Y-109329853D01*
X112888665Y-109385000D01*
X113171335Y-109385000D01*
X113448574Y-109329853D01*
X113709727Y-109221680D01*
X113944759Y-109064637D01*
X114144637Y-108864759D01*
X114300000Y-108632241D01*
X114455363Y-108864759D01*
X114655241Y-109064637D01*
X114890273Y-109221680D01*
X115151426Y-109329853D01*
X115428665Y-109385000D01*
X115711335Y-109385000D01*
X115988574Y-109329853D01*
X116249727Y-109221680D01*
X116484759Y-109064637D01*
X116684637Y-108864759D01*
X116841680Y-108629727D01*
X116846067Y-108619135D01*
X116957615Y-108805131D01*
X117146586Y-109013519D01*
X117372580Y-109181037D01*
X117626913Y-109301246D01*
X117760961Y-109341904D01*
X117983000Y-109219915D01*
X117983000Y-108077000D01*
X117963000Y-108077000D01*
X117963000Y-107823000D01*
X117983000Y-107823000D01*
X117983000Y-106680085D01*
X118237000Y-106680085D01*
X118237000Y-107823000D01*
X118257000Y-107823000D01*
X118257000Y-108077000D01*
X118237000Y-108077000D01*
X118237000Y-109219915D01*
X118459039Y-109341904D01*
X118593087Y-109301246D01*
X118847420Y-109181037D01*
X119073414Y-109013519D01*
X119262385Y-108805131D01*
X119373933Y-108619135D01*
X119378320Y-108629727D01*
X119535363Y-108864759D01*
X119735241Y-109064637D01*
X119970273Y-109221680D01*
X120231426Y-109329853D01*
X120508665Y-109385000D01*
X120791335Y-109385000D01*
X121068574Y-109329853D01*
X121329727Y-109221680D01*
X121564759Y-109064637D01*
X121764637Y-108864759D01*
X121920000Y-108632241D01*
X122075363Y-108864759D01*
X122275241Y-109064637D01*
X122510273Y-109221680D01*
X122771426Y-109329853D01*
X123048665Y-109385000D01*
X123331335Y-109385000D01*
X123608574Y-109329853D01*
X123869727Y-109221680D01*
X124104759Y-109064637D01*
X124304637Y-108864759D01*
X124460000Y-108632241D01*
X124615363Y-108864759D01*
X124815241Y-109064637D01*
X125050273Y-109221680D01*
X125311426Y-109329853D01*
X125588665Y-109385000D01*
X125871335Y-109385000D01*
X126148574Y-109329853D01*
X126409727Y-109221680D01*
X126644759Y-109064637D01*
X126844637Y-108864759D01*
X127000000Y-108632241D01*
X127155363Y-108864759D01*
X127355241Y-109064637D01*
X127590273Y-109221680D01*
X127851426Y-109329853D01*
X128128665Y-109385000D01*
X128411335Y-109385000D01*
X128688574Y-109329853D01*
X128949727Y-109221680D01*
X129184759Y-109064637D01*
X129384637Y-108864759D01*
X129540000Y-108632241D01*
X129695363Y-108864759D01*
X129895241Y-109064637D01*
X130130273Y-109221680D01*
X130391426Y-109329853D01*
X130668665Y-109385000D01*
X130951335Y-109385000D01*
X131228574Y-109329853D01*
X131489727Y-109221680D01*
X131724759Y-109064637D01*
X131924637Y-108864759D01*
X132080000Y-108632241D01*
X132235363Y-108864759D01*
X132435241Y-109064637D01*
X132670273Y-109221680D01*
X132931426Y-109329853D01*
X133208665Y-109385000D01*
X133491335Y-109385000D01*
X133768574Y-109329853D01*
X134029727Y-109221680D01*
X134264759Y-109064637D01*
X134464637Y-108864759D01*
X134620000Y-108632241D01*
X134775363Y-108864759D01*
X134975241Y-109064637D01*
X135210273Y-109221680D01*
X135471426Y-109329853D01*
X135748665Y-109385000D01*
X136031335Y-109385000D01*
X136308574Y-109329853D01*
X136569727Y-109221680D01*
X136804759Y-109064637D01*
X137004637Y-108864759D01*
X137161680Y-108629727D01*
X137269853Y-108368574D01*
X137325000Y-108091335D01*
X137325000Y-107808665D01*
X139535000Y-107808665D01*
X139535000Y-108091335D01*
X139590147Y-108368574D01*
X139698320Y-108629727D01*
X139855363Y-108864759D01*
X140055241Y-109064637D01*
X140290273Y-109221680D01*
X140551426Y-109329853D01*
X140828665Y-109385000D01*
X141111335Y-109385000D01*
X141388574Y-109329853D01*
X141649727Y-109221680D01*
X141884759Y-109064637D01*
X142084637Y-108864759D01*
X142241680Y-108629727D01*
X142349853Y-108368574D01*
X142405000Y-108091335D01*
X142405000Y-107808665D01*
X147155000Y-107808665D01*
X147155000Y-108091335D01*
X147210147Y-108368574D01*
X147318320Y-108629727D01*
X147475363Y-108864759D01*
X147675241Y-109064637D01*
X147910273Y-109221680D01*
X148171426Y-109329853D01*
X148448665Y-109385000D01*
X148731335Y-109385000D01*
X149008574Y-109329853D01*
X149269727Y-109221680D01*
X149483764Y-109078665D01*
X150965000Y-109078665D01*
X150965000Y-109361335D01*
X151020147Y-109638574D01*
X151128320Y-109899727D01*
X151285363Y-110134759D01*
X151485241Y-110334637D01*
X151720273Y-110491680D01*
X151981426Y-110599853D01*
X152258665Y-110655000D01*
X152541335Y-110655000D01*
X152818574Y-110599853D01*
X153079727Y-110491680D01*
X153314759Y-110334637D01*
X153514637Y-110134759D01*
X153671680Y-109899727D01*
X153779853Y-109638574D01*
X153835000Y-109361335D01*
X153835000Y-109078665D01*
X158585000Y-109078665D01*
X158585000Y-109361335D01*
X158640147Y-109638574D01*
X158748320Y-109899727D01*
X158905363Y-110134759D01*
X159105241Y-110334637D01*
X159340273Y-110491680D01*
X159601426Y-110599853D01*
X159878665Y-110655000D01*
X160161335Y-110655000D01*
X160438574Y-110599853D01*
X160699727Y-110491680D01*
X160934759Y-110334637D01*
X161134637Y-110134759D01*
X161291680Y-109899727D01*
X161399853Y-109638574D01*
X161455000Y-109361335D01*
X161455000Y-109078665D01*
X161399853Y-108801426D01*
X161291680Y-108540273D01*
X161134637Y-108305241D01*
X160934759Y-108105363D01*
X160699727Y-107948320D01*
X160438574Y-107840147D01*
X160161335Y-107785000D01*
X159878665Y-107785000D01*
X159601426Y-107840147D01*
X159340273Y-107948320D01*
X159105241Y-108105363D01*
X158905363Y-108305241D01*
X158748320Y-108540273D01*
X158640147Y-108801426D01*
X158585000Y-109078665D01*
X153835000Y-109078665D01*
X153779853Y-108801426D01*
X153671680Y-108540273D01*
X153514637Y-108305241D01*
X153314759Y-108105363D01*
X153079727Y-107948320D01*
X152818574Y-107840147D01*
X152541335Y-107785000D01*
X152258665Y-107785000D01*
X151981426Y-107840147D01*
X151720273Y-107948320D01*
X151485241Y-108105363D01*
X151285363Y-108305241D01*
X151128320Y-108540273D01*
X151020147Y-108801426D01*
X150965000Y-109078665D01*
X149483764Y-109078665D01*
X149504759Y-109064637D01*
X149704637Y-108864759D01*
X149861680Y-108629727D01*
X149969853Y-108368574D01*
X150025000Y-108091335D01*
X150025000Y-107808665D01*
X149969853Y-107531426D01*
X149861680Y-107270273D01*
X149704637Y-107035241D01*
X149504759Y-106835363D01*
X149269727Y-106678320D01*
X149008574Y-106570147D01*
X148731335Y-106515000D01*
X148448665Y-106515000D01*
X148171426Y-106570147D01*
X147910273Y-106678320D01*
X147675241Y-106835363D01*
X147475363Y-107035241D01*
X147318320Y-107270273D01*
X147210147Y-107531426D01*
X147155000Y-107808665D01*
X142405000Y-107808665D01*
X142349853Y-107531426D01*
X142241680Y-107270273D01*
X142084637Y-107035241D01*
X141884759Y-106835363D01*
X141649727Y-106678320D01*
X141388574Y-106570147D01*
X141111335Y-106515000D01*
X140828665Y-106515000D01*
X140551426Y-106570147D01*
X140290273Y-106678320D01*
X140055241Y-106835363D01*
X139855363Y-107035241D01*
X139698320Y-107270273D01*
X139590147Y-107531426D01*
X139535000Y-107808665D01*
X137325000Y-107808665D01*
X137269853Y-107531426D01*
X137161680Y-107270273D01*
X137004637Y-107035241D01*
X136804759Y-106835363D01*
X136569727Y-106678320D01*
X136308574Y-106570147D01*
X136031335Y-106515000D01*
X135748665Y-106515000D01*
X135471426Y-106570147D01*
X135210273Y-106678320D01*
X134975241Y-106835363D01*
X134775363Y-107035241D01*
X134620000Y-107267759D01*
X134464637Y-107035241D01*
X134264759Y-106835363D01*
X134029727Y-106678320D01*
X133768574Y-106570147D01*
X133491335Y-106515000D01*
X133208665Y-106515000D01*
X132931426Y-106570147D01*
X132670273Y-106678320D01*
X132435241Y-106835363D01*
X132235363Y-107035241D01*
X132080000Y-107267759D01*
X131924637Y-107035241D01*
X131724759Y-106835363D01*
X131489727Y-106678320D01*
X131228574Y-106570147D01*
X130951335Y-106515000D01*
X130668665Y-106515000D01*
X130391426Y-106570147D01*
X130130273Y-106678320D01*
X129895241Y-106835363D01*
X129695363Y-107035241D01*
X129540000Y-107267759D01*
X129384637Y-107035241D01*
X129184759Y-106835363D01*
X128949727Y-106678320D01*
X128688574Y-106570147D01*
X128411335Y-106515000D01*
X128128665Y-106515000D01*
X127851426Y-106570147D01*
X127590273Y-106678320D01*
X127355241Y-106835363D01*
X127155363Y-107035241D01*
X127000000Y-107267759D01*
X126844637Y-107035241D01*
X126644759Y-106835363D01*
X126409727Y-106678320D01*
X126148574Y-106570147D01*
X125871335Y-106515000D01*
X125588665Y-106515000D01*
X125311426Y-106570147D01*
X125050273Y-106678320D01*
X124815241Y-106835363D01*
X124615363Y-107035241D01*
X124460000Y-107267759D01*
X124304637Y-107035241D01*
X124104759Y-106835363D01*
X123869727Y-106678320D01*
X123608574Y-106570147D01*
X123331335Y-106515000D01*
X123048665Y-106515000D01*
X122771426Y-106570147D01*
X122510273Y-106678320D01*
X122275241Y-106835363D01*
X122075363Y-107035241D01*
X121920000Y-107267759D01*
X121764637Y-107035241D01*
X121564759Y-106835363D01*
X121329727Y-106678320D01*
X121068574Y-106570147D01*
X120791335Y-106515000D01*
X120508665Y-106515000D01*
X120231426Y-106570147D01*
X119970273Y-106678320D01*
X119735241Y-106835363D01*
X119535363Y-107035241D01*
X119378320Y-107270273D01*
X119373933Y-107280865D01*
X119262385Y-107094869D01*
X119073414Y-106886481D01*
X118847420Y-106718963D01*
X118593087Y-106598754D01*
X118459039Y-106558096D01*
X118237000Y-106680085D01*
X117983000Y-106680085D01*
X117760961Y-106558096D01*
X117626913Y-106598754D01*
X117372580Y-106718963D01*
X117146586Y-106886481D01*
X116957615Y-107094869D01*
X116846067Y-107280865D01*
X116841680Y-107270273D01*
X116684637Y-107035241D01*
X116484759Y-106835363D01*
X116249727Y-106678320D01*
X115988574Y-106570147D01*
X115711335Y-106515000D01*
X115428665Y-106515000D01*
X115151426Y-106570147D01*
X114890273Y-106678320D01*
X114655241Y-106835363D01*
X114455363Y-107035241D01*
X114300000Y-107267759D01*
X114144637Y-107035241D01*
X113944759Y-106835363D01*
X113709727Y-106678320D01*
X113448574Y-106570147D01*
X113171335Y-106515000D01*
X112888665Y-106515000D01*
X112611426Y-106570147D01*
X112350273Y-106678320D01*
X112115241Y-106835363D01*
X111915363Y-107035241D01*
X111760000Y-107267759D01*
X111604637Y-107035241D01*
X111404759Y-106835363D01*
X111169727Y-106678320D01*
X110908574Y-106570147D01*
X110631335Y-106515000D01*
X110348665Y-106515000D01*
X110071426Y-106570147D01*
X109810273Y-106678320D01*
X109575241Y-106835363D01*
X109375363Y-107035241D01*
X109220000Y-107267759D01*
X109064637Y-107035241D01*
X108864759Y-106835363D01*
X108629727Y-106678320D01*
X108368574Y-106570147D01*
X108091335Y-106515000D01*
X107808665Y-106515000D01*
X107531426Y-106570147D01*
X107270273Y-106678320D01*
X107035241Y-106835363D01*
X106835363Y-107035241D01*
X106680000Y-107267759D01*
X106524637Y-107035241D01*
X106324759Y-106835363D01*
X106089727Y-106678320D01*
X105828574Y-106570147D01*
X105551335Y-106515000D01*
X105268665Y-106515000D01*
X104991426Y-106570147D01*
X104730273Y-106678320D01*
X104495241Y-106835363D01*
X104295363Y-107035241D01*
X104140000Y-107267759D01*
X103984637Y-107035241D01*
X103784759Y-106835363D01*
X103549727Y-106678320D01*
X103288574Y-106570147D01*
X103011335Y-106515000D01*
X102728665Y-106515000D01*
X102451426Y-106570147D01*
X102190273Y-106678320D01*
X101955241Y-106835363D01*
X101755363Y-107035241D01*
X101598320Y-107270273D01*
X101490147Y-107531426D01*
X101435000Y-107808665D01*
X97955000Y-107808665D01*
X97899853Y-107531426D01*
X97791680Y-107270273D01*
X97634637Y-107035241D01*
X97434759Y-106835363D01*
X97199727Y-106678320D01*
X96938574Y-106570147D01*
X96661335Y-106515000D01*
X96378665Y-106515000D01*
X96101426Y-106570147D01*
X95840273Y-106678320D01*
X95605241Y-106835363D01*
X95405363Y-107035241D01*
X95248320Y-107270273D01*
X95140147Y-107531426D01*
X95085000Y-107808665D01*
X89065000Y-107808665D01*
X89009853Y-107531426D01*
X88901680Y-107270273D01*
X88744637Y-107035241D01*
X88544759Y-106835363D01*
X88309727Y-106678320D01*
X88048574Y-106570147D01*
X87771335Y-106515000D01*
X87488665Y-106515000D01*
X87211426Y-106570147D01*
X86950273Y-106678320D01*
X86715241Y-106835363D01*
X86515363Y-107035241D01*
X86358320Y-107270273D01*
X86250147Y-107531426D01*
X86195000Y-107808665D01*
X76327000Y-107808665D01*
X76327000Y-101330000D01*
X81061928Y-101330000D01*
X81074188Y-101454482D01*
X81110498Y-101574180D01*
X81169463Y-101684494D01*
X81248815Y-101781185D01*
X81345506Y-101860537D01*
X81455820Y-101919502D01*
X81575518Y-101955812D01*
X81700000Y-101968072D01*
X82264250Y-101965000D01*
X82423000Y-101806250D01*
X82423000Y-100457000D01*
X81223750Y-100457000D01*
X81065000Y-100615750D01*
X81061928Y-101330000D01*
X76327000Y-101330000D01*
X76327000Y-99330000D01*
X81061928Y-99330000D01*
X81065000Y-100044250D01*
X81223750Y-100203000D01*
X82423000Y-100203000D01*
X82423000Y-98853750D01*
X82677000Y-98853750D01*
X82677000Y-100203000D01*
X82697000Y-100203000D01*
X82697000Y-100457000D01*
X82677000Y-100457000D01*
X82677000Y-101806250D01*
X82835750Y-101965000D01*
X83400000Y-101968072D01*
X83524482Y-101955812D01*
X83644180Y-101919502D01*
X83754494Y-101860537D01*
X83851185Y-101781185D01*
X83930537Y-101684494D01*
X83989502Y-101574180D01*
X84000055Y-101539392D01*
X84220987Y-101720706D01*
X84478967Y-101858599D01*
X84758890Y-101943513D01*
X85050000Y-101972185D01*
X85341111Y-101943513D01*
X85621034Y-101858599D01*
X85879014Y-101720706D01*
X86105134Y-101535134D01*
X86273483Y-101330000D01*
X91221928Y-101330000D01*
X91234188Y-101454482D01*
X91270498Y-101574180D01*
X91329463Y-101684494D01*
X91408815Y-101781185D01*
X91505506Y-101860537D01*
X91615820Y-101919502D01*
X91735518Y-101955812D01*
X91860000Y-101968072D01*
X92424250Y-101965000D01*
X92583000Y-101806250D01*
X92583000Y-100457000D01*
X91383750Y-100457000D01*
X91225000Y-100615750D01*
X91221928Y-101330000D01*
X86273483Y-101330000D01*
X86290706Y-101309014D01*
X86428599Y-101051033D01*
X86513513Y-100771110D01*
X86535000Y-100552949D01*
X86535000Y-100107050D01*
X86513513Y-99888889D01*
X86428599Y-99608966D01*
X86290706Y-99350986D01*
X86273484Y-99330000D01*
X91221928Y-99330000D01*
X91225000Y-100044250D01*
X91383750Y-100203000D01*
X92583000Y-100203000D01*
X92583000Y-98853750D01*
X92837000Y-98853750D01*
X92837000Y-100203000D01*
X92857000Y-100203000D01*
X92857000Y-100457000D01*
X92837000Y-100457000D01*
X92837000Y-101806250D01*
X92995750Y-101965000D01*
X93560000Y-101968072D01*
X93684482Y-101955812D01*
X93804180Y-101919502D01*
X93914494Y-101860537D01*
X94011185Y-101781185D01*
X94090537Y-101684494D01*
X94149502Y-101574180D01*
X94160055Y-101539392D01*
X94380987Y-101720706D01*
X94638967Y-101858599D01*
X94918890Y-101943513D01*
X95210000Y-101972185D01*
X95501111Y-101943513D01*
X95781034Y-101858599D01*
X96039014Y-101720706D01*
X96265134Y-101535134D01*
X96450706Y-101309014D01*
X96588599Y-101051033D01*
X96664749Y-100800000D01*
X106511928Y-100800000D01*
X106511928Y-102400000D01*
X106524188Y-102524482D01*
X106560498Y-102644180D01*
X106619463Y-102754494D01*
X106698815Y-102851185D01*
X106795506Y-102930537D01*
X106905820Y-102989502D01*
X107025518Y-103025812D01*
X107150000Y-103038072D01*
X108750000Y-103038072D01*
X108874482Y-103025812D01*
X108994180Y-102989502D01*
X109104494Y-102930537D01*
X109201185Y-102851185D01*
X109280537Y-102754494D01*
X109339502Y-102644180D01*
X109355117Y-102592702D01*
X109636903Y-102592702D01*
X109708486Y-102836671D01*
X109963996Y-102957571D01*
X110238184Y-103026300D01*
X110520512Y-103040217D01*
X110800130Y-102998787D01*
X111066292Y-102903603D01*
X111191514Y-102836671D01*
X111263097Y-102592702D01*
X110450000Y-101779605D01*
X109636903Y-102592702D01*
X109355117Y-102592702D01*
X109375812Y-102524482D01*
X109388072Y-102400000D01*
X109388072Y-102392785D01*
X109457298Y-102413097D01*
X110270395Y-101600000D01*
X110629605Y-101600000D01*
X111442702Y-102413097D01*
X111686671Y-102341514D01*
X111807571Y-102086004D01*
X111839339Y-101959267D01*
X121923680Y-101959267D01*
X121997558Y-102240830D01*
X122124947Y-102502570D01*
X122300951Y-102734429D01*
X122518807Y-102927496D01*
X122770142Y-103074352D01*
X123033110Y-103166476D01*
X123263000Y-103045155D01*
X123263000Y-101727000D01*
X122063835Y-101727000D01*
X121923680Y-101959267D01*
X111839339Y-101959267D01*
X111876300Y-101811816D01*
X111890217Y-101529488D01*
X111848787Y-101249870D01*
X111845520Y-101240733D01*
X121923680Y-101240733D01*
X122063835Y-101473000D01*
X123263000Y-101473000D01*
X123263000Y-100154845D01*
X123517000Y-100154845D01*
X123517000Y-101473000D01*
X123537000Y-101473000D01*
X123537000Y-101727000D01*
X123517000Y-101727000D01*
X123517000Y-103045155D01*
X123746890Y-103166476D01*
X124009858Y-103074352D01*
X124261193Y-102927496D01*
X124479049Y-102734429D01*
X124635538Y-102528278D01*
X124649294Y-102554013D01*
X124834866Y-102780134D01*
X125060986Y-102965706D01*
X125318966Y-103103599D01*
X125598889Y-103188513D01*
X125890000Y-103217185D01*
X126181110Y-103188513D01*
X126461033Y-103103599D01*
X126719013Y-102965706D01*
X126945134Y-102780134D01*
X127130706Y-102554014D01*
X127140000Y-102536626D01*
X127149294Y-102554013D01*
X127334866Y-102780134D01*
X127560986Y-102965706D01*
X127818966Y-103103599D01*
X128098889Y-103188513D01*
X128390000Y-103217185D01*
X128681110Y-103188513D01*
X128961033Y-103103599D01*
X129219013Y-102965706D01*
X129445134Y-102780134D01*
X129630706Y-102554014D01*
X129640000Y-102536626D01*
X129649294Y-102554013D01*
X129834866Y-102780134D01*
X130060986Y-102965706D01*
X130318966Y-103103599D01*
X130598889Y-103188513D01*
X130890000Y-103217185D01*
X131181110Y-103188513D01*
X131461033Y-103103599D01*
X131719013Y-102965706D01*
X131945134Y-102780134D01*
X132130706Y-102554014D01*
X132140000Y-102536626D01*
X132149294Y-102554013D01*
X132334866Y-102780134D01*
X132560986Y-102965706D01*
X132818966Y-103103599D01*
X133098889Y-103188513D01*
X133390000Y-103217185D01*
X133681110Y-103188513D01*
X133961033Y-103103599D01*
X134219013Y-102965706D01*
X134445134Y-102780134D01*
X134497223Y-102716663D01*
X134551595Y-102818386D01*
X134662038Y-102952962D01*
X134796614Y-103063405D01*
X134950150Y-103145472D01*
X135116746Y-103196008D01*
X135290000Y-103213072D01*
X136490000Y-103213072D01*
X136663254Y-103196008D01*
X136829850Y-103145472D01*
X136983386Y-103063405D01*
X137117962Y-102952962D01*
X137228405Y-102818386D01*
X137310472Y-102664850D01*
X137361008Y-102498254D01*
X137378072Y-102325000D01*
X137378072Y-101330000D01*
X145831928Y-101330000D01*
X145844188Y-101454482D01*
X145880498Y-101574180D01*
X145939463Y-101684494D01*
X146018815Y-101781185D01*
X146115506Y-101860537D01*
X146225820Y-101919502D01*
X146345518Y-101955812D01*
X146470000Y-101968072D01*
X147034250Y-101965000D01*
X147193000Y-101806250D01*
X147193000Y-100457000D01*
X145993750Y-100457000D01*
X145835000Y-100615750D01*
X145831928Y-101330000D01*
X137378072Y-101330000D01*
X137378072Y-100875000D01*
X137361008Y-100701746D01*
X137310472Y-100535150D01*
X137228405Y-100381614D01*
X137117962Y-100247038D01*
X136983386Y-100136595D01*
X136829850Y-100054528D01*
X136663254Y-100003992D01*
X136490000Y-99986928D01*
X135290000Y-99986928D01*
X135116746Y-100003992D01*
X134950150Y-100054528D01*
X134796614Y-100136595D01*
X134662038Y-100247038D01*
X134551595Y-100381614D01*
X134497223Y-100483337D01*
X134445134Y-100419866D01*
X134219014Y-100234294D01*
X133961034Y-100096401D01*
X133681111Y-100011487D01*
X133390000Y-99982815D01*
X133098890Y-100011487D01*
X132818967Y-100096401D01*
X132560987Y-100234294D01*
X132334866Y-100419866D01*
X132149294Y-100645986D01*
X132140000Y-100663374D01*
X132130706Y-100645986D01*
X131945134Y-100419866D01*
X131719014Y-100234294D01*
X131461034Y-100096401D01*
X131181111Y-100011487D01*
X130890000Y-99982815D01*
X130598890Y-100011487D01*
X130318967Y-100096401D01*
X130060987Y-100234294D01*
X129834866Y-100419866D01*
X129649294Y-100645986D01*
X129640000Y-100663374D01*
X129630706Y-100645986D01*
X129445134Y-100419866D01*
X129219014Y-100234294D01*
X128961034Y-100096401D01*
X128681111Y-100011487D01*
X128390000Y-99982815D01*
X128098890Y-100011487D01*
X127818967Y-100096401D01*
X127560987Y-100234294D01*
X127334866Y-100419866D01*
X127149294Y-100645986D01*
X127140000Y-100663374D01*
X127130706Y-100645986D01*
X126945134Y-100419866D01*
X126719014Y-100234294D01*
X126461034Y-100096401D01*
X126181111Y-100011487D01*
X125890000Y-99982815D01*
X125598890Y-100011487D01*
X125318967Y-100096401D01*
X125060987Y-100234294D01*
X124834866Y-100419866D01*
X124649294Y-100645986D01*
X124635538Y-100671722D01*
X124479049Y-100465571D01*
X124261193Y-100272504D01*
X124009858Y-100125648D01*
X123746890Y-100033524D01*
X123517000Y-100154845D01*
X123263000Y-100154845D01*
X123033110Y-100033524D01*
X122770142Y-100125648D01*
X122518807Y-100272504D01*
X122300951Y-100465571D01*
X122124947Y-100697430D01*
X121997558Y-100959170D01*
X121923680Y-101240733D01*
X111845520Y-101240733D01*
X111753603Y-100983708D01*
X111686671Y-100858486D01*
X111442702Y-100786903D01*
X110629605Y-101600000D01*
X110270395Y-101600000D01*
X109457298Y-100786903D01*
X109388072Y-100807215D01*
X109388072Y-100800000D01*
X109375812Y-100675518D01*
X109355118Y-100607298D01*
X109636903Y-100607298D01*
X110450000Y-101420395D01*
X111263097Y-100607298D01*
X111191514Y-100363329D01*
X110936004Y-100242429D01*
X110661816Y-100173700D01*
X110379488Y-100159783D01*
X110099870Y-100201213D01*
X109833708Y-100296397D01*
X109708486Y-100363329D01*
X109636903Y-100607298D01*
X109355118Y-100607298D01*
X109339502Y-100555820D01*
X109280537Y-100445506D01*
X109201185Y-100348815D01*
X109104494Y-100269463D01*
X108994180Y-100210498D01*
X108874482Y-100174188D01*
X108750000Y-100161928D01*
X107150000Y-100161928D01*
X107025518Y-100174188D01*
X106905820Y-100210498D01*
X106795506Y-100269463D01*
X106698815Y-100348815D01*
X106619463Y-100445506D01*
X106560498Y-100555820D01*
X106524188Y-100675518D01*
X106511928Y-100800000D01*
X96664749Y-100800000D01*
X96673513Y-100771110D01*
X96695000Y-100552949D01*
X96695000Y-100107050D01*
X96673513Y-99888889D01*
X96588599Y-99608966D01*
X96450706Y-99350986D01*
X96433484Y-99330000D01*
X145831928Y-99330000D01*
X145835000Y-100044250D01*
X145993750Y-100203000D01*
X147193000Y-100203000D01*
X147193000Y-98853750D01*
X147447000Y-98853750D01*
X147447000Y-100203000D01*
X147467000Y-100203000D01*
X147467000Y-100457000D01*
X147447000Y-100457000D01*
X147447000Y-101806250D01*
X147605750Y-101965000D01*
X148170000Y-101968072D01*
X148294482Y-101955812D01*
X148414180Y-101919502D01*
X148524494Y-101860537D01*
X148621185Y-101781185D01*
X148700537Y-101684494D01*
X148759502Y-101574180D01*
X148770055Y-101539392D01*
X148990987Y-101720706D01*
X149248967Y-101858599D01*
X149528890Y-101943513D01*
X149820000Y-101972185D01*
X150111111Y-101943513D01*
X150391034Y-101858599D01*
X150649014Y-101720706D01*
X150875134Y-101535134D01*
X151043483Y-101330000D01*
X155991928Y-101330000D01*
X156004188Y-101454482D01*
X156040498Y-101574180D01*
X156099463Y-101684494D01*
X156178815Y-101781185D01*
X156275506Y-101860537D01*
X156385820Y-101919502D01*
X156505518Y-101955812D01*
X156630000Y-101968072D01*
X157194250Y-101965000D01*
X157353000Y-101806250D01*
X157353000Y-100457000D01*
X156153750Y-100457000D01*
X155995000Y-100615750D01*
X155991928Y-101330000D01*
X151043483Y-101330000D01*
X151060706Y-101309014D01*
X151198599Y-101051033D01*
X151283513Y-100771110D01*
X151305000Y-100552949D01*
X151305000Y-100107050D01*
X151283513Y-99888889D01*
X151198599Y-99608966D01*
X151060706Y-99350986D01*
X151043484Y-99330000D01*
X155991928Y-99330000D01*
X155995000Y-100044250D01*
X156153750Y-100203000D01*
X157353000Y-100203000D01*
X157353000Y-98853750D01*
X157607000Y-98853750D01*
X157607000Y-100203000D01*
X157627000Y-100203000D01*
X157627000Y-100457000D01*
X157607000Y-100457000D01*
X157607000Y-101806250D01*
X157765750Y-101965000D01*
X158330000Y-101968072D01*
X158454482Y-101955812D01*
X158574180Y-101919502D01*
X158684494Y-101860537D01*
X158781185Y-101781185D01*
X158860537Y-101684494D01*
X158919502Y-101574180D01*
X158930055Y-101539392D01*
X159150987Y-101720706D01*
X159408967Y-101858599D01*
X159688890Y-101943513D01*
X159980000Y-101972185D01*
X160271111Y-101943513D01*
X160551034Y-101858599D01*
X160809014Y-101720706D01*
X161035134Y-101535134D01*
X161220706Y-101309014D01*
X161358599Y-101051033D01*
X161443513Y-100771110D01*
X161465000Y-100552949D01*
X161465000Y-100107050D01*
X161443513Y-99888889D01*
X161358599Y-99608966D01*
X161220706Y-99350986D01*
X161035134Y-99124866D01*
X160809013Y-98939294D01*
X160551033Y-98801401D01*
X160271110Y-98716487D01*
X159980000Y-98687815D01*
X159688889Y-98716487D01*
X159408966Y-98801401D01*
X159150986Y-98939294D01*
X158930055Y-99120608D01*
X158919502Y-99085820D01*
X158860537Y-98975506D01*
X158781185Y-98878815D01*
X158684494Y-98799463D01*
X158574180Y-98740498D01*
X158454482Y-98704188D01*
X158330000Y-98691928D01*
X157765750Y-98695000D01*
X157607000Y-98853750D01*
X157353000Y-98853750D01*
X157194250Y-98695000D01*
X156630000Y-98691928D01*
X156505518Y-98704188D01*
X156385820Y-98740498D01*
X156275506Y-98799463D01*
X156178815Y-98878815D01*
X156099463Y-98975506D01*
X156040498Y-99085820D01*
X156004188Y-99205518D01*
X155991928Y-99330000D01*
X151043484Y-99330000D01*
X150875134Y-99124866D01*
X150649013Y-98939294D01*
X150391033Y-98801401D01*
X150111110Y-98716487D01*
X149820000Y-98687815D01*
X149528889Y-98716487D01*
X149248966Y-98801401D01*
X148990986Y-98939294D01*
X148770055Y-99120608D01*
X148759502Y-99085820D01*
X148700537Y-98975506D01*
X148621185Y-98878815D01*
X148524494Y-98799463D01*
X148414180Y-98740498D01*
X148294482Y-98704188D01*
X148170000Y-98691928D01*
X147605750Y-98695000D01*
X147447000Y-98853750D01*
X147193000Y-98853750D01*
X147034250Y-98695000D01*
X146470000Y-98691928D01*
X146345518Y-98704188D01*
X146225820Y-98740498D01*
X146115506Y-98799463D01*
X146018815Y-98878815D01*
X145939463Y-98975506D01*
X145880498Y-99085820D01*
X145844188Y-99205518D01*
X145831928Y-99330000D01*
X96433484Y-99330000D01*
X96265134Y-99124866D01*
X96039013Y-98939294D01*
X95781033Y-98801401D01*
X95501110Y-98716487D01*
X95210000Y-98687815D01*
X94918889Y-98716487D01*
X94638966Y-98801401D01*
X94380986Y-98939294D01*
X94160055Y-99120608D01*
X94149502Y-99085820D01*
X94090537Y-98975506D01*
X94011185Y-98878815D01*
X93914494Y-98799463D01*
X93804180Y-98740498D01*
X93684482Y-98704188D01*
X93560000Y-98691928D01*
X92995750Y-98695000D01*
X92837000Y-98853750D01*
X92583000Y-98853750D01*
X92424250Y-98695000D01*
X91860000Y-98691928D01*
X91735518Y-98704188D01*
X91615820Y-98740498D01*
X91505506Y-98799463D01*
X91408815Y-98878815D01*
X91329463Y-98975506D01*
X91270498Y-99085820D01*
X91234188Y-99205518D01*
X91221928Y-99330000D01*
X86273484Y-99330000D01*
X86105134Y-99124866D01*
X85879013Y-98939294D01*
X85621033Y-98801401D01*
X85341110Y-98716487D01*
X85050000Y-98687815D01*
X84758889Y-98716487D01*
X84478966Y-98801401D01*
X84220986Y-98939294D01*
X84000055Y-99120608D01*
X83989502Y-99085820D01*
X83930537Y-98975506D01*
X83851185Y-98878815D01*
X83754494Y-98799463D01*
X83644180Y-98740498D01*
X83524482Y-98704188D01*
X83400000Y-98691928D01*
X82835750Y-98695000D01*
X82677000Y-98853750D01*
X82423000Y-98853750D01*
X82264250Y-98695000D01*
X81700000Y-98691928D01*
X81575518Y-98704188D01*
X81455820Y-98740498D01*
X81345506Y-98799463D01*
X81248815Y-98878815D01*
X81169463Y-98975506D01*
X81110498Y-99085820D01*
X81074188Y-99205518D01*
X81061928Y-99330000D01*
X76327000Y-99330000D01*
X76327000Y-96647000D01*
X164973000Y-96647000D01*
X164973000Y-158623000D01*
%TA.AperFunction,Conductor*%
D23*
G36*
X164973000Y-158623000D02*
G01*
X76327000Y-158623000D01*
X76327000Y-156068665D01*
X84925000Y-156068665D01*
X84925000Y-156351335D01*
X84980147Y-156628574D01*
X85088320Y-156889727D01*
X85245363Y-157124759D01*
X85445241Y-157324637D01*
X85680273Y-157481680D01*
X85941426Y-157589853D01*
X86218665Y-157645000D01*
X86501335Y-157645000D01*
X86778574Y-157589853D01*
X87039727Y-157481680D01*
X87274759Y-157324637D01*
X87474637Y-157124759D01*
X87631680Y-156889727D01*
X87739853Y-156628574D01*
X87795000Y-156351335D01*
X87795000Y-156068665D01*
X158585000Y-156068665D01*
X158585000Y-156351335D01*
X158640147Y-156628574D01*
X158748320Y-156889727D01*
X158905363Y-157124759D01*
X159105241Y-157324637D01*
X159340273Y-157481680D01*
X159601426Y-157589853D01*
X159878665Y-157645000D01*
X160161335Y-157645000D01*
X160438574Y-157589853D01*
X160699727Y-157481680D01*
X160934759Y-157324637D01*
X161134637Y-157124759D01*
X161291680Y-156889727D01*
X161399853Y-156628574D01*
X161455000Y-156351335D01*
X161455000Y-156068665D01*
X161399853Y-155791426D01*
X161291680Y-155530273D01*
X161134637Y-155295241D01*
X160934759Y-155095363D01*
X160699727Y-154938320D01*
X160438574Y-154830147D01*
X160161335Y-154775000D01*
X159878665Y-154775000D01*
X159601426Y-154830147D01*
X159340273Y-154938320D01*
X159105241Y-155095363D01*
X158905363Y-155295241D01*
X158748320Y-155530273D01*
X158640147Y-155791426D01*
X158585000Y-156068665D01*
X87795000Y-156068665D01*
X87739853Y-155791426D01*
X87631680Y-155530273D01*
X87474637Y-155295241D01*
X87274759Y-155095363D01*
X87039727Y-154938320D01*
X86778574Y-154830147D01*
X86501335Y-154775000D01*
X86218665Y-154775000D01*
X85941426Y-154830147D01*
X85680273Y-154938320D01*
X85445241Y-155095363D01*
X85245363Y-155295241D01*
X85088320Y-155530273D01*
X84980147Y-155791426D01*
X84925000Y-156068665D01*
X76327000Y-156068665D01*
X76327000Y-154520000D01*
X79641928Y-154520000D01*
X79654188Y-154644482D01*
X79690498Y-154764180D01*
X79749463Y-154874494D01*
X79828815Y-154971185D01*
X79925506Y-155050537D01*
X80035820Y-155109502D01*
X80155518Y-155145812D01*
X80280000Y-155158072D01*
X80994250Y-155155000D01*
X81153000Y-154996250D01*
X81153000Y-153797000D01*
X81407000Y-153797000D01*
X81407000Y-154996250D01*
X81565750Y-155155000D01*
X82280000Y-155158072D01*
X82404482Y-155145812D01*
X82524180Y-155109502D01*
X82634494Y-155050537D01*
X82731185Y-154971185D01*
X82810537Y-154874494D01*
X82869502Y-154764180D01*
X82905812Y-154644482D01*
X82918072Y-154520000D01*
X82915000Y-153955750D01*
X82756250Y-153797000D01*
X81407000Y-153797000D01*
X81153000Y-153797000D01*
X79803750Y-153797000D01*
X79645000Y-153955750D01*
X79641928Y-154520000D01*
X76327000Y-154520000D01*
X76327000Y-151170000D01*
X79637815Y-151170000D01*
X79666487Y-151461111D01*
X79751401Y-151741034D01*
X79889294Y-151999014D01*
X80070608Y-152219945D01*
X80035820Y-152230498D01*
X79925506Y-152289463D01*
X79828815Y-152368815D01*
X79749463Y-152465506D01*
X79690498Y-152575820D01*
X79654188Y-152695518D01*
X79641928Y-152820000D01*
X79645000Y-153384250D01*
X79803750Y-153543000D01*
X81153000Y-153543000D01*
X81153000Y-153523000D01*
X81407000Y-153523000D01*
X81407000Y-153543000D01*
X82756250Y-153543000D01*
X82915000Y-153384250D01*
X82918072Y-152820000D01*
X82905812Y-152695518D01*
X82869502Y-152575820D01*
X82810537Y-152465506D01*
X82731185Y-152368815D01*
X82634494Y-152289463D01*
X82524180Y-152230498D01*
X82489392Y-152219945D01*
X82670706Y-151999014D01*
X82737424Y-151874193D01*
X114675000Y-151874193D01*
X114675000Y-152225807D01*
X114743596Y-152570665D01*
X114878153Y-152895515D01*
X115073500Y-153187871D01*
X115322129Y-153436500D01*
X115614485Y-153631847D01*
X115939335Y-153766404D01*
X116284193Y-153835000D01*
X116635807Y-153835000D01*
X116980665Y-153766404D01*
X117305515Y-153631847D01*
X117597871Y-153436500D01*
X117846500Y-153187871D01*
X118025486Y-152920000D01*
X147101928Y-152920000D01*
X147101928Y-154420000D01*
X147118992Y-154593254D01*
X147169528Y-154759850D01*
X147251595Y-154913386D01*
X147362038Y-155047962D01*
X147496614Y-155158405D01*
X147650150Y-155240472D01*
X147816746Y-155291008D01*
X147990000Y-155308072D01*
X149190000Y-155308072D01*
X149363254Y-155291008D01*
X149529850Y-155240472D01*
X149683386Y-155158405D01*
X149817962Y-155047962D01*
X149928405Y-154913386D01*
X149982777Y-154811663D01*
X150034866Y-154875134D01*
X150260987Y-155060706D01*
X150518967Y-155198599D01*
X150798890Y-155283513D01*
X151090000Y-155312185D01*
X151381111Y-155283513D01*
X151661034Y-155198599D01*
X151919014Y-155060706D01*
X152145134Y-154875134D01*
X152330706Y-154649014D01*
X152468599Y-154391033D01*
X152553513Y-154111110D01*
X152575000Y-153892949D01*
X152575000Y-153447050D01*
X152553513Y-153228889D01*
X152468599Y-152948966D01*
X152330706Y-152690986D01*
X152145134Y-152464866D01*
X151919013Y-152279294D01*
X151661033Y-152141401D01*
X151381110Y-152056487D01*
X151090000Y-152027815D01*
X150798889Y-152056487D01*
X150518966Y-152141401D01*
X150260986Y-152279294D01*
X150034866Y-152464866D01*
X149982777Y-152528337D01*
X149928405Y-152426614D01*
X149817962Y-152292038D01*
X149683386Y-152181595D01*
X149529850Y-152099528D01*
X149363254Y-152048992D01*
X149190000Y-152031928D01*
X147990000Y-152031928D01*
X147816746Y-152048992D01*
X147650150Y-152099528D01*
X147496614Y-152181595D01*
X147362038Y-152292038D01*
X147251595Y-152426614D01*
X147169528Y-152580150D01*
X147118992Y-152746746D01*
X147101928Y-152920000D01*
X118025486Y-152920000D01*
X118041847Y-152895515D01*
X118176404Y-152570665D01*
X118245000Y-152225807D01*
X118245000Y-151874193D01*
X118176404Y-151529335D01*
X118041847Y-151204485D01*
X117846500Y-150912129D01*
X117597871Y-150663500D01*
X117305515Y-150468153D01*
X116980665Y-150333596D01*
X116635807Y-150265000D01*
X116284193Y-150265000D01*
X115939335Y-150333596D01*
X115614485Y-150468153D01*
X115322129Y-150663500D01*
X115073500Y-150912129D01*
X114878153Y-151204485D01*
X114743596Y-151529335D01*
X114675000Y-151874193D01*
X82737424Y-151874193D01*
X82808599Y-151741034D01*
X82893513Y-151461111D01*
X82922185Y-151170000D01*
X82893513Y-150878889D01*
X82808599Y-150598966D01*
X82670706Y-150340986D01*
X82485134Y-150114866D01*
X82259014Y-149929294D01*
X82001034Y-149791401D01*
X81721111Y-149706487D01*
X81502950Y-149685000D01*
X81057050Y-149685000D01*
X80838889Y-149706487D01*
X80558966Y-149791401D01*
X80300986Y-149929294D01*
X80074866Y-150114866D01*
X79889294Y-150340986D01*
X79751401Y-150598966D01*
X79666487Y-150878889D01*
X79637815Y-151170000D01*
X76327000Y-151170000D01*
X76327000Y-145908665D01*
X84925000Y-145908665D01*
X84925000Y-146191335D01*
X84980147Y-146468574D01*
X85088320Y-146729727D01*
X85245363Y-146964759D01*
X85445241Y-147164637D01*
X85677759Y-147320000D01*
X85445241Y-147475363D01*
X85245363Y-147675241D01*
X85088320Y-147910273D01*
X84980147Y-148171426D01*
X84925000Y-148448665D01*
X84925000Y-148731335D01*
X84980147Y-149008574D01*
X85088320Y-149269727D01*
X85245363Y-149504759D01*
X85445241Y-149704637D01*
X85680273Y-149861680D01*
X85941426Y-149969853D01*
X86218665Y-150025000D01*
X86501335Y-150025000D01*
X86778574Y-149969853D01*
X87039727Y-149861680D01*
X87274759Y-149704637D01*
X87474637Y-149504759D01*
X87631680Y-149269727D01*
X87739853Y-149008574D01*
X87795000Y-148731335D01*
X87795000Y-148448665D01*
X87739853Y-148171426D01*
X87631680Y-147910273D01*
X87474637Y-147675241D01*
X87274759Y-147475363D01*
X87042241Y-147320000D01*
X87274759Y-147164637D01*
X87474637Y-146964759D01*
X87631680Y-146729727D01*
X87739853Y-146468574D01*
X87795000Y-146191335D01*
X87795000Y-145908665D01*
X87739853Y-145631426D01*
X87631680Y-145370273D01*
X87591407Y-145310000D01*
X140396928Y-145310000D01*
X140396928Y-149330000D01*
X140409188Y-149454482D01*
X140445498Y-149574180D01*
X140504463Y-149684494D01*
X140583815Y-149781185D01*
X140680506Y-149860537D01*
X140790820Y-149919502D01*
X140910518Y-149955812D01*
X141035000Y-149968072D01*
X143445000Y-149968072D01*
X143569482Y-149955812D01*
X143689180Y-149919502D01*
X143799494Y-149860537D01*
X143896185Y-149781185D01*
X143975537Y-149684494D01*
X144034502Y-149574180D01*
X144070812Y-149454482D01*
X144083072Y-149330000D01*
X144083072Y-147590000D01*
X146999428Y-147590000D01*
X146999428Y-149590000D01*
X147011688Y-149714482D01*
X147047998Y-149834180D01*
X147106963Y-149944494D01*
X147186315Y-150041185D01*
X147283006Y-150120537D01*
X147393320Y-150179502D01*
X147513018Y-150215812D01*
X147637500Y-150228072D01*
X149542500Y-150228072D01*
X149666982Y-150215812D01*
X149786680Y-150179502D01*
X149896994Y-150120537D01*
X149993685Y-150041185D01*
X150073037Y-149944494D01*
X150122059Y-149852781D01*
X150263077Y-149965969D01*
X150538906Y-150109571D01*
X150757020Y-150180563D01*
X151003000Y-150060594D01*
X151003000Y-148717000D01*
X150983000Y-148717000D01*
X150983000Y-148463000D01*
X151003000Y-148463000D01*
X151003000Y-147119406D01*
X151257000Y-147119406D01*
X151257000Y-148463000D01*
X151277000Y-148463000D01*
X151277000Y-148717000D01*
X151257000Y-148717000D01*
X151257000Y-150060594D01*
X151502980Y-150180563D01*
X151721094Y-150109571D01*
X151996923Y-149965969D01*
X152239437Y-149771315D01*
X152394837Y-149586101D01*
X152542037Y-149765463D01*
X152783766Y-149963845D01*
X153059552Y-150111255D01*
X153358797Y-150202030D01*
X153670000Y-150232681D01*
X153981204Y-150202030D01*
X154280449Y-150111255D01*
X154556235Y-149963845D01*
X154797963Y-149765463D01*
X154996345Y-149523734D01*
X155143755Y-149247948D01*
X155234530Y-148948703D01*
X155257500Y-148715485D01*
X155257500Y-148464514D01*
X155255940Y-148448665D01*
X158585000Y-148448665D01*
X158585000Y-148731335D01*
X158640147Y-149008574D01*
X158748320Y-149269727D01*
X158905363Y-149504759D01*
X159105241Y-149704637D01*
X159340273Y-149861680D01*
X159601426Y-149969853D01*
X159878665Y-150025000D01*
X160161335Y-150025000D01*
X160438574Y-149969853D01*
X160699727Y-149861680D01*
X160934759Y-149704637D01*
X161134637Y-149504759D01*
X161291680Y-149269727D01*
X161399853Y-149008574D01*
X161455000Y-148731335D01*
X161455000Y-148448665D01*
X161399853Y-148171426D01*
X161291680Y-147910273D01*
X161134637Y-147675241D01*
X160934759Y-147475363D01*
X160699727Y-147318320D01*
X160438574Y-147210147D01*
X160161335Y-147155000D01*
X159878665Y-147155000D01*
X159601426Y-147210147D01*
X159340273Y-147318320D01*
X159105241Y-147475363D01*
X158905363Y-147675241D01*
X158748320Y-147910273D01*
X158640147Y-148171426D01*
X158585000Y-148448665D01*
X155255940Y-148448665D01*
X155234530Y-148231296D01*
X155143755Y-147932051D01*
X154996345Y-147656265D01*
X154797963Y-147414537D01*
X154556234Y-147216155D01*
X154280448Y-147068745D01*
X153981203Y-146977970D01*
X153670000Y-146947319D01*
X153358796Y-146977970D01*
X153059551Y-147068745D01*
X152783765Y-147216155D01*
X152542037Y-147414537D01*
X152394838Y-147593900D01*
X152239437Y-147408685D01*
X151996923Y-147214031D01*
X151721094Y-147070429D01*
X151502980Y-146999437D01*
X151257000Y-147119406D01*
X151003000Y-147119406D01*
X150757020Y-146999437D01*
X150538906Y-147070429D01*
X150263077Y-147214031D01*
X150122059Y-147327219D01*
X150073037Y-147235506D01*
X149993685Y-147138815D01*
X149896994Y-147059463D01*
X149786680Y-147000498D01*
X149666982Y-146964188D01*
X149542500Y-146951928D01*
X147637500Y-146951928D01*
X147513018Y-146964188D01*
X147393320Y-147000498D01*
X147283006Y-147059463D01*
X147186315Y-147138815D01*
X147106963Y-147235506D01*
X147047998Y-147345820D01*
X147011688Y-147465518D01*
X146999428Y-147590000D01*
X144083072Y-147590000D01*
X144083072Y-145310000D01*
X144070812Y-145185518D01*
X144034502Y-145065820D01*
X143975537Y-144955506D01*
X143896185Y-144858815D01*
X143799494Y-144779463D01*
X143689180Y-144720498D01*
X143569482Y-144684188D01*
X143445000Y-144671928D01*
X141035000Y-144671928D01*
X140910518Y-144684188D01*
X140790820Y-144720498D01*
X140680506Y-144779463D01*
X140583815Y-144858815D01*
X140504463Y-144955506D01*
X140445498Y-145065820D01*
X140409188Y-145185518D01*
X140396928Y-145310000D01*
X87591407Y-145310000D01*
X87474637Y-145135241D01*
X87274759Y-144935363D01*
X87039727Y-144778320D01*
X86778574Y-144670147D01*
X86501335Y-144615000D01*
X86218665Y-144615000D01*
X85941426Y-144670147D01*
X85680273Y-144778320D01*
X85445241Y-144935363D01*
X85245363Y-145135241D01*
X85088320Y-145370273D01*
X84980147Y-145631426D01*
X84925000Y-145908665D01*
X76327000Y-145908665D01*
X76327000Y-144360000D01*
X79641928Y-144360000D01*
X79654188Y-144484482D01*
X79690498Y-144604180D01*
X79749463Y-144714494D01*
X79828815Y-144811185D01*
X79925506Y-144890537D01*
X80035820Y-144949502D01*
X80155518Y-144985812D01*
X80280000Y-144998072D01*
X80994250Y-144995000D01*
X81153000Y-144836250D01*
X81153000Y-143637000D01*
X81407000Y-143637000D01*
X81407000Y-144836250D01*
X81565750Y-144995000D01*
X82280000Y-144998072D01*
X82404482Y-144985812D01*
X82524180Y-144949502D01*
X82634494Y-144890537D01*
X82731185Y-144811185D01*
X82810537Y-144714494D01*
X82869502Y-144604180D01*
X82905812Y-144484482D01*
X82918072Y-144360000D01*
X82915000Y-143795750D01*
X82756250Y-143637000D01*
X81407000Y-143637000D01*
X81153000Y-143637000D01*
X79803750Y-143637000D01*
X79645000Y-143795750D01*
X79641928Y-144360000D01*
X76327000Y-144360000D01*
X76327000Y-143470000D01*
X159647815Y-143470000D01*
X159676487Y-143761111D01*
X159761401Y-144041034D01*
X159899294Y-144299014D01*
X160084866Y-144525134D01*
X160310986Y-144710706D01*
X160568966Y-144848599D01*
X160848889Y-144933513D01*
X161067050Y-144955000D01*
X161512950Y-144955000D01*
X161731111Y-144933513D01*
X162011034Y-144848599D01*
X162269014Y-144710706D01*
X162495134Y-144525134D01*
X162680706Y-144299014D01*
X162818599Y-144041034D01*
X162903513Y-143761111D01*
X162932185Y-143470000D01*
X162903513Y-143178889D01*
X162818599Y-142898966D01*
X162680706Y-142640986D01*
X162499392Y-142420055D01*
X162534180Y-142409502D01*
X162644494Y-142350537D01*
X162741185Y-142271185D01*
X162820537Y-142174494D01*
X162879502Y-142064180D01*
X162915812Y-141944482D01*
X162928072Y-141820000D01*
X162925000Y-141255750D01*
X162766250Y-141097000D01*
X161417000Y-141097000D01*
X161417000Y-141117000D01*
X161163000Y-141117000D01*
X161163000Y-141097000D01*
X159813750Y-141097000D01*
X159655000Y-141255750D01*
X159651928Y-141820000D01*
X159664188Y-141944482D01*
X159700498Y-142064180D01*
X159759463Y-142174494D01*
X159838815Y-142271185D01*
X159935506Y-142350537D01*
X160045820Y-142409502D01*
X160080608Y-142420055D01*
X159899294Y-142640986D01*
X159761401Y-142898966D01*
X159676487Y-143178889D01*
X159647815Y-143470000D01*
X76327000Y-143470000D01*
X76327000Y-141010000D01*
X79637815Y-141010000D01*
X79666487Y-141301111D01*
X79751401Y-141581034D01*
X79889294Y-141839014D01*
X80070608Y-142059945D01*
X80035820Y-142070498D01*
X79925506Y-142129463D01*
X79828815Y-142208815D01*
X79749463Y-142305506D01*
X79690498Y-142415820D01*
X79654188Y-142535518D01*
X79641928Y-142660000D01*
X79645000Y-143224250D01*
X79803750Y-143383000D01*
X81153000Y-143383000D01*
X81153000Y-143363000D01*
X81407000Y-143363000D01*
X81407000Y-143383000D01*
X82756250Y-143383000D01*
X82915000Y-143224250D01*
X82918072Y-142660000D01*
X82905812Y-142535518D01*
X82869502Y-142415820D01*
X82810537Y-142305506D01*
X82731185Y-142208815D01*
X82634494Y-142129463D01*
X82524180Y-142070498D01*
X82489392Y-142059945D01*
X82670706Y-141839014D01*
X82808599Y-141581034D01*
X82893513Y-141301111D01*
X82922185Y-141010000D01*
X82893513Y-140718889D01*
X82808599Y-140438966D01*
X82670706Y-140180986D01*
X82620657Y-140120000D01*
X159651928Y-140120000D01*
X159655000Y-140684250D01*
X159813750Y-140843000D01*
X161163000Y-140843000D01*
X161163000Y-139643750D01*
X161417000Y-139643750D01*
X161417000Y-140843000D01*
X162766250Y-140843000D01*
X162925000Y-140684250D01*
X162928072Y-140120000D01*
X162915812Y-139995518D01*
X162879502Y-139875820D01*
X162820537Y-139765506D01*
X162741185Y-139668815D01*
X162644494Y-139589463D01*
X162534180Y-139530498D01*
X162414482Y-139494188D01*
X162290000Y-139481928D01*
X161575750Y-139485000D01*
X161417000Y-139643750D01*
X161163000Y-139643750D01*
X161004250Y-139485000D01*
X160290000Y-139481928D01*
X160165518Y-139494188D01*
X160045820Y-139530498D01*
X159935506Y-139589463D01*
X159838815Y-139668815D01*
X159759463Y-139765506D01*
X159700498Y-139875820D01*
X159664188Y-139995518D01*
X159651928Y-140120000D01*
X82620657Y-140120000D01*
X82485134Y-139954866D01*
X82259014Y-139769294D01*
X82001034Y-139631401D01*
X81721111Y-139546487D01*
X81502950Y-139525000D01*
X81057050Y-139525000D01*
X80838889Y-139546487D01*
X80558966Y-139631401D01*
X80300986Y-139769294D01*
X80074866Y-139954866D01*
X79889294Y-140180986D01*
X79751401Y-140438966D01*
X79666487Y-140718889D01*
X79637815Y-141010000D01*
X76327000Y-141010000D01*
X76327000Y-138288665D01*
X84925000Y-138288665D01*
X84925000Y-138571335D01*
X84980147Y-138848574D01*
X85088320Y-139109727D01*
X85245363Y-139344759D01*
X85445241Y-139544637D01*
X85680273Y-139701680D01*
X85941426Y-139809853D01*
X86218665Y-139865000D01*
X86501335Y-139865000D01*
X86778574Y-139809853D01*
X87039727Y-139701680D01*
X87274759Y-139544637D01*
X87474637Y-139344759D01*
X87631680Y-139109727D01*
X87739853Y-138848574D01*
X87795000Y-138571335D01*
X87795000Y-138288665D01*
X87739853Y-138011426D01*
X87631680Y-137750273D01*
X87474637Y-137515241D01*
X87274759Y-137315363D01*
X87039727Y-137158320D01*
X86778574Y-137050147D01*
X86501335Y-136995000D01*
X86218665Y-136995000D01*
X85941426Y-137050147D01*
X85680273Y-137158320D01*
X85445241Y-137315363D01*
X85245363Y-137515241D01*
X85088320Y-137750273D01*
X84980147Y-138011426D01*
X84925000Y-138288665D01*
X76327000Y-138288665D01*
X76327000Y-133208665D01*
X84925000Y-133208665D01*
X84925000Y-133491335D01*
X84980147Y-133768574D01*
X85088320Y-134029727D01*
X85245363Y-134264759D01*
X85445241Y-134464637D01*
X85680273Y-134621680D01*
X85941426Y-134729853D01*
X86218665Y-134785000D01*
X86501335Y-134785000D01*
X86778574Y-134729853D01*
X87039727Y-134621680D01*
X87121561Y-134567000D01*
X140400000Y-134567000D01*
X140400000Y-135372000D01*
X140460132Y-135728526D01*
X140588663Y-136066470D01*
X140780654Y-136372846D01*
X141028727Y-136635879D01*
X141323348Y-136845461D01*
X141653196Y-136993539D01*
X141827411Y-137038145D01*
X142113000Y-136921446D01*
X142113000Y-134567000D01*
X142367000Y-134567000D01*
X142367000Y-136921446D01*
X142652589Y-137038145D01*
X142826804Y-136993539D01*
X143156652Y-136845461D01*
X143451273Y-136635879D01*
X143699346Y-136372846D01*
X143891337Y-136066470D01*
X144019868Y-135728526D01*
X144080000Y-135372000D01*
X144080000Y-134567000D01*
X142367000Y-134567000D01*
X142113000Y-134567000D01*
X140400000Y-134567000D01*
X87121561Y-134567000D01*
X87274759Y-134464637D01*
X87474637Y-134264759D01*
X87631680Y-134029727D01*
X87739853Y-133768574D01*
X87791685Y-133508000D01*
X140400000Y-133508000D01*
X140400000Y-134313000D01*
X142113000Y-134313000D01*
X142113000Y-131958554D01*
X142367000Y-131958554D01*
X142367000Y-134313000D01*
X144080000Y-134313000D01*
X144080000Y-133508000D01*
X144019868Y-133151474D01*
X143891337Y-132813530D01*
X143699346Y-132507154D01*
X143451273Y-132244121D01*
X143156652Y-132034539D01*
X142826804Y-131886461D01*
X142652589Y-131841855D01*
X142367000Y-131958554D01*
X142113000Y-131958554D01*
X141827411Y-131841855D01*
X141653196Y-131886461D01*
X141323348Y-132034539D01*
X141028727Y-132244121D01*
X140780654Y-132507154D01*
X140588663Y-132813530D01*
X140460132Y-133151474D01*
X140400000Y-133508000D01*
X87791685Y-133508000D01*
X87795000Y-133491335D01*
X87795000Y-133208665D01*
X87739853Y-132931426D01*
X87631680Y-132670273D01*
X87474637Y-132435241D01*
X87274759Y-132235363D01*
X87039727Y-132078320D01*
X86778574Y-131970147D01*
X86501335Y-131915000D01*
X86218665Y-131915000D01*
X85941426Y-131970147D01*
X85680273Y-132078320D01*
X85445241Y-132235363D01*
X85245363Y-132435241D01*
X85088320Y-132670273D01*
X84980147Y-132931426D01*
X84925000Y-133208665D01*
X76327000Y-133208665D01*
X76327000Y-131695098D01*
X148745000Y-131695098D01*
X148745000Y-132164902D01*
X148836654Y-132625679D01*
X149016440Y-133059721D01*
X149277450Y-133450349D01*
X149609651Y-133782550D01*
X150000279Y-134043560D01*
X150434321Y-134223346D01*
X150895098Y-134315000D01*
X151364902Y-134315000D01*
X151825679Y-134223346D01*
X152259721Y-134043560D01*
X152650349Y-133782550D01*
X152982550Y-133450349D01*
X153076328Y-133310000D01*
X159647815Y-133310000D01*
X159676487Y-133601111D01*
X159761401Y-133881034D01*
X159899294Y-134139014D01*
X160084866Y-134365134D01*
X160310986Y-134550706D01*
X160568966Y-134688599D01*
X160848889Y-134773513D01*
X161067050Y-134795000D01*
X161512950Y-134795000D01*
X161731111Y-134773513D01*
X162011034Y-134688599D01*
X162269014Y-134550706D01*
X162495134Y-134365134D01*
X162680706Y-134139014D01*
X162818599Y-133881034D01*
X162903513Y-133601111D01*
X162932185Y-133310000D01*
X162903513Y-133018889D01*
X162818599Y-132738966D01*
X162680706Y-132480986D01*
X162499392Y-132260055D01*
X162534180Y-132249502D01*
X162644494Y-132190537D01*
X162741185Y-132111185D01*
X162820537Y-132014494D01*
X162879502Y-131904180D01*
X162915812Y-131784482D01*
X162928072Y-131660000D01*
X162925000Y-131095750D01*
X162766250Y-130937000D01*
X161417000Y-130937000D01*
X161417000Y-130957000D01*
X161163000Y-130957000D01*
X161163000Y-130937000D01*
X159813750Y-130937000D01*
X159655000Y-131095750D01*
X159651928Y-131660000D01*
X159664188Y-131784482D01*
X159700498Y-131904180D01*
X159759463Y-132014494D01*
X159838815Y-132111185D01*
X159935506Y-132190537D01*
X160045820Y-132249502D01*
X160080608Y-132260055D01*
X159899294Y-132480986D01*
X159761401Y-132738966D01*
X159676487Y-133018889D01*
X159647815Y-133310000D01*
X153076328Y-133310000D01*
X153243560Y-133059721D01*
X153423346Y-132625679D01*
X153515000Y-132164902D01*
X153515000Y-131695098D01*
X153423346Y-131234321D01*
X153243560Y-130800279D01*
X152982550Y-130409651D01*
X152650349Y-130077450D01*
X152474574Y-129960000D01*
X159651928Y-129960000D01*
X159655000Y-130524250D01*
X159813750Y-130683000D01*
X161163000Y-130683000D01*
X161163000Y-129483750D01*
X161417000Y-129483750D01*
X161417000Y-130683000D01*
X162766250Y-130683000D01*
X162925000Y-130524250D01*
X162928072Y-129960000D01*
X162915812Y-129835518D01*
X162879502Y-129715820D01*
X162820537Y-129605506D01*
X162741185Y-129508815D01*
X162644494Y-129429463D01*
X162534180Y-129370498D01*
X162414482Y-129334188D01*
X162290000Y-129321928D01*
X161575750Y-129325000D01*
X161417000Y-129483750D01*
X161163000Y-129483750D01*
X161004250Y-129325000D01*
X160290000Y-129321928D01*
X160165518Y-129334188D01*
X160045820Y-129370498D01*
X159935506Y-129429463D01*
X159838815Y-129508815D01*
X159759463Y-129605506D01*
X159700498Y-129715820D01*
X159664188Y-129835518D01*
X159651928Y-129960000D01*
X152474574Y-129960000D01*
X152259721Y-129816440D01*
X151825679Y-129636654D01*
X151364902Y-129545000D01*
X150895098Y-129545000D01*
X150434321Y-129636654D01*
X150000279Y-129816440D01*
X149609651Y-130077450D01*
X149277450Y-130409651D01*
X149016440Y-130800279D01*
X148836654Y-131234321D01*
X148745000Y-131695098D01*
X76327000Y-131695098D01*
X76327000Y-130390000D01*
X79641928Y-130390000D01*
X79654188Y-130514482D01*
X79690498Y-130634180D01*
X79749463Y-130744494D01*
X79828815Y-130841185D01*
X79925506Y-130920537D01*
X80035820Y-130979502D01*
X80155518Y-131015812D01*
X80280000Y-131028072D01*
X80994250Y-131025000D01*
X81153000Y-130866250D01*
X81153000Y-129667000D01*
X81407000Y-129667000D01*
X81407000Y-130866250D01*
X81565750Y-131025000D01*
X82280000Y-131028072D01*
X82404482Y-131015812D01*
X82524180Y-130979502D01*
X82634494Y-130920537D01*
X82731185Y-130841185D01*
X82810537Y-130744494D01*
X82869502Y-130634180D01*
X82905812Y-130514482D01*
X82918072Y-130390000D01*
X82915000Y-129825750D01*
X82756250Y-129667000D01*
X81407000Y-129667000D01*
X81153000Y-129667000D01*
X79803750Y-129667000D01*
X79645000Y-129825750D01*
X79641928Y-130390000D01*
X76327000Y-130390000D01*
X76327000Y-129524193D01*
X101195000Y-129524193D01*
X101195000Y-129875807D01*
X101263596Y-130220665D01*
X101398153Y-130545515D01*
X101593500Y-130837871D01*
X101842129Y-131086500D01*
X102134485Y-131281847D01*
X102459335Y-131416404D01*
X102804193Y-131485000D01*
X103155807Y-131485000D01*
X103500665Y-131416404D01*
X103825515Y-131281847D01*
X104117871Y-131086500D01*
X104366500Y-130837871D01*
X104561847Y-130545515D01*
X104696404Y-130220665D01*
X104765000Y-129875807D01*
X104765000Y-129524193D01*
X128165000Y-129524193D01*
X128165000Y-129875807D01*
X128233596Y-130220665D01*
X128368153Y-130545515D01*
X128563500Y-130837871D01*
X128812129Y-131086500D01*
X129104485Y-131281847D01*
X129429335Y-131416404D01*
X129774193Y-131485000D01*
X130125807Y-131485000D01*
X130470665Y-131416404D01*
X130795515Y-131281847D01*
X131087871Y-131086500D01*
X131336500Y-130837871D01*
X131531847Y-130545515D01*
X131666404Y-130220665D01*
X131735000Y-129875807D01*
X131735000Y-129524193D01*
X131666404Y-129179335D01*
X131531847Y-128854485D01*
X131336500Y-128562129D01*
X131087871Y-128313500D01*
X130795515Y-128118153D01*
X130470665Y-127983596D01*
X130125807Y-127915000D01*
X129774193Y-127915000D01*
X129429335Y-127983596D01*
X129104485Y-128118153D01*
X128812129Y-128313500D01*
X128563500Y-128562129D01*
X128368153Y-128854485D01*
X128233596Y-129179335D01*
X128165000Y-129524193D01*
X104765000Y-129524193D01*
X104696404Y-129179335D01*
X104561847Y-128854485D01*
X104366500Y-128562129D01*
X104117871Y-128313500D01*
X103825515Y-128118153D01*
X103500665Y-127983596D01*
X103155807Y-127915000D01*
X102804193Y-127915000D01*
X102459335Y-127983596D01*
X102134485Y-128118153D01*
X101842129Y-128313500D01*
X101593500Y-128562129D01*
X101398153Y-128854485D01*
X101263596Y-129179335D01*
X101195000Y-129524193D01*
X76327000Y-129524193D01*
X76327000Y-127040000D01*
X79637815Y-127040000D01*
X79666487Y-127331111D01*
X79751401Y-127611034D01*
X79889294Y-127869014D01*
X80070608Y-128089945D01*
X80035820Y-128100498D01*
X79925506Y-128159463D01*
X79828815Y-128238815D01*
X79749463Y-128335506D01*
X79690498Y-128445820D01*
X79654188Y-128565518D01*
X79641928Y-128690000D01*
X79645000Y-129254250D01*
X79803750Y-129413000D01*
X81153000Y-129413000D01*
X81153000Y-129393000D01*
X81407000Y-129393000D01*
X81407000Y-129413000D01*
X82756250Y-129413000D01*
X82915000Y-129254250D01*
X82918072Y-128690000D01*
X82905812Y-128565518D01*
X82869502Y-128445820D01*
X82810537Y-128335506D01*
X82731185Y-128238815D01*
X82634494Y-128159463D01*
X82524180Y-128100498D01*
X82489392Y-128089945D01*
X82670706Y-127869014D01*
X82808599Y-127611034D01*
X82893513Y-127331111D01*
X82922185Y-127040000D01*
X82893513Y-126748889D01*
X82808599Y-126468966D01*
X82670706Y-126210986D01*
X82485134Y-125984866D01*
X82259014Y-125799294D01*
X82001034Y-125661401D01*
X81761257Y-125588665D01*
X84925000Y-125588665D01*
X84925000Y-125871335D01*
X84980147Y-126148574D01*
X85088320Y-126409727D01*
X85245363Y-126644759D01*
X85445241Y-126844637D01*
X85680273Y-127001680D01*
X85941426Y-127109853D01*
X86218665Y-127165000D01*
X86501335Y-127165000D01*
X86778574Y-127109853D01*
X87039727Y-127001680D01*
X87274759Y-126844637D01*
X87474637Y-126644759D01*
X87631680Y-126409727D01*
X87739853Y-126148574D01*
X87795000Y-125871335D01*
X87795000Y-125588665D01*
X156045000Y-125588665D01*
X156045000Y-125871335D01*
X156100147Y-126148574D01*
X156208320Y-126409727D01*
X156365363Y-126644759D01*
X156565241Y-126844637D01*
X156800273Y-127001680D01*
X157061426Y-127109853D01*
X157338665Y-127165000D01*
X157621335Y-127165000D01*
X157898574Y-127109853D01*
X158159727Y-127001680D01*
X158394759Y-126844637D01*
X158594637Y-126644759D01*
X158751680Y-126409727D01*
X158859853Y-126148574D01*
X158915000Y-125871335D01*
X158915000Y-125588665D01*
X158859853Y-125311426D01*
X158751680Y-125050273D01*
X158594637Y-124815241D01*
X158394759Y-124615363D01*
X158159727Y-124458320D01*
X157898574Y-124350147D01*
X157621335Y-124295000D01*
X157338665Y-124295000D01*
X157061426Y-124350147D01*
X156800273Y-124458320D01*
X156565241Y-124615363D01*
X156365363Y-124815241D01*
X156208320Y-125050273D01*
X156100147Y-125311426D01*
X156045000Y-125588665D01*
X87795000Y-125588665D01*
X87739853Y-125311426D01*
X87631680Y-125050273D01*
X87474637Y-124815241D01*
X87274759Y-124615363D01*
X87039727Y-124458320D01*
X86778574Y-124350147D01*
X86501335Y-124295000D01*
X86218665Y-124295000D01*
X85941426Y-124350147D01*
X85680273Y-124458320D01*
X85445241Y-124615363D01*
X85245363Y-124815241D01*
X85088320Y-125050273D01*
X84980147Y-125311426D01*
X84925000Y-125588665D01*
X81761257Y-125588665D01*
X81721111Y-125576487D01*
X81502950Y-125555000D01*
X81057050Y-125555000D01*
X80838889Y-125576487D01*
X80558966Y-125661401D01*
X80300986Y-125799294D01*
X80074866Y-125984866D01*
X79889294Y-126210986D01*
X79751401Y-126468966D01*
X79666487Y-126748889D01*
X79637815Y-127040000D01*
X76327000Y-127040000D01*
X76327000Y-121778665D01*
X84925000Y-121778665D01*
X84925000Y-122061335D01*
X84980147Y-122338574D01*
X85088320Y-122599727D01*
X85245363Y-122834759D01*
X85445241Y-123034637D01*
X85680273Y-123191680D01*
X85941426Y-123299853D01*
X86218665Y-123355000D01*
X86501335Y-123355000D01*
X86778574Y-123299853D01*
X87039727Y-123191680D01*
X87274759Y-123034637D01*
X87474637Y-122834759D01*
X87631680Y-122599727D01*
X87739853Y-122338574D01*
X87795000Y-122061335D01*
X87795000Y-121778665D01*
X92545000Y-121778665D01*
X92545000Y-122061335D01*
X92600147Y-122338574D01*
X92708320Y-122599727D01*
X92865363Y-122834759D01*
X93065241Y-123034637D01*
X93300273Y-123191680D01*
X93561426Y-123299853D01*
X93838665Y-123355000D01*
X94121335Y-123355000D01*
X94398574Y-123299853D01*
X94659727Y-123191680D01*
X94894759Y-123034637D01*
X95094637Y-122834759D01*
X95251680Y-122599727D01*
X95359853Y-122338574D01*
X95415000Y-122061335D01*
X95415000Y-121778665D01*
X95359853Y-121501426D01*
X95251680Y-121240273D01*
X95094637Y-121005241D01*
X94894759Y-120805363D01*
X94659727Y-120648320D01*
X94398574Y-120540147D01*
X94240306Y-120508665D01*
X100165000Y-120508665D01*
X100165000Y-120791335D01*
X100220147Y-121068574D01*
X100328320Y-121329727D01*
X100485363Y-121564759D01*
X100685241Y-121764637D01*
X100920273Y-121921680D01*
X101181426Y-122029853D01*
X101458665Y-122085000D01*
X101741335Y-122085000D01*
X102018574Y-122029853D01*
X102279727Y-121921680D01*
X102514759Y-121764637D01*
X102714637Y-121564759D01*
X102871680Y-121329727D01*
X102979853Y-121068574D01*
X103035000Y-120791335D01*
X103035000Y-120508665D01*
X107785000Y-120508665D01*
X107785000Y-120791335D01*
X107840147Y-121068574D01*
X107948320Y-121329727D01*
X108105363Y-121564759D01*
X108305241Y-121764637D01*
X108540273Y-121921680D01*
X108801426Y-122029853D01*
X109078665Y-122085000D01*
X109361335Y-122085000D01*
X109638574Y-122029853D01*
X109899727Y-121921680D01*
X110113764Y-121778665D01*
X111595000Y-121778665D01*
X111595000Y-122061335D01*
X111650147Y-122338574D01*
X111758320Y-122599727D01*
X111915363Y-122834759D01*
X112115241Y-123034637D01*
X112350273Y-123191680D01*
X112611426Y-123299853D01*
X112888665Y-123355000D01*
X113171335Y-123355000D01*
X113448574Y-123299853D01*
X113709727Y-123191680D01*
X113944759Y-123034637D01*
X114144637Y-122834759D01*
X114301680Y-122599727D01*
X114409853Y-122338574D01*
X114465000Y-122061335D01*
X114465000Y-121778665D01*
X114409853Y-121501426D01*
X114301680Y-121240273D01*
X114144637Y-121005241D01*
X113944759Y-120805363D01*
X113744131Y-120671308D01*
X113771514Y-120656671D01*
X113813495Y-120513589D01*
X116725000Y-120513589D01*
X116725000Y-120786411D01*
X116778225Y-121053989D01*
X116882629Y-121306043D01*
X117034201Y-121532886D01*
X117227114Y-121725799D01*
X117453957Y-121877371D01*
X117706011Y-121981775D01*
X117973589Y-122035000D01*
X118246411Y-122035000D01*
X118513989Y-121981775D01*
X118766043Y-121877371D01*
X118992886Y-121725799D01*
X119185799Y-121532886D01*
X119337371Y-121306043D01*
X119441775Y-121053989D01*
X119495000Y-120786411D01*
X119495000Y-120513589D01*
X121725000Y-120513589D01*
X121725000Y-120786411D01*
X121778225Y-121053989D01*
X121882629Y-121306043D01*
X122034201Y-121532886D01*
X122227114Y-121725799D01*
X122453957Y-121877371D01*
X122706011Y-121981775D01*
X122973589Y-122035000D01*
X123246411Y-122035000D01*
X123513989Y-121981775D01*
X123766043Y-121877371D01*
X123913766Y-121778665D01*
X126835000Y-121778665D01*
X126835000Y-122061335D01*
X126890147Y-122338574D01*
X126998320Y-122599727D01*
X127155363Y-122834759D01*
X127355241Y-123034637D01*
X127590273Y-123191680D01*
X127851426Y-123299853D01*
X128128665Y-123355000D01*
X128411335Y-123355000D01*
X128688574Y-123299853D01*
X128949727Y-123191680D01*
X129184759Y-123034637D01*
X129384637Y-122834759D01*
X129541680Y-122599727D01*
X129649853Y-122338574D01*
X129705000Y-122061335D01*
X129705000Y-121778665D01*
X129649853Y-121501426D01*
X129541680Y-121240273D01*
X129384637Y-121005241D01*
X129184759Y-120805363D01*
X128984131Y-120671308D01*
X129011514Y-120656671D01*
X129083097Y-120412702D01*
X128270000Y-119599605D01*
X127456903Y-120412702D01*
X127528486Y-120656671D01*
X127557341Y-120670324D01*
X127355241Y-120805363D01*
X127155363Y-121005241D01*
X126998320Y-121240273D01*
X126890147Y-121501426D01*
X126835000Y-121778665D01*
X123913766Y-121778665D01*
X123992886Y-121725799D01*
X124185799Y-121532886D01*
X124337371Y-121306043D01*
X124441775Y-121053989D01*
X124495000Y-120786411D01*
X124495000Y-120513589D01*
X124441775Y-120246011D01*
X124337371Y-119993957D01*
X124185799Y-119767114D01*
X123992886Y-119574201D01*
X123867637Y-119490512D01*
X126829783Y-119490512D01*
X126871213Y-119770130D01*
X126966397Y-120036292D01*
X127033329Y-120161514D01*
X127277298Y-120233097D01*
X128090395Y-119420000D01*
X128449605Y-119420000D01*
X129262702Y-120233097D01*
X129506671Y-120161514D01*
X129627571Y-119906004D01*
X129641609Y-119850000D01*
X138261928Y-119850000D01*
X138261928Y-121450000D01*
X138274188Y-121574482D01*
X138310498Y-121694180D01*
X138369463Y-121804494D01*
X138448815Y-121901185D01*
X138545506Y-121980537D01*
X138655820Y-122039502D01*
X138775518Y-122075812D01*
X138900000Y-122088072D01*
X140500000Y-122088072D01*
X140624482Y-122075812D01*
X140744180Y-122039502D01*
X140854494Y-121980537D01*
X140951185Y-121901185D01*
X141030537Y-121804494D01*
X141089502Y-121694180D01*
X141118661Y-121598057D01*
X141285241Y-121764637D01*
X141520273Y-121921680D01*
X141781426Y-122029853D01*
X142058665Y-122085000D01*
X142341335Y-122085000D01*
X142618574Y-122029853D01*
X142879727Y-121921680D01*
X143114759Y-121764637D01*
X143182346Y-121697050D01*
X147105000Y-121697050D01*
X147105000Y-122142949D01*
X147126487Y-122361110D01*
X147211401Y-122641033D01*
X147349294Y-122899013D01*
X147534866Y-123125134D01*
X147760986Y-123310706D01*
X148018966Y-123448599D01*
X148298889Y-123533513D01*
X148590000Y-123562185D01*
X148881110Y-123533513D01*
X149161033Y-123448599D01*
X149419013Y-123310706D01*
X149645134Y-123125134D01*
X149697223Y-123061663D01*
X149751595Y-123163386D01*
X149862038Y-123297962D01*
X149996614Y-123408405D01*
X150150150Y-123490472D01*
X150316746Y-123541008D01*
X150490000Y-123558072D01*
X151690000Y-123558072D01*
X151863254Y-123541008D01*
X152029850Y-123490472D01*
X152183386Y-123408405D01*
X152317962Y-123297962D01*
X152428405Y-123163386D01*
X152510472Y-123009850D01*
X152561008Y-122843254D01*
X152578072Y-122670000D01*
X152578072Y-121170000D01*
X152561008Y-120996746D01*
X152510472Y-120830150D01*
X152428405Y-120676614D01*
X152317962Y-120542038D01*
X152183386Y-120431595D01*
X152029850Y-120349528D01*
X151863254Y-120298992D01*
X151690000Y-120281928D01*
X150490000Y-120281928D01*
X150316746Y-120298992D01*
X150150150Y-120349528D01*
X149996614Y-120431595D01*
X149862038Y-120542038D01*
X149751595Y-120676614D01*
X149697223Y-120778337D01*
X149645134Y-120714866D01*
X149419014Y-120529294D01*
X149161034Y-120391401D01*
X148881111Y-120306487D01*
X148590000Y-120277815D01*
X148298890Y-120306487D01*
X148018967Y-120391401D01*
X147760987Y-120529294D01*
X147534866Y-120714866D01*
X147349294Y-120940986D01*
X147211401Y-121198966D01*
X147126487Y-121478889D01*
X147105000Y-121697050D01*
X143182346Y-121697050D01*
X143314637Y-121564759D01*
X143471680Y-121329727D01*
X143579853Y-121068574D01*
X143635000Y-120791335D01*
X143635000Y-120508665D01*
X143579853Y-120231426D01*
X143471680Y-119970273D01*
X143314637Y-119735241D01*
X143114759Y-119535363D01*
X142879727Y-119378320D01*
X142618574Y-119270147D01*
X142341335Y-119215000D01*
X142058665Y-119215000D01*
X141781426Y-119270147D01*
X141520273Y-119378320D01*
X141285241Y-119535363D01*
X141118661Y-119701943D01*
X141089502Y-119605820D01*
X141030537Y-119495506D01*
X140951185Y-119398815D01*
X140854494Y-119319463D01*
X140744180Y-119260498D01*
X140624482Y-119224188D01*
X140500000Y-119211928D01*
X138900000Y-119211928D01*
X138775518Y-119224188D01*
X138655820Y-119260498D01*
X138545506Y-119319463D01*
X138448815Y-119398815D01*
X138369463Y-119495506D01*
X138310498Y-119605820D01*
X138274188Y-119725518D01*
X138261928Y-119850000D01*
X129641609Y-119850000D01*
X129696300Y-119631816D01*
X129710217Y-119349488D01*
X129668787Y-119069870D01*
X129573603Y-118803708D01*
X129506671Y-118678486D01*
X129262702Y-118606903D01*
X128449605Y-119420000D01*
X128090395Y-119420000D01*
X127277298Y-118606903D01*
X127033329Y-118678486D01*
X126912429Y-118933996D01*
X126843700Y-119208184D01*
X126829783Y-119490512D01*
X123867637Y-119490512D01*
X123766043Y-119422629D01*
X123513989Y-119318225D01*
X123246411Y-119265000D01*
X122973589Y-119265000D01*
X122706011Y-119318225D01*
X122453957Y-119422629D01*
X122227114Y-119574201D01*
X122034201Y-119767114D01*
X121882629Y-119993957D01*
X121778225Y-120246011D01*
X121725000Y-120513589D01*
X119495000Y-120513589D01*
X119441775Y-120246011D01*
X119337371Y-119993957D01*
X119185799Y-119767114D01*
X118992886Y-119574201D01*
X118766043Y-119422629D01*
X118513989Y-119318225D01*
X118246411Y-119265000D01*
X117973589Y-119265000D01*
X117706011Y-119318225D01*
X117453957Y-119422629D01*
X117227114Y-119574201D01*
X117034201Y-119767114D01*
X116882629Y-119993957D01*
X116778225Y-120246011D01*
X116725000Y-120513589D01*
X113813495Y-120513589D01*
X113843097Y-120412702D01*
X113030000Y-119599605D01*
X112216903Y-120412702D01*
X112288486Y-120656671D01*
X112317341Y-120670324D01*
X112115241Y-120805363D01*
X111915363Y-121005241D01*
X111758320Y-121240273D01*
X111650147Y-121501426D01*
X111595000Y-121778665D01*
X110113764Y-121778665D01*
X110134759Y-121764637D01*
X110334637Y-121564759D01*
X110491680Y-121329727D01*
X110599853Y-121068574D01*
X110655000Y-120791335D01*
X110655000Y-120508665D01*
X110599853Y-120231426D01*
X110491680Y-119970273D01*
X110334637Y-119735241D01*
X110134759Y-119535363D01*
X110067635Y-119490512D01*
X111589783Y-119490512D01*
X111631213Y-119770130D01*
X111726397Y-120036292D01*
X111793329Y-120161514D01*
X112037298Y-120233097D01*
X112850395Y-119420000D01*
X113209605Y-119420000D01*
X114022702Y-120233097D01*
X114266671Y-120161514D01*
X114387571Y-119906004D01*
X114456300Y-119631816D01*
X114470217Y-119349488D01*
X114428787Y-119069870D01*
X114333603Y-118803708D01*
X114266671Y-118678486D01*
X114022702Y-118606903D01*
X113209605Y-119420000D01*
X112850395Y-119420000D01*
X112037298Y-118606903D01*
X111793329Y-118678486D01*
X111672429Y-118933996D01*
X111603700Y-119208184D01*
X111589783Y-119490512D01*
X110067635Y-119490512D01*
X109899727Y-119378320D01*
X109638574Y-119270147D01*
X109361335Y-119215000D01*
X109078665Y-119215000D01*
X108801426Y-119270147D01*
X108540273Y-119378320D01*
X108305241Y-119535363D01*
X108105363Y-119735241D01*
X107948320Y-119970273D01*
X107840147Y-120231426D01*
X107785000Y-120508665D01*
X103035000Y-120508665D01*
X102979853Y-120231426D01*
X102871680Y-119970273D01*
X102714637Y-119735241D01*
X102514759Y-119535363D01*
X102279727Y-119378320D01*
X102018574Y-119270147D01*
X101741335Y-119215000D01*
X101458665Y-119215000D01*
X101181426Y-119270147D01*
X100920273Y-119378320D01*
X100685241Y-119535363D01*
X100485363Y-119735241D01*
X100328320Y-119970273D01*
X100220147Y-120231426D01*
X100165000Y-120508665D01*
X94240306Y-120508665D01*
X94121335Y-120485000D01*
X93838665Y-120485000D01*
X93561426Y-120540147D01*
X93300273Y-120648320D01*
X93065241Y-120805363D01*
X92865363Y-121005241D01*
X92708320Y-121240273D01*
X92600147Y-121501426D01*
X92545000Y-121778665D01*
X87795000Y-121778665D01*
X87739853Y-121501426D01*
X87631680Y-121240273D01*
X87474637Y-121005241D01*
X87274759Y-120805363D01*
X87039727Y-120648320D01*
X86778574Y-120540147D01*
X86501335Y-120485000D01*
X86218665Y-120485000D01*
X85941426Y-120540147D01*
X85680273Y-120648320D01*
X85445241Y-120805363D01*
X85245363Y-121005241D01*
X85088320Y-121240273D01*
X84980147Y-121501426D01*
X84925000Y-121778665D01*
X76327000Y-121778665D01*
X76327000Y-120190000D01*
X79641928Y-120190000D01*
X79654188Y-120314482D01*
X79690498Y-120434180D01*
X79749463Y-120544494D01*
X79828815Y-120641185D01*
X79925506Y-120720537D01*
X80035820Y-120779502D01*
X80155518Y-120815812D01*
X80280000Y-120828072D01*
X80994250Y-120825000D01*
X81153000Y-120666250D01*
X81153000Y-119467000D01*
X81407000Y-119467000D01*
X81407000Y-120666250D01*
X81565750Y-120825000D01*
X82280000Y-120828072D01*
X82404482Y-120815812D01*
X82524180Y-120779502D01*
X82634494Y-120720537D01*
X82731185Y-120641185D01*
X82810537Y-120544494D01*
X82869502Y-120434180D01*
X82905812Y-120314482D01*
X82918072Y-120190000D01*
X82915000Y-119625750D01*
X82756250Y-119467000D01*
X81407000Y-119467000D01*
X81153000Y-119467000D01*
X79803750Y-119467000D01*
X79645000Y-119625750D01*
X79641928Y-120190000D01*
X76327000Y-120190000D01*
X76327000Y-116840000D01*
X79637815Y-116840000D01*
X79666487Y-117131111D01*
X79751401Y-117411034D01*
X79889294Y-117669014D01*
X80070608Y-117889945D01*
X80035820Y-117900498D01*
X79925506Y-117959463D01*
X79828815Y-118038815D01*
X79749463Y-118135506D01*
X79690498Y-118245820D01*
X79654188Y-118365518D01*
X79641928Y-118490000D01*
X79645000Y-119054250D01*
X79803750Y-119213000D01*
X81153000Y-119213000D01*
X81153000Y-119193000D01*
X81407000Y-119193000D01*
X81407000Y-119213000D01*
X82756250Y-119213000D01*
X82915000Y-119054250D01*
X82918072Y-118490000D01*
X82911897Y-118427298D01*
X112216903Y-118427298D01*
X113030000Y-119240395D01*
X113843097Y-118427298D01*
X127456903Y-118427298D01*
X128270000Y-119240395D01*
X129083097Y-118427298D01*
X129011514Y-118183329D01*
X128756004Y-118062429D01*
X128481816Y-117993700D01*
X128199488Y-117979783D01*
X127919870Y-118021213D01*
X127653708Y-118116397D01*
X127528486Y-118183329D01*
X127456903Y-118427298D01*
X113843097Y-118427298D01*
X113771514Y-118183329D01*
X113516004Y-118062429D01*
X113241816Y-117993700D01*
X112959488Y-117979783D01*
X112679870Y-118021213D01*
X112413708Y-118116397D01*
X112288486Y-118183329D01*
X112216903Y-118427298D01*
X82911897Y-118427298D01*
X82905812Y-118365518D01*
X82869502Y-118245820D01*
X82810537Y-118135506D01*
X82731185Y-118038815D01*
X82645707Y-117968665D01*
X156045000Y-117968665D01*
X156045000Y-118251335D01*
X156100147Y-118528574D01*
X156208320Y-118789727D01*
X156365363Y-119024759D01*
X156565241Y-119224637D01*
X156800273Y-119381680D01*
X157061426Y-119489853D01*
X157338665Y-119545000D01*
X157621335Y-119545000D01*
X157898574Y-119489853D01*
X158159727Y-119381680D01*
X158394759Y-119224637D01*
X158594637Y-119024759D01*
X158751680Y-118789727D01*
X158859853Y-118528574D01*
X158915000Y-118251335D01*
X158915000Y-117968665D01*
X158859853Y-117691426D01*
X158751680Y-117430273D01*
X158594637Y-117195241D01*
X158394759Y-116995363D01*
X158159727Y-116838320D01*
X157898574Y-116730147D01*
X157621335Y-116675000D01*
X157338665Y-116675000D01*
X157061426Y-116730147D01*
X156800273Y-116838320D01*
X156565241Y-116995363D01*
X156365363Y-117195241D01*
X156208320Y-117430273D01*
X156100147Y-117691426D01*
X156045000Y-117968665D01*
X82645707Y-117968665D01*
X82634494Y-117959463D01*
X82524180Y-117900498D01*
X82489392Y-117889945D01*
X82670706Y-117669014D01*
X82808599Y-117411034D01*
X82893513Y-117131111D01*
X82922185Y-116840000D01*
X82893513Y-116548889D01*
X82808599Y-116268966D01*
X82670706Y-116010986D01*
X82485134Y-115784866D01*
X82259014Y-115599294D01*
X82001034Y-115461401D01*
X81893119Y-115428665D01*
X86195000Y-115428665D01*
X86195000Y-115711335D01*
X86250147Y-115988574D01*
X86358320Y-116249727D01*
X86515363Y-116484759D01*
X86715241Y-116684637D01*
X86950273Y-116841680D01*
X87211426Y-116949853D01*
X87488665Y-117005000D01*
X87771335Y-117005000D01*
X88048574Y-116949853D01*
X88309727Y-116841680D01*
X88544759Y-116684637D01*
X88744637Y-116484759D01*
X88901680Y-116249727D01*
X89009853Y-115988574D01*
X89065000Y-115711335D01*
X89065000Y-115428665D01*
X95085000Y-115428665D01*
X95085000Y-115711335D01*
X95140147Y-115988574D01*
X95248320Y-116249727D01*
X95405363Y-116484759D01*
X95605241Y-116684637D01*
X95840273Y-116841680D01*
X96101426Y-116949853D01*
X96378665Y-117005000D01*
X96661335Y-117005000D01*
X96938574Y-116949853D01*
X97199727Y-116841680D01*
X97434759Y-116684637D01*
X97634637Y-116484759D01*
X97791680Y-116249727D01*
X97899853Y-115988574D01*
X97955000Y-115711335D01*
X97955000Y-115428665D01*
X97899853Y-115151426D01*
X97791680Y-114890273D01*
X97711317Y-114770000D01*
X101431928Y-114770000D01*
X101431928Y-116370000D01*
X101444188Y-116494482D01*
X101480498Y-116614180D01*
X101539463Y-116724494D01*
X101618815Y-116821185D01*
X101715506Y-116900537D01*
X101825820Y-116959502D01*
X101945518Y-116995812D01*
X102070000Y-117008072D01*
X103670000Y-117008072D01*
X103794482Y-116995812D01*
X103914180Y-116959502D01*
X104024494Y-116900537D01*
X104121185Y-116821185D01*
X104200537Y-116724494D01*
X104259502Y-116614180D01*
X104295812Y-116494482D01*
X104296643Y-116486039D01*
X104495241Y-116684637D01*
X104730273Y-116841680D01*
X104991426Y-116949853D01*
X105268665Y-117005000D01*
X105551335Y-117005000D01*
X105828574Y-116949853D01*
X106089727Y-116841680D01*
X106324759Y-116684637D01*
X106524637Y-116484759D01*
X106680000Y-116252241D01*
X106835363Y-116484759D01*
X107035241Y-116684637D01*
X107270273Y-116841680D01*
X107531426Y-116949853D01*
X107808665Y-117005000D01*
X108091335Y-117005000D01*
X108368574Y-116949853D01*
X108629727Y-116841680D01*
X108864759Y-116684637D01*
X109064637Y-116484759D01*
X109220000Y-116252241D01*
X109375363Y-116484759D01*
X109575241Y-116684637D01*
X109810273Y-116841680D01*
X110071426Y-116949853D01*
X110348665Y-117005000D01*
X110631335Y-117005000D01*
X110908574Y-116949853D01*
X111169727Y-116841680D01*
X111404759Y-116684637D01*
X111604637Y-116484759D01*
X111760000Y-116252241D01*
X111915363Y-116484759D01*
X112115241Y-116684637D01*
X112350273Y-116841680D01*
X112611426Y-116949853D01*
X112888665Y-117005000D01*
X113171335Y-117005000D01*
X113448574Y-116949853D01*
X113709727Y-116841680D01*
X113944759Y-116684637D01*
X114144637Y-116484759D01*
X114300000Y-116252241D01*
X114455363Y-116484759D01*
X114655241Y-116684637D01*
X114890273Y-116841680D01*
X115151426Y-116949853D01*
X115428665Y-117005000D01*
X115711335Y-117005000D01*
X115988574Y-116949853D01*
X116249727Y-116841680D01*
X116484759Y-116684637D01*
X116684637Y-116484759D01*
X116840000Y-116252241D01*
X116995363Y-116484759D01*
X117195241Y-116684637D01*
X117430273Y-116841680D01*
X117691426Y-116949853D01*
X117968665Y-117005000D01*
X118251335Y-117005000D01*
X118528574Y-116949853D01*
X118789727Y-116841680D01*
X119024759Y-116684637D01*
X119224637Y-116484759D01*
X119381680Y-116249727D01*
X119386067Y-116239135D01*
X119497615Y-116425131D01*
X119686586Y-116633519D01*
X119912580Y-116801037D01*
X120166913Y-116921246D01*
X120300961Y-116961904D01*
X120523000Y-116839915D01*
X120523000Y-115697000D01*
X120503000Y-115697000D01*
X120503000Y-115443000D01*
X120523000Y-115443000D01*
X120523000Y-114300085D01*
X120777000Y-114300085D01*
X120777000Y-115443000D01*
X120797000Y-115443000D01*
X120797000Y-115697000D01*
X120777000Y-115697000D01*
X120777000Y-116839915D01*
X120999039Y-116961904D01*
X121133087Y-116921246D01*
X121387420Y-116801037D01*
X121613414Y-116633519D01*
X121802385Y-116425131D01*
X121913933Y-116239135D01*
X121918320Y-116249727D01*
X122075363Y-116484759D01*
X122275241Y-116684637D01*
X122510273Y-116841680D01*
X122771426Y-116949853D01*
X123048665Y-117005000D01*
X123331335Y-117005000D01*
X123608574Y-116949853D01*
X123869727Y-116841680D01*
X124104759Y-116684637D01*
X124304637Y-116484759D01*
X124460000Y-116252241D01*
X124615363Y-116484759D01*
X124815241Y-116684637D01*
X125050273Y-116841680D01*
X125311426Y-116949853D01*
X125588665Y-117005000D01*
X125871335Y-117005000D01*
X126148574Y-116949853D01*
X126409727Y-116841680D01*
X126644759Y-116684637D01*
X126844637Y-116484759D01*
X127000000Y-116252241D01*
X127155363Y-116484759D01*
X127355241Y-116684637D01*
X127590273Y-116841680D01*
X127851426Y-116949853D01*
X128128665Y-117005000D01*
X128411335Y-117005000D01*
X128688574Y-116949853D01*
X128949727Y-116841680D01*
X129184759Y-116684637D01*
X129384637Y-116484759D01*
X129540000Y-116252241D01*
X129695363Y-116484759D01*
X129895241Y-116684637D01*
X130130273Y-116841680D01*
X130391426Y-116949853D01*
X130668665Y-117005000D01*
X130951335Y-117005000D01*
X131228574Y-116949853D01*
X131489727Y-116841680D01*
X131724759Y-116684637D01*
X131924637Y-116484759D01*
X132080000Y-116252241D01*
X132235363Y-116484759D01*
X132435241Y-116684637D01*
X132670273Y-116841680D01*
X132931426Y-116949853D01*
X133208665Y-117005000D01*
X133491335Y-117005000D01*
X133768574Y-116949853D01*
X134029727Y-116841680D01*
X134264759Y-116684637D01*
X134464637Y-116484759D01*
X134620000Y-116252241D01*
X134775363Y-116484759D01*
X134975241Y-116684637D01*
X135210273Y-116841680D01*
X135471426Y-116949853D01*
X135748665Y-117005000D01*
X136031335Y-117005000D01*
X136308574Y-116949853D01*
X136569727Y-116841680D01*
X136804759Y-116684637D01*
X137004637Y-116484759D01*
X137161680Y-116249727D01*
X137269853Y-115988574D01*
X137325000Y-115711335D01*
X137325000Y-115428665D01*
X137269853Y-115151426D01*
X137161680Y-114890273D01*
X137004637Y-114655241D01*
X136804759Y-114455363D01*
X136569727Y-114298320D01*
X136308574Y-114190147D01*
X136031335Y-114135000D01*
X135748665Y-114135000D01*
X135471426Y-114190147D01*
X135210273Y-114298320D01*
X134975241Y-114455363D01*
X134775363Y-114655241D01*
X134620000Y-114887759D01*
X134464637Y-114655241D01*
X134264759Y-114455363D01*
X134029727Y-114298320D01*
X133768574Y-114190147D01*
X133491335Y-114135000D01*
X133208665Y-114135000D01*
X132931426Y-114190147D01*
X132670273Y-114298320D01*
X132435241Y-114455363D01*
X132235363Y-114655241D01*
X132080000Y-114887759D01*
X131924637Y-114655241D01*
X131724759Y-114455363D01*
X131489727Y-114298320D01*
X131228574Y-114190147D01*
X130951335Y-114135000D01*
X130668665Y-114135000D01*
X130391426Y-114190147D01*
X130130273Y-114298320D01*
X129895241Y-114455363D01*
X129695363Y-114655241D01*
X129540000Y-114887759D01*
X129384637Y-114655241D01*
X129184759Y-114455363D01*
X128949727Y-114298320D01*
X128688574Y-114190147D01*
X128411335Y-114135000D01*
X128128665Y-114135000D01*
X127851426Y-114190147D01*
X127590273Y-114298320D01*
X127355241Y-114455363D01*
X127155363Y-114655241D01*
X127000000Y-114887759D01*
X126844637Y-114655241D01*
X126644759Y-114455363D01*
X126409727Y-114298320D01*
X126148574Y-114190147D01*
X125871335Y-114135000D01*
X125588665Y-114135000D01*
X125311426Y-114190147D01*
X125050273Y-114298320D01*
X124815241Y-114455363D01*
X124615363Y-114655241D01*
X124460000Y-114887759D01*
X124304637Y-114655241D01*
X124104759Y-114455363D01*
X123869727Y-114298320D01*
X123608574Y-114190147D01*
X123331335Y-114135000D01*
X123048665Y-114135000D01*
X122771426Y-114190147D01*
X122510273Y-114298320D01*
X122275241Y-114455363D01*
X122075363Y-114655241D01*
X121918320Y-114890273D01*
X121913933Y-114900865D01*
X121802385Y-114714869D01*
X121613414Y-114506481D01*
X121387420Y-114338963D01*
X121133087Y-114218754D01*
X120999039Y-114178096D01*
X120777000Y-114300085D01*
X120523000Y-114300085D01*
X120300961Y-114178096D01*
X120166913Y-114218754D01*
X119912580Y-114338963D01*
X119686586Y-114506481D01*
X119497615Y-114714869D01*
X119386067Y-114900865D01*
X119381680Y-114890273D01*
X119224637Y-114655241D01*
X119024759Y-114455363D01*
X118789727Y-114298320D01*
X118528574Y-114190147D01*
X118251335Y-114135000D01*
X117968665Y-114135000D01*
X117691426Y-114190147D01*
X117430273Y-114298320D01*
X117195241Y-114455363D01*
X116995363Y-114655241D01*
X116840000Y-114887759D01*
X116684637Y-114655241D01*
X116484759Y-114455363D01*
X116249727Y-114298320D01*
X115988574Y-114190147D01*
X115711335Y-114135000D01*
X115428665Y-114135000D01*
X115151426Y-114190147D01*
X114890273Y-114298320D01*
X114655241Y-114455363D01*
X114455363Y-114655241D01*
X114300000Y-114887759D01*
X114144637Y-114655241D01*
X113944759Y-114455363D01*
X113709727Y-114298320D01*
X113448574Y-114190147D01*
X113171335Y-114135000D01*
X112888665Y-114135000D01*
X112611426Y-114190147D01*
X112350273Y-114298320D01*
X112115241Y-114455363D01*
X111915363Y-114655241D01*
X111760000Y-114887759D01*
X111604637Y-114655241D01*
X111404759Y-114455363D01*
X111169727Y-114298320D01*
X110908574Y-114190147D01*
X110631335Y-114135000D01*
X110348665Y-114135000D01*
X110071426Y-114190147D01*
X109810273Y-114298320D01*
X109575241Y-114455363D01*
X109375363Y-114655241D01*
X109220000Y-114887759D01*
X109064637Y-114655241D01*
X108864759Y-114455363D01*
X108629727Y-114298320D01*
X108368574Y-114190147D01*
X108091335Y-114135000D01*
X107808665Y-114135000D01*
X107531426Y-114190147D01*
X107270273Y-114298320D01*
X107035241Y-114455363D01*
X106835363Y-114655241D01*
X106680000Y-114887759D01*
X106524637Y-114655241D01*
X106324759Y-114455363D01*
X106089727Y-114298320D01*
X105828574Y-114190147D01*
X105551335Y-114135000D01*
X105268665Y-114135000D01*
X104991426Y-114190147D01*
X104730273Y-114298320D01*
X104495241Y-114455363D01*
X104296643Y-114653961D01*
X104295812Y-114645518D01*
X104259502Y-114525820D01*
X104200537Y-114415506D01*
X104121185Y-114318815D01*
X104024494Y-114239463D01*
X103914180Y-114180498D01*
X103794482Y-114144188D01*
X103670000Y-114131928D01*
X102070000Y-114131928D01*
X101945518Y-114144188D01*
X101825820Y-114180498D01*
X101715506Y-114239463D01*
X101618815Y-114318815D01*
X101539463Y-114415506D01*
X101480498Y-114525820D01*
X101444188Y-114645518D01*
X101431928Y-114770000D01*
X97711317Y-114770000D01*
X97634637Y-114655241D01*
X97434759Y-114455363D01*
X97199727Y-114298320D01*
X96938574Y-114190147D01*
X96661335Y-114135000D01*
X96378665Y-114135000D01*
X96101426Y-114190147D01*
X95840273Y-114298320D01*
X95605241Y-114455363D01*
X95405363Y-114655241D01*
X95248320Y-114890273D01*
X95140147Y-115151426D01*
X95085000Y-115428665D01*
X89065000Y-115428665D01*
X89009853Y-115151426D01*
X88901680Y-114890273D01*
X88744637Y-114655241D01*
X88544759Y-114455363D01*
X88309727Y-114298320D01*
X88048574Y-114190147D01*
X87771335Y-114135000D01*
X87488665Y-114135000D01*
X87211426Y-114190147D01*
X86950273Y-114298320D01*
X86715241Y-114455363D01*
X86515363Y-114655241D01*
X86358320Y-114890273D01*
X86250147Y-115151426D01*
X86195000Y-115428665D01*
X81893119Y-115428665D01*
X81721111Y-115376487D01*
X81502950Y-115355000D01*
X81057050Y-115355000D01*
X80838889Y-115376487D01*
X80558966Y-115461401D01*
X80300986Y-115599294D01*
X80074866Y-115784866D01*
X79889294Y-116010986D01*
X79751401Y-116268966D01*
X79666487Y-116548889D01*
X79637815Y-116840000D01*
X76327000Y-116840000D01*
X76327000Y-113300000D01*
X140649428Y-113300000D01*
X140649428Y-115300000D01*
X140661688Y-115424482D01*
X140697998Y-115544180D01*
X140756963Y-115654494D01*
X140836315Y-115751185D01*
X140933006Y-115830537D01*
X141043320Y-115889502D01*
X141163018Y-115925812D01*
X141287500Y-115938072D01*
X143192500Y-115938072D01*
X143316982Y-115925812D01*
X143436680Y-115889502D01*
X143546994Y-115830537D01*
X143643685Y-115751185D01*
X143723037Y-115654494D01*
X143767905Y-115570553D01*
X143893766Y-115673845D01*
X144169552Y-115821255D01*
X144468797Y-115912030D01*
X144780000Y-115942681D01*
X145091204Y-115912030D01*
X145390449Y-115821255D01*
X145666235Y-115673845D01*
X145907963Y-115475463D01*
X146055162Y-115296100D01*
X146210563Y-115481315D01*
X146453077Y-115675969D01*
X146728906Y-115819571D01*
X146947020Y-115890563D01*
X147193000Y-115770594D01*
X147193000Y-114427000D01*
X147447000Y-114427000D01*
X147447000Y-115770594D01*
X147692980Y-115890563D01*
X147911094Y-115819571D01*
X148186923Y-115675969D01*
X148429437Y-115481315D01*
X148629316Y-115243089D01*
X148778879Y-114970446D01*
X148872378Y-114673863D01*
X148745570Y-114427000D01*
X147447000Y-114427000D01*
X147193000Y-114427000D01*
X147173000Y-114427000D01*
X147173000Y-114173000D01*
X147193000Y-114173000D01*
X147193000Y-112829406D01*
X147447000Y-112829406D01*
X147447000Y-114173000D01*
X148745570Y-114173000D01*
X148872378Y-113926137D01*
X148778879Y-113629554D01*
X148629316Y-113356911D01*
X148429437Y-113118685D01*
X148186923Y-112924031D01*
X148118993Y-112888665D01*
X150965000Y-112888665D01*
X150965000Y-113171335D01*
X151020147Y-113448574D01*
X151128320Y-113709727D01*
X151285363Y-113944759D01*
X151485241Y-114144637D01*
X151720273Y-114301680D01*
X151981426Y-114409853D01*
X152258665Y-114465000D01*
X152541335Y-114465000D01*
X152818574Y-114409853D01*
X153079727Y-114301680D01*
X153314759Y-114144637D01*
X153514637Y-113944759D01*
X153671680Y-113709727D01*
X153779853Y-113448574D01*
X153835000Y-113171335D01*
X153835000Y-112888665D01*
X158585000Y-112888665D01*
X158585000Y-113171335D01*
X158640147Y-113448574D01*
X158748320Y-113709727D01*
X158905363Y-113944759D01*
X159105241Y-114144637D01*
X159340273Y-114301680D01*
X159601426Y-114409853D01*
X159878665Y-114465000D01*
X160161335Y-114465000D01*
X160438574Y-114409853D01*
X160699727Y-114301680D01*
X160934759Y-114144637D01*
X161134637Y-113944759D01*
X161291680Y-113709727D01*
X161399853Y-113448574D01*
X161455000Y-113171335D01*
X161455000Y-112888665D01*
X161399853Y-112611426D01*
X161291680Y-112350273D01*
X161134637Y-112115241D01*
X160934759Y-111915363D01*
X160699727Y-111758320D01*
X160438574Y-111650147D01*
X160161335Y-111595000D01*
X159878665Y-111595000D01*
X159601426Y-111650147D01*
X159340273Y-111758320D01*
X159105241Y-111915363D01*
X158905363Y-112115241D01*
X158748320Y-112350273D01*
X158640147Y-112611426D01*
X158585000Y-112888665D01*
X153835000Y-112888665D01*
X153779853Y-112611426D01*
X153671680Y-112350273D01*
X153514637Y-112115241D01*
X153314759Y-111915363D01*
X153079727Y-111758320D01*
X152818574Y-111650147D01*
X152541335Y-111595000D01*
X152258665Y-111595000D01*
X151981426Y-111650147D01*
X151720273Y-111758320D01*
X151485241Y-111915363D01*
X151285363Y-112115241D01*
X151128320Y-112350273D01*
X151020147Y-112611426D01*
X150965000Y-112888665D01*
X148118993Y-112888665D01*
X147911094Y-112780429D01*
X147692980Y-112709437D01*
X147447000Y-112829406D01*
X147193000Y-112829406D01*
X146947020Y-112709437D01*
X146728906Y-112780429D01*
X146453077Y-112924031D01*
X146210563Y-113118685D01*
X146055163Y-113303899D01*
X145907963Y-113124537D01*
X145666234Y-112926155D01*
X145390448Y-112778745D01*
X145091203Y-112687970D01*
X144780000Y-112657319D01*
X144468796Y-112687970D01*
X144169551Y-112778745D01*
X143893765Y-112926155D01*
X143767905Y-113029446D01*
X143723037Y-112945506D01*
X143643685Y-112848815D01*
X143546994Y-112769463D01*
X143436680Y-112710498D01*
X143316982Y-112674188D01*
X143192500Y-112661928D01*
X141287500Y-112661928D01*
X141163018Y-112674188D01*
X141043320Y-112710498D01*
X140933006Y-112769463D01*
X140836315Y-112848815D01*
X140756963Y-112945506D01*
X140697998Y-113055820D01*
X140661688Y-113175518D01*
X140649428Y-113300000D01*
X76327000Y-113300000D01*
X76327000Y-107808665D01*
X86195000Y-107808665D01*
X86195000Y-108091335D01*
X86250147Y-108368574D01*
X86358320Y-108629727D01*
X86515363Y-108864759D01*
X86715241Y-109064637D01*
X86950273Y-109221680D01*
X87211426Y-109329853D01*
X87488665Y-109385000D01*
X87771335Y-109385000D01*
X88048574Y-109329853D01*
X88309727Y-109221680D01*
X88544759Y-109064637D01*
X88744637Y-108864759D01*
X88901680Y-108629727D01*
X89009853Y-108368574D01*
X89065000Y-108091335D01*
X89065000Y-107808665D01*
X95085000Y-107808665D01*
X95085000Y-108091335D01*
X95140147Y-108368574D01*
X95248320Y-108629727D01*
X95405363Y-108864759D01*
X95605241Y-109064637D01*
X95840273Y-109221680D01*
X96101426Y-109329853D01*
X96378665Y-109385000D01*
X96661335Y-109385000D01*
X96938574Y-109329853D01*
X97199727Y-109221680D01*
X97434759Y-109064637D01*
X97634637Y-108864759D01*
X97791680Y-108629727D01*
X97899853Y-108368574D01*
X97955000Y-108091335D01*
X97955000Y-107808665D01*
X101435000Y-107808665D01*
X101435000Y-108091335D01*
X101490147Y-108368574D01*
X101598320Y-108629727D01*
X101755363Y-108864759D01*
X101955241Y-109064637D01*
X102190273Y-109221680D01*
X102451426Y-109329853D01*
X102728665Y-109385000D01*
X103011335Y-109385000D01*
X103288574Y-109329853D01*
X103549727Y-109221680D01*
X103784759Y-109064637D01*
X103984637Y-108864759D01*
X104140000Y-108632241D01*
X104295363Y-108864759D01*
X104495241Y-109064637D01*
X104730273Y-109221680D01*
X104991426Y-109329853D01*
X105268665Y-109385000D01*
X105551335Y-109385000D01*
X105828574Y-109329853D01*
X106089727Y-109221680D01*
X106324759Y-109064637D01*
X106524637Y-108864759D01*
X106680000Y-108632241D01*
X106835363Y-108864759D01*
X107035241Y-109064637D01*
X107270273Y-109221680D01*
X107531426Y-109329853D01*
X107808665Y-109385000D01*
X108091335Y-109385000D01*
X108368574Y-109329853D01*
X108629727Y-109221680D01*
X108864759Y-109064637D01*
X109064637Y-108864759D01*
X109220000Y-108632241D01*
X109375363Y-108864759D01*
X109575241Y-109064637D01*
X109810273Y-109221680D01*
X110071426Y-109329853D01*
X110348665Y-109385000D01*
X110631335Y-109385000D01*
X110908574Y-109329853D01*
X111169727Y-109221680D01*
X111404759Y-109064637D01*
X111604637Y-108864759D01*
X111760000Y-108632241D01*
X111915363Y-108864759D01*
X112115241Y-109064637D01*
X112350273Y-109221680D01*
X112611426Y-109329853D01*
X112888665Y-109385000D01*
X113171335Y-109385000D01*
X113448574Y-109329853D01*
X113709727Y-109221680D01*
X113944759Y-109064637D01*
X114144637Y-108864759D01*
X114300000Y-108632241D01*
X114455363Y-108864759D01*
X114655241Y-109064637D01*
X114890273Y-109221680D01*
X115151426Y-109329853D01*
X115428665Y-109385000D01*
X115711335Y-109385000D01*
X115988574Y-109329853D01*
X116249727Y-109221680D01*
X116484759Y-109064637D01*
X116684637Y-108864759D01*
X116841680Y-108629727D01*
X116846067Y-108619135D01*
X116957615Y-108805131D01*
X117146586Y-109013519D01*
X117372580Y-109181037D01*
X117626913Y-109301246D01*
X117760961Y-109341904D01*
X117983000Y-109219915D01*
X117983000Y-108077000D01*
X117963000Y-108077000D01*
X117963000Y-107823000D01*
X117983000Y-107823000D01*
X117983000Y-106680085D01*
X118237000Y-106680085D01*
X118237000Y-107823000D01*
X118257000Y-107823000D01*
X118257000Y-108077000D01*
X118237000Y-108077000D01*
X118237000Y-109219915D01*
X118459039Y-109341904D01*
X118593087Y-109301246D01*
X118847420Y-109181037D01*
X119073414Y-109013519D01*
X119262385Y-108805131D01*
X119373933Y-108619135D01*
X119378320Y-108629727D01*
X119535363Y-108864759D01*
X119735241Y-109064637D01*
X119970273Y-109221680D01*
X120231426Y-109329853D01*
X120508665Y-109385000D01*
X120791335Y-109385000D01*
X121068574Y-109329853D01*
X121329727Y-109221680D01*
X121564759Y-109064637D01*
X121764637Y-108864759D01*
X121920000Y-108632241D01*
X122075363Y-108864759D01*
X122275241Y-109064637D01*
X122510273Y-109221680D01*
X122771426Y-109329853D01*
X123048665Y-109385000D01*
X123331335Y-109385000D01*
X123608574Y-109329853D01*
X123869727Y-109221680D01*
X124104759Y-109064637D01*
X124304637Y-108864759D01*
X124460000Y-108632241D01*
X124615363Y-108864759D01*
X124815241Y-109064637D01*
X125050273Y-109221680D01*
X125311426Y-109329853D01*
X125588665Y-109385000D01*
X125871335Y-109385000D01*
X126148574Y-109329853D01*
X126409727Y-109221680D01*
X126644759Y-109064637D01*
X126844637Y-108864759D01*
X127000000Y-108632241D01*
X127155363Y-108864759D01*
X127355241Y-109064637D01*
X127590273Y-109221680D01*
X127851426Y-109329853D01*
X128128665Y-109385000D01*
X128411335Y-109385000D01*
X128688574Y-109329853D01*
X128949727Y-109221680D01*
X129184759Y-109064637D01*
X129384637Y-108864759D01*
X129540000Y-108632241D01*
X129695363Y-108864759D01*
X129895241Y-109064637D01*
X130130273Y-109221680D01*
X130391426Y-109329853D01*
X130668665Y-109385000D01*
X130951335Y-109385000D01*
X131228574Y-109329853D01*
X131489727Y-109221680D01*
X131724759Y-109064637D01*
X131924637Y-108864759D01*
X132080000Y-108632241D01*
X132235363Y-108864759D01*
X132435241Y-109064637D01*
X132670273Y-109221680D01*
X132931426Y-109329853D01*
X133208665Y-109385000D01*
X133491335Y-109385000D01*
X133768574Y-109329853D01*
X134029727Y-109221680D01*
X134264759Y-109064637D01*
X134464637Y-108864759D01*
X134620000Y-108632241D01*
X134775363Y-108864759D01*
X134975241Y-109064637D01*
X135210273Y-109221680D01*
X135471426Y-109329853D01*
X135748665Y-109385000D01*
X136031335Y-109385000D01*
X136308574Y-109329853D01*
X136569727Y-109221680D01*
X136804759Y-109064637D01*
X137004637Y-108864759D01*
X137161680Y-108629727D01*
X137269853Y-108368574D01*
X137325000Y-108091335D01*
X137325000Y-107808665D01*
X139535000Y-107808665D01*
X139535000Y-108091335D01*
X139590147Y-108368574D01*
X139698320Y-108629727D01*
X139855363Y-108864759D01*
X140055241Y-109064637D01*
X140290273Y-109221680D01*
X140551426Y-109329853D01*
X140828665Y-109385000D01*
X141111335Y-109385000D01*
X141388574Y-109329853D01*
X141649727Y-109221680D01*
X141884759Y-109064637D01*
X142084637Y-108864759D01*
X142241680Y-108629727D01*
X142349853Y-108368574D01*
X142405000Y-108091335D01*
X142405000Y-107808665D01*
X147155000Y-107808665D01*
X147155000Y-108091335D01*
X147210147Y-108368574D01*
X147318320Y-108629727D01*
X147475363Y-108864759D01*
X147675241Y-109064637D01*
X147910273Y-109221680D01*
X148171426Y-109329853D01*
X148448665Y-109385000D01*
X148731335Y-109385000D01*
X149008574Y-109329853D01*
X149269727Y-109221680D01*
X149483764Y-109078665D01*
X150965000Y-109078665D01*
X150965000Y-109361335D01*
X151020147Y-109638574D01*
X151128320Y-109899727D01*
X151285363Y-110134759D01*
X151485241Y-110334637D01*
X151720273Y-110491680D01*
X151981426Y-110599853D01*
X152258665Y-110655000D01*
X152541335Y-110655000D01*
X152818574Y-110599853D01*
X153079727Y-110491680D01*
X153314759Y-110334637D01*
X153514637Y-110134759D01*
X153671680Y-109899727D01*
X153779853Y-109638574D01*
X153835000Y-109361335D01*
X153835000Y-109078665D01*
X158585000Y-109078665D01*
X158585000Y-109361335D01*
X158640147Y-109638574D01*
X158748320Y-109899727D01*
X158905363Y-110134759D01*
X159105241Y-110334637D01*
X159340273Y-110491680D01*
X159601426Y-110599853D01*
X159878665Y-110655000D01*
X160161335Y-110655000D01*
X160438574Y-110599853D01*
X160699727Y-110491680D01*
X160934759Y-110334637D01*
X161134637Y-110134759D01*
X161291680Y-109899727D01*
X161399853Y-109638574D01*
X161455000Y-109361335D01*
X161455000Y-109078665D01*
X161399853Y-108801426D01*
X161291680Y-108540273D01*
X161134637Y-108305241D01*
X160934759Y-108105363D01*
X160699727Y-107948320D01*
X160438574Y-107840147D01*
X160161335Y-107785000D01*
X159878665Y-107785000D01*
X159601426Y-107840147D01*
X159340273Y-107948320D01*
X159105241Y-108105363D01*
X158905363Y-108305241D01*
X158748320Y-108540273D01*
X158640147Y-108801426D01*
X158585000Y-109078665D01*
X153835000Y-109078665D01*
X153779853Y-108801426D01*
X153671680Y-108540273D01*
X153514637Y-108305241D01*
X153314759Y-108105363D01*
X153079727Y-107948320D01*
X152818574Y-107840147D01*
X152541335Y-107785000D01*
X152258665Y-107785000D01*
X151981426Y-107840147D01*
X151720273Y-107948320D01*
X151485241Y-108105363D01*
X151285363Y-108305241D01*
X151128320Y-108540273D01*
X151020147Y-108801426D01*
X150965000Y-109078665D01*
X149483764Y-109078665D01*
X149504759Y-109064637D01*
X149704637Y-108864759D01*
X149861680Y-108629727D01*
X149969853Y-108368574D01*
X150025000Y-108091335D01*
X150025000Y-107808665D01*
X149969853Y-107531426D01*
X149861680Y-107270273D01*
X149704637Y-107035241D01*
X149504759Y-106835363D01*
X149269727Y-106678320D01*
X149008574Y-106570147D01*
X148731335Y-106515000D01*
X148448665Y-106515000D01*
X148171426Y-106570147D01*
X147910273Y-106678320D01*
X147675241Y-106835363D01*
X147475363Y-107035241D01*
X147318320Y-107270273D01*
X147210147Y-107531426D01*
X147155000Y-107808665D01*
X142405000Y-107808665D01*
X142349853Y-107531426D01*
X142241680Y-107270273D01*
X142084637Y-107035241D01*
X141884759Y-106835363D01*
X141649727Y-106678320D01*
X141388574Y-106570147D01*
X141111335Y-106515000D01*
X140828665Y-106515000D01*
X140551426Y-106570147D01*
X140290273Y-106678320D01*
X140055241Y-106835363D01*
X139855363Y-107035241D01*
X139698320Y-107270273D01*
X139590147Y-107531426D01*
X139535000Y-107808665D01*
X137325000Y-107808665D01*
X137269853Y-107531426D01*
X137161680Y-107270273D01*
X137004637Y-107035241D01*
X136804759Y-106835363D01*
X136569727Y-106678320D01*
X136308574Y-106570147D01*
X136031335Y-106515000D01*
X135748665Y-106515000D01*
X135471426Y-106570147D01*
X135210273Y-106678320D01*
X134975241Y-106835363D01*
X134775363Y-107035241D01*
X134620000Y-107267759D01*
X134464637Y-107035241D01*
X134264759Y-106835363D01*
X134029727Y-106678320D01*
X133768574Y-106570147D01*
X133491335Y-106515000D01*
X133208665Y-106515000D01*
X132931426Y-106570147D01*
X132670273Y-106678320D01*
X132435241Y-106835363D01*
X132235363Y-107035241D01*
X132080000Y-107267759D01*
X131924637Y-107035241D01*
X131724759Y-106835363D01*
X131489727Y-106678320D01*
X131228574Y-106570147D01*
X130951335Y-106515000D01*
X130668665Y-106515000D01*
X130391426Y-106570147D01*
X130130273Y-106678320D01*
X129895241Y-106835363D01*
X129695363Y-107035241D01*
X129540000Y-107267759D01*
X129384637Y-107035241D01*
X129184759Y-106835363D01*
X128949727Y-106678320D01*
X128688574Y-106570147D01*
X128411335Y-106515000D01*
X128128665Y-106515000D01*
X127851426Y-106570147D01*
X127590273Y-106678320D01*
X127355241Y-106835363D01*
X127155363Y-107035241D01*
X127000000Y-107267759D01*
X126844637Y-107035241D01*
X126644759Y-106835363D01*
X126409727Y-106678320D01*
X126148574Y-106570147D01*
X125871335Y-106515000D01*
X125588665Y-106515000D01*
X125311426Y-106570147D01*
X125050273Y-106678320D01*
X124815241Y-106835363D01*
X124615363Y-107035241D01*
X124460000Y-107267759D01*
X124304637Y-107035241D01*
X124104759Y-106835363D01*
X123869727Y-106678320D01*
X123608574Y-106570147D01*
X123331335Y-106515000D01*
X123048665Y-106515000D01*
X122771426Y-106570147D01*
X122510273Y-106678320D01*
X122275241Y-106835363D01*
X122075363Y-107035241D01*
X121920000Y-107267759D01*
X121764637Y-107035241D01*
X121564759Y-106835363D01*
X121329727Y-106678320D01*
X121068574Y-106570147D01*
X120791335Y-106515000D01*
X120508665Y-106515000D01*
X120231426Y-106570147D01*
X119970273Y-106678320D01*
X119735241Y-106835363D01*
X119535363Y-107035241D01*
X119378320Y-107270273D01*
X119373933Y-107280865D01*
X119262385Y-107094869D01*
X119073414Y-106886481D01*
X118847420Y-106718963D01*
X118593087Y-106598754D01*
X118459039Y-106558096D01*
X118237000Y-106680085D01*
X117983000Y-106680085D01*
X117760961Y-106558096D01*
X117626913Y-106598754D01*
X117372580Y-106718963D01*
X117146586Y-106886481D01*
X116957615Y-107094869D01*
X116846067Y-107280865D01*
X116841680Y-107270273D01*
X116684637Y-107035241D01*
X116484759Y-106835363D01*
X116249727Y-106678320D01*
X115988574Y-106570147D01*
X115711335Y-106515000D01*
X115428665Y-106515000D01*
X115151426Y-106570147D01*
X114890273Y-106678320D01*
X114655241Y-106835363D01*
X114455363Y-107035241D01*
X114300000Y-107267759D01*
X114144637Y-107035241D01*
X113944759Y-106835363D01*
X113709727Y-106678320D01*
X113448574Y-106570147D01*
X113171335Y-106515000D01*
X112888665Y-106515000D01*
X112611426Y-106570147D01*
X112350273Y-106678320D01*
X112115241Y-106835363D01*
X111915363Y-107035241D01*
X111760000Y-107267759D01*
X111604637Y-107035241D01*
X111404759Y-106835363D01*
X111169727Y-106678320D01*
X110908574Y-106570147D01*
X110631335Y-106515000D01*
X110348665Y-106515000D01*
X110071426Y-106570147D01*
X109810273Y-106678320D01*
X109575241Y-106835363D01*
X109375363Y-107035241D01*
X109220000Y-107267759D01*
X109064637Y-107035241D01*
X108864759Y-106835363D01*
X108629727Y-106678320D01*
X108368574Y-106570147D01*
X108091335Y-106515000D01*
X107808665Y-106515000D01*
X107531426Y-106570147D01*
X107270273Y-106678320D01*
X107035241Y-106835363D01*
X106835363Y-107035241D01*
X106680000Y-107267759D01*
X106524637Y-107035241D01*
X106324759Y-106835363D01*
X106089727Y-106678320D01*
X105828574Y-106570147D01*
X105551335Y-106515000D01*
X105268665Y-106515000D01*
X104991426Y-106570147D01*
X104730273Y-106678320D01*
X104495241Y-106835363D01*
X104295363Y-107035241D01*
X104140000Y-107267759D01*
X103984637Y-107035241D01*
X103784759Y-106835363D01*
X103549727Y-106678320D01*
X103288574Y-106570147D01*
X103011335Y-106515000D01*
X102728665Y-106515000D01*
X102451426Y-106570147D01*
X102190273Y-106678320D01*
X101955241Y-106835363D01*
X101755363Y-107035241D01*
X101598320Y-107270273D01*
X101490147Y-107531426D01*
X101435000Y-107808665D01*
X97955000Y-107808665D01*
X97899853Y-107531426D01*
X97791680Y-107270273D01*
X97634637Y-107035241D01*
X97434759Y-106835363D01*
X97199727Y-106678320D01*
X96938574Y-106570147D01*
X96661335Y-106515000D01*
X96378665Y-106515000D01*
X96101426Y-106570147D01*
X95840273Y-106678320D01*
X95605241Y-106835363D01*
X95405363Y-107035241D01*
X95248320Y-107270273D01*
X95140147Y-107531426D01*
X95085000Y-107808665D01*
X89065000Y-107808665D01*
X89009853Y-107531426D01*
X88901680Y-107270273D01*
X88744637Y-107035241D01*
X88544759Y-106835363D01*
X88309727Y-106678320D01*
X88048574Y-106570147D01*
X87771335Y-106515000D01*
X87488665Y-106515000D01*
X87211426Y-106570147D01*
X86950273Y-106678320D01*
X86715241Y-106835363D01*
X86515363Y-107035241D01*
X86358320Y-107270273D01*
X86250147Y-107531426D01*
X86195000Y-107808665D01*
X76327000Y-107808665D01*
X76327000Y-101330000D01*
X81061928Y-101330000D01*
X81074188Y-101454482D01*
X81110498Y-101574180D01*
X81169463Y-101684494D01*
X81248815Y-101781185D01*
X81345506Y-101860537D01*
X81455820Y-101919502D01*
X81575518Y-101955812D01*
X81700000Y-101968072D01*
X82264250Y-101965000D01*
X82423000Y-101806250D01*
X82423000Y-100457000D01*
X81223750Y-100457000D01*
X81065000Y-100615750D01*
X81061928Y-101330000D01*
X76327000Y-101330000D01*
X76327000Y-99330000D01*
X81061928Y-99330000D01*
X81065000Y-100044250D01*
X81223750Y-100203000D01*
X82423000Y-100203000D01*
X82423000Y-98853750D01*
X82677000Y-98853750D01*
X82677000Y-100203000D01*
X82697000Y-100203000D01*
X82697000Y-100457000D01*
X82677000Y-100457000D01*
X82677000Y-101806250D01*
X82835750Y-101965000D01*
X83400000Y-101968072D01*
X83524482Y-101955812D01*
X83644180Y-101919502D01*
X83754494Y-101860537D01*
X83851185Y-101781185D01*
X83930537Y-101684494D01*
X83989502Y-101574180D01*
X84000055Y-101539392D01*
X84220987Y-101720706D01*
X84478967Y-101858599D01*
X84758890Y-101943513D01*
X85050000Y-101972185D01*
X85341111Y-101943513D01*
X85621034Y-101858599D01*
X85879014Y-101720706D01*
X86105134Y-101535134D01*
X86273483Y-101330000D01*
X91221928Y-101330000D01*
X91234188Y-101454482D01*
X91270498Y-101574180D01*
X91329463Y-101684494D01*
X91408815Y-101781185D01*
X91505506Y-101860537D01*
X91615820Y-101919502D01*
X91735518Y-101955812D01*
X91860000Y-101968072D01*
X92424250Y-101965000D01*
X92583000Y-101806250D01*
X92583000Y-100457000D01*
X91383750Y-100457000D01*
X91225000Y-100615750D01*
X91221928Y-101330000D01*
X86273483Y-101330000D01*
X86290706Y-101309014D01*
X86428599Y-101051033D01*
X86513513Y-100771110D01*
X86535000Y-100552949D01*
X86535000Y-100107050D01*
X86513513Y-99888889D01*
X86428599Y-99608966D01*
X86290706Y-99350986D01*
X86273484Y-99330000D01*
X91221928Y-99330000D01*
X91225000Y-100044250D01*
X91383750Y-100203000D01*
X92583000Y-100203000D01*
X92583000Y-98853750D01*
X92837000Y-98853750D01*
X92837000Y-100203000D01*
X92857000Y-100203000D01*
X92857000Y-100457000D01*
X92837000Y-100457000D01*
X92837000Y-101806250D01*
X92995750Y-101965000D01*
X93560000Y-101968072D01*
X93684482Y-101955812D01*
X93804180Y-101919502D01*
X93914494Y-101860537D01*
X94011185Y-101781185D01*
X94090537Y-101684494D01*
X94149502Y-101574180D01*
X94160055Y-101539392D01*
X94380987Y-101720706D01*
X94638967Y-101858599D01*
X94918890Y-101943513D01*
X95210000Y-101972185D01*
X95501111Y-101943513D01*
X95781034Y-101858599D01*
X96039014Y-101720706D01*
X96265134Y-101535134D01*
X96450706Y-101309014D01*
X96588599Y-101051033D01*
X96664749Y-100800000D01*
X106511928Y-100800000D01*
X106511928Y-102400000D01*
X106524188Y-102524482D01*
X106560498Y-102644180D01*
X106619463Y-102754494D01*
X106698815Y-102851185D01*
X106795506Y-102930537D01*
X106905820Y-102989502D01*
X107025518Y-103025812D01*
X107150000Y-103038072D01*
X108750000Y-103038072D01*
X108874482Y-103025812D01*
X108994180Y-102989502D01*
X109104494Y-102930537D01*
X109201185Y-102851185D01*
X109280537Y-102754494D01*
X109339502Y-102644180D01*
X109355117Y-102592702D01*
X109636903Y-102592702D01*
X109708486Y-102836671D01*
X109963996Y-102957571D01*
X110238184Y-103026300D01*
X110520512Y-103040217D01*
X110800130Y-102998787D01*
X111066292Y-102903603D01*
X111191514Y-102836671D01*
X111263097Y-102592702D01*
X110450000Y-101779605D01*
X109636903Y-102592702D01*
X109355117Y-102592702D01*
X109375812Y-102524482D01*
X109388072Y-102400000D01*
X109388072Y-102392785D01*
X109457298Y-102413097D01*
X110270395Y-101600000D01*
X110629605Y-101600000D01*
X111442702Y-102413097D01*
X111686671Y-102341514D01*
X111807571Y-102086004D01*
X111839339Y-101959267D01*
X121923680Y-101959267D01*
X121997558Y-102240830D01*
X122124947Y-102502570D01*
X122300951Y-102734429D01*
X122518807Y-102927496D01*
X122770142Y-103074352D01*
X123033110Y-103166476D01*
X123263000Y-103045155D01*
X123263000Y-101727000D01*
X122063835Y-101727000D01*
X121923680Y-101959267D01*
X111839339Y-101959267D01*
X111876300Y-101811816D01*
X111890217Y-101529488D01*
X111848787Y-101249870D01*
X111845520Y-101240733D01*
X121923680Y-101240733D01*
X122063835Y-101473000D01*
X123263000Y-101473000D01*
X123263000Y-100154845D01*
X123517000Y-100154845D01*
X123517000Y-101473000D01*
X123537000Y-101473000D01*
X123537000Y-101727000D01*
X123517000Y-101727000D01*
X123517000Y-103045155D01*
X123746890Y-103166476D01*
X124009858Y-103074352D01*
X124261193Y-102927496D01*
X124479049Y-102734429D01*
X124635538Y-102528278D01*
X124649294Y-102554013D01*
X124834866Y-102780134D01*
X125060986Y-102965706D01*
X125318966Y-103103599D01*
X125598889Y-103188513D01*
X125890000Y-103217185D01*
X126181110Y-103188513D01*
X126461033Y-103103599D01*
X126719013Y-102965706D01*
X126945134Y-102780134D01*
X127130706Y-102554014D01*
X127140000Y-102536626D01*
X127149294Y-102554013D01*
X127334866Y-102780134D01*
X127560986Y-102965706D01*
X127818966Y-103103599D01*
X128098889Y-103188513D01*
X128390000Y-103217185D01*
X128681110Y-103188513D01*
X128961033Y-103103599D01*
X129219013Y-102965706D01*
X129445134Y-102780134D01*
X129630706Y-102554014D01*
X129640000Y-102536626D01*
X129649294Y-102554013D01*
X129834866Y-102780134D01*
X130060986Y-102965706D01*
X130318966Y-103103599D01*
X130598889Y-103188513D01*
X130890000Y-103217185D01*
X131181110Y-103188513D01*
X131461033Y-103103599D01*
X131719013Y-102965706D01*
X131945134Y-102780134D01*
X132130706Y-102554014D01*
X132140000Y-102536626D01*
X132149294Y-102554013D01*
X132334866Y-102780134D01*
X132560986Y-102965706D01*
X132818966Y-103103599D01*
X133098889Y-103188513D01*
X133390000Y-103217185D01*
X133681110Y-103188513D01*
X133961033Y-103103599D01*
X134219013Y-102965706D01*
X134445134Y-102780134D01*
X134497223Y-102716663D01*
X134551595Y-102818386D01*
X134662038Y-102952962D01*
X134796614Y-103063405D01*
X134950150Y-103145472D01*
X135116746Y-103196008D01*
X135290000Y-103213072D01*
X136490000Y-103213072D01*
X136663254Y-103196008D01*
X136829850Y-103145472D01*
X136983386Y-103063405D01*
X137117962Y-102952962D01*
X137228405Y-102818386D01*
X137310472Y-102664850D01*
X137361008Y-102498254D01*
X137378072Y-102325000D01*
X137378072Y-101330000D01*
X145831928Y-101330000D01*
X145844188Y-101454482D01*
X145880498Y-101574180D01*
X145939463Y-101684494D01*
X146018815Y-101781185D01*
X146115506Y-101860537D01*
X146225820Y-101919502D01*
X146345518Y-101955812D01*
X146470000Y-101968072D01*
X147034250Y-101965000D01*
X147193000Y-101806250D01*
X147193000Y-100457000D01*
X145993750Y-100457000D01*
X145835000Y-100615750D01*
X145831928Y-101330000D01*
X137378072Y-101330000D01*
X137378072Y-100875000D01*
X137361008Y-100701746D01*
X137310472Y-100535150D01*
X137228405Y-100381614D01*
X137117962Y-100247038D01*
X136983386Y-100136595D01*
X136829850Y-100054528D01*
X136663254Y-100003992D01*
X136490000Y-99986928D01*
X135290000Y-99986928D01*
X135116746Y-100003992D01*
X134950150Y-100054528D01*
X134796614Y-100136595D01*
X134662038Y-100247038D01*
X134551595Y-100381614D01*
X134497223Y-100483337D01*
X134445134Y-100419866D01*
X134219014Y-100234294D01*
X133961034Y-100096401D01*
X133681111Y-100011487D01*
X133390000Y-99982815D01*
X133098890Y-100011487D01*
X132818967Y-100096401D01*
X132560987Y-100234294D01*
X132334866Y-100419866D01*
X132149294Y-100645986D01*
X132140000Y-100663374D01*
X132130706Y-100645986D01*
X131945134Y-100419866D01*
X131719014Y-100234294D01*
X131461034Y-100096401D01*
X131181111Y-100011487D01*
X130890000Y-99982815D01*
X130598890Y-100011487D01*
X130318967Y-100096401D01*
X130060987Y-100234294D01*
X129834866Y-100419866D01*
X129649294Y-100645986D01*
X129640000Y-100663374D01*
X129630706Y-100645986D01*
X129445134Y-100419866D01*
X129219014Y-100234294D01*
X128961034Y-100096401D01*
X128681111Y-100011487D01*
X128390000Y-99982815D01*
X128098890Y-100011487D01*
X127818967Y-100096401D01*
X127560987Y-100234294D01*
X127334866Y-100419866D01*
X127149294Y-100645986D01*
X127140000Y-100663374D01*
X127130706Y-100645986D01*
X126945134Y-100419866D01*
X126719014Y-100234294D01*
X126461034Y-100096401D01*
X126181111Y-100011487D01*
X125890000Y-99982815D01*
X125598890Y-100011487D01*
X125318967Y-100096401D01*
X125060987Y-100234294D01*
X124834866Y-100419866D01*
X124649294Y-100645986D01*
X124635538Y-100671722D01*
X124479049Y-100465571D01*
X124261193Y-100272504D01*
X124009858Y-100125648D01*
X123746890Y-100033524D01*
X123517000Y-100154845D01*
X123263000Y-100154845D01*
X123033110Y-100033524D01*
X122770142Y-100125648D01*
X122518807Y-100272504D01*
X122300951Y-100465571D01*
X122124947Y-100697430D01*
X121997558Y-100959170D01*
X121923680Y-101240733D01*
X111845520Y-101240733D01*
X111753603Y-100983708D01*
X111686671Y-100858486D01*
X111442702Y-100786903D01*
X110629605Y-101600000D01*
X110270395Y-101600000D01*
X109457298Y-100786903D01*
X109388072Y-100807215D01*
X109388072Y-100800000D01*
X109375812Y-100675518D01*
X109355118Y-100607298D01*
X109636903Y-100607298D01*
X110450000Y-101420395D01*
X111263097Y-100607298D01*
X111191514Y-100363329D01*
X110936004Y-100242429D01*
X110661816Y-100173700D01*
X110379488Y-100159783D01*
X110099870Y-100201213D01*
X109833708Y-100296397D01*
X109708486Y-100363329D01*
X109636903Y-100607298D01*
X109355118Y-100607298D01*
X109339502Y-100555820D01*
X109280537Y-100445506D01*
X109201185Y-100348815D01*
X109104494Y-100269463D01*
X108994180Y-100210498D01*
X108874482Y-100174188D01*
X108750000Y-100161928D01*
X107150000Y-100161928D01*
X107025518Y-100174188D01*
X106905820Y-100210498D01*
X106795506Y-100269463D01*
X106698815Y-100348815D01*
X106619463Y-100445506D01*
X106560498Y-100555820D01*
X106524188Y-100675518D01*
X106511928Y-100800000D01*
X96664749Y-100800000D01*
X96673513Y-100771110D01*
X96695000Y-100552949D01*
X96695000Y-100107050D01*
X96673513Y-99888889D01*
X96588599Y-99608966D01*
X96450706Y-99350986D01*
X96433484Y-99330000D01*
X145831928Y-99330000D01*
X145835000Y-100044250D01*
X145993750Y-100203000D01*
X147193000Y-100203000D01*
X147193000Y-98853750D01*
X147447000Y-98853750D01*
X147447000Y-100203000D01*
X147467000Y-100203000D01*
X147467000Y-100457000D01*
X147447000Y-100457000D01*
X147447000Y-101806250D01*
X147605750Y-101965000D01*
X148170000Y-101968072D01*
X148294482Y-101955812D01*
X148414180Y-101919502D01*
X148524494Y-101860537D01*
X148621185Y-101781185D01*
X148700537Y-101684494D01*
X148759502Y-101574180D01*
X148770055Y-101539392D01*
X148990987Y-101720706D01*
X149248967Y-101858599D01*
X149528890Y-101943513D01*
X149820000Y-101972185D01*
X150111111Y-101943513D01*
X150391034Y-101858599D01*
X150649014Y-101720706D01*
X150875134Y-101535134D01*
X151043483Y-101330000D01*
X155991928Y-101330000D01*
X156004188Y-101454482D01*
X156040498Y-101574180D01*
X156099463Y-101684494D01*
X156178815Y-101781185D01*
X156275506Y-101860537D01*
X156385820Y-101919502D01*
X156505518Y-101955812D01*
X156630000Y-101968072D01*
X157194250Y-101965000D01*
X157353000Y-101806250D01*
X157353000Y-100457000D01*
X156153750Y-100457000D01*
X155995000Y-100615750D01*
X155991928Y-101330000D01*
X151043483Y-101330000D01*
X151060706Y-101309014D01*
X151198599Y-101051033D01*
X151283513Y-100771110D01*
X151305000Y-100552949D01*
X151305000Y-100107050D01*
X151283513Y-99888889D01*
X151198599Y-99608966D01*
X151060706Y-99350986D01*
X151043484Y-99330000D01*
X155991928Y-99330000D01*
X155995000Y-100044250D01*
X156153750Y-100203000D01*
X157353000Y-100203000D01*
X157353000Y-98853750D01*
X157607000Y-98853750D01*
X157607000Y-100203000D01*
X157627000Y-100203000D01*
X157627000Y-100457000D01*
X157607000Y-100457000D01*
X157607000Y-101806250D01*
X157765750Y-101965000D01*
X158330000Y-101968072D01*
X158454482Y-101955812D01*
X158574180Y-101919502D01*
X158684494Y-101860537D01*
X158781185Y-101781185D01*
X158860537Y-101684494D01*
X158919502Y-101574180D01*
X158930055Y-101539392D01*
X159150987Y-101720706D01*
X159408967Y-101858599D01*
X159688890Y-101943513D01*
X159980000Y-101972185D01*
X160271111Y-101943513D01*
X160551034Y-101858599D01*
X160809014Y-101720706D01*
X161035134Y-101535134D01*
X161220706Y-101309014D01*
X161358599Y-101051033D01*
X161443513Y-100771110D01*
X161465000Y-100552949D01*
X161465000Y-100107050D01*
X161443513Y-99888889D01*
X161358599Y-99608966D01*
X161220706Y-99350986D01*
X161035134Y-99124866D01*
X160809013Y-98939294D01*
X160551033Y-98801401D01*
X160271110Y-98716487D01*
X159980000Y-98687815D01*
X159688889Y-98716487D01*
X159408966Y-98801401D01*
X159150986Y-98939294D01*
X158930055Y-99120608D01*
X158919502Y-99085820D01*
X158860537Y-98975506D01*
X158781185Y-98878815D01*
X158684494Y-98799463D01*
X158574180Y-98740498D01*
X158454482Y-98704188D01*
X158330000Y-98691928D01*
X157765750Y-98695000D01*
X157607000Y-98853750D01*
X157353000Y-98853750D01*
X157194250Y-98695000D01*
X156630000Y-98691928D01*
X156505518Y-98704188D01*
X156385820Y-98740498D01*
X156275506Y-98799463D01*
X156178815Y-98878815D01*
X156099463Y-98975506D01*
X156040498Y-99085820D01*
X156004188Y-99205518D01*
X155991928Y-99330000D01*
X151043484Y-99330000D01*
X150875134Y-99124866D01*
X150649013Y-98939294D01*
X150391033Y-98801401D01*
X150111110Y-98716487D01*
X149820000Y-98687815D01*
X149528889Y-98716487D01*
X149248966Y-98801401D01*
X148990986Y-98939294D01*
X148770055Y-99120608D01*
X148759502Y-99085820D01*
X148700537Y-98975506D01*
X148621185Y-98878815D01*
X148524494Y-98799463D01*
X148414180Y-98740498D01*
X148294482Y-98704188D01*
X148170000Y-98691928D01*
X147605750Y-98695000D01*
X147447000Y-98853750D01*
X147193000Y-98853750D01*
X147034250Y-98695000D01*
X146470000Y-98691928D01*
X146345518Y-98704188D01*
X146225820Y-98740498D01*
X146115506Y-98799463D01*
X146018815Y-98878815D01*
X145939463Y-98975506D01*
X145880498Y-99085820D01*
X145844188Y-99205518D01*
X145831928Y-99330000D01*
X96433484Y-99330000D01*
X96265134Y-99124866D01*
X96039013Y-98939294D01*
X95781033Y-98801401D01*
X95501110Y-98716487D01*
X95210000Y-98687815D01*
X94918889Y-98716487D01*
X94638966Y-98801401D01*
X94380986Y-98939294D01*
X94160055Y-99120608D01*
X94149502Y-99085820D01*
X94090537Y-98975506D01*
X94011185Y-98878815D01*
X93914494Y-98799463D01*
X93804180Y-98740498D01*
X93684482Y-98704188D01*
X93560000Y-98691928D01*
X92995750Y-98695000D01*
X92837000Y-98853750D01*
X92583000Y-98853750D01*
X92424250Y-98695000D01*
X91860000Y-98691928D01*
X91735518Y-98704188D01*
X91615820Y-98740498D01*
X91505506Y-98799463D01*
X91408815Y-98878815D01*
X91329463Y-98975506D01*
X91270498Y-99085820D01*
X91234188Y-99205518D01*
X91221928Y-99330000D01*
X86273484Y-99330000D01*
X86105134Y-99124866D01*
X85879013Y-98939294D01*
X85621033Y-98801401D01*
X85341110Y-98716487D01*
X85050000Y-98687815D01*
X84758889Y-98716487D01*
X84478966Y-98801401D01*
X84220986Y-98939294D01*
X84000055Y-99120608D01*
X83989502Y-99085820D01*
X83930537Y-98975506D01*
X83851185Y-98878815D01*
X83754494Y-98799463D01*
X83644180Y-98740498D01*
X83524482Y-98704188D01*
X83400000Y-98691928D01*
X82835750Y-98695000D01*
X82677000Y-98853750D01*
X82423000Y-98853750D01*
X82264250Y-98695000D01*
X81700000Y-98691928D01*
X81575518Y-98704188D01*
X81455820Y-98740498D01*
X81345506Y-98799463D01*
X81248815Y-98878815D01*
X81169463Y-98975506D01*
X81110498Y-99085820D01*
X81074188Y-99205518D01*
X81061928Y-99330000D01*
X76327000Y-99330000D01*
X76327000Y-96647000D01*
X164973000Y-96647000D01*
X164973000Y-158623000D01*
G37*
%TD.AperFunction*%
%TD*%
M02*
