M48
; DRILL file {KiCad 5.99.0+really5.1.10+dfsg1-1} date Thu Mar 10 13:38:22 2022
; FORMAT={-:-/ absolute / inch / decimal}
; #@! TF.CreationDate,2022-03-10T13:38:22+00:00
; #@! TF.GenerationSoftware,Kicad,Pcbnew,5.99.0+really5.1.10+dfsg1-1
FMAT,2
INCH
T1C0.0260
T2C0.0315
T3C0.0374
T4C0.0394
T5C0.0433
T6C0.0902
T7C0.1378
%
G90
G05
T2
X3.4Y-4.8
X3.4Y-4.95
X3.4Y-5.25
X3.4Y-5.45
X3.4Y-5.75
X3.4Y-5.85
X3.4Y-6.15
X3.45Y-4.25
X3.45Y-4.55
X3.7Y-4.8
X3.8Y-4.25
X3.8Y-4.55
X4.0Y-4.75
X4.05Y-4.25
X4.05Y-4.55
X4.15Y-4.25
X4.15Y-4.55
X4.25Y-4.0
X4.25Y-4.25
X4.25Y-4.55
X4.3Y-4.75
X4.3484Y-4.0
X4.35Y-4.25
X4.35Y-4.55
X4.45Y-4.25
X4.45Y-4.55
X4.45Y-4.7016
X4.45Y-4.8
X4.55Y-4.25
X4.55Y-4.55
X4.65Y-4.25
X4.65Y-4.55
X4.65Y-4.75
X4.75Y-4.25
X4.75Y-4.55
X4.8469Y-4.75
X4.85Y-4.25
X4.85Y-4.55
X4.95Y-4.25
X4.95Y-4.55
X5.05Y-4.25
X5.05Y-4.55
X5.05Y-4.7016
X5.05Y-4.8
X5.15Y-4.25
X5.15Y-4.55
X5.25Y-4.25
X5.25Y-4.55
X5.35Y-4.25
X5.35Y-4.55
X5.5Y-4.75
X5.55Y-4.25
X5.5984Y-4.75
X5.85Y-4.25
X6.0Y-4.3
X6.0Y-4.45
X6.2Y-4.65
X6.2Y-4.95
X6.3Y-4.3
X6.3Y-4.45
X6.3Y-5.85
X6.3Y-6.15
T3
X4.8579Y-4.0
X4.9563Y-4.0
X5.0547Y-4.0
X5.1531Y-4.0
X5.2516Y-4.0
X5.35Y-4.0
T4
X3.2Y-4.6
X3.2Y-4.6984
X3.2Y-5.0016
X3.2Y-5.1
X3.2Y-5.5516
X3.2Y-5.65
X3.2Y-5.9516
X3.2Y-6.05
X3.25Y-3.95
X3.3484Y-3.95
X3.65Y-3.95
X3.7484Y-3.95
X5.8Y-3.95
X5.85Y-4.8
X5.85Y-6.05
X5.8984Y-3.95
X5.9484Y-4.8
X5.9484Y-6.05
X6.2Y-3.95
X6.2984Y-3.95
X6.35Y-5.15
X6.35Y-5.2484
X6.35Y-5.55
X6.35Y-5.6484
T5
X5.6Y-4.5
X5.7Y-4.5
X5.8Y-4.5
X5.85Y-5.85
X5.95Y-5.85
X6.05Y-5.85
T6
X4.0543Y-5.1063
X4.585Y-5.9862
X5.1161Y-5.1063
T7
X5.95Y-5.1941
T1
G00X5.6Y-5.3246
M15
G01X5.6Y-5.2612
M16
G05
G00X5.6Y-5.8317
M15
G01X5.6Y-5.7683
M16
G05
T0
M30
